<svg width="16" height="18" viewBox="0 0 16 18" fill="none" xmlns="http://www.w3.org/2000/svg">
<path d="M12.707 9.47416C12.6995 8.10858 13.3172 7.07788 14.5674 6.31882C13.8679 5.31789 12.8112 4.7672 11.4158 4.65929C10.0949 4.5551 8.65117 5.42952 8.1228 5.42952C7.56467 5.42952 6.28467 4.6965 5.28003 4.6965C3.20376 4.72999 0.997253 6.35231 0.997253 9.65276C0.997253 10.6276 1.17586 11.6348 1.53307 12.6741C2.00934 14.0397 3.7284 17.3885 5.52189 17.3327C6.45956 17.3104 7.12188 16.6667 8.34234 16.6667C9.52559 16.6667 10.1395 17.3327 11.1851 17.3327C12.9935 17.3067 14.5488 14.263 15.0028 12.8937C12.5767 11.7514 12.707 9.54485 12.707 9.47416V9.47416ZM10.6009 3.36441C11.6167 2.15884 11.5237 1.06117 11.494 0.666748C10.5972 0.718841 9.55908 1.27698 8.96745 1.96535C8.31629 2.70209 7.93304 3.61371 8.0149 4.64069C8.98606 4.7151 9.87163 4.2165 10.6009 3.36441V3.36441Z" fill="#2A84C6"/>
</svg>
