<svg width="60" height="60" viewBox="0 0 60 60" fill="none" xmlns="http://www.w3.org/2000/svg">
<circle cx="30" cy="30" r="30" fill="#2A84C6"/>
<circle cx="30" cy="30" r="30" fill="white" fill-opacity="0.2"/>
<path d="M41.6667 23.7778V24.5555C41.6667 24.6587 41.6257 24.7576 41.5528 24.8305C41.4799 24.9035 41.381 24.9444 41.2778 24.9444H40.1112V25.5278C40.1112 25.8499 39.85 26.1111 39.5278 26.1111H20.4723C20.1501 26.1111 19.8889 25.8499 19.8889 25.5278V24.9444H18.7223C18.6191 24.9444 18.5202 24.9035 18.4473 24.8305C18.3743 24.7576 18.3334 24.6587 18.3334 24.5555V23.7778C18.3334 23.7008 18.3562 23.6256 18.399 23.5617C18.4417 23.4977 18.5025 23.4478 18.5736 23.4184L29.8513 19.1407C29.9466 19.1012 30.0535 19.1012 30.1487 19.1407L41.4265 23.4184C41.4976 23.4478 41.5584 23.4977 41.6011 23.5617C41.6439 23.6256 41.6667 23.7008 41.6667 23.7778ZM40.5 38.5555H19.5C18.8557 38.5555 18.3334 39.0779 18.3334 39.7222V40.5C18.3334 40.6031 18.3743 40.702 18.4473 40.775C18.5202 40.8479 18.6191 40.8889 18.7223 40.8889H41.2778C41.381 40.8889 41.4799 40.8479 41.5528 40.775C41.6257 40.702 41.6667 40.6031 41.6667 40.5V39.7222C41.6667 39.0779 41.1444 38.5555 40.5 38.5555ZM22.2223 26.8889V36.2222H20.4723C20.1501 36.2222 19.8889 36.4834 19.8889 36.8055V37.7778H40.1112V36.8055C40.1112 36.4834 39.85 36.2222 39.5278 36.2222H37.7778V26.8889H34.6667V36.2222H31.5556V26.8889H28.4445V36.2222H25.3334V26.8889H22.2223Z" fill="white"/>
</svg>
