<svg width="258" height="216" viewBox="0 0 258 216" fill="none" xmlns="http://www.w3.org/2000/svg">
<g filter="url(#filter0_ddddd_335_833)">
<g clip-path="url(#clip0_335_833)">
<rect x="28" y="28" width="160" height="160" rx="16" fill="white"/>
<g opacity="0.6" clip-path="url(#clip1_335_833)">
<g opacity="0.6">
<path fill-rule="evenodd" clip-rule="evenodd" d="M47.7881 149.749C47.9273 150.269 47.9804 150.792 47.9559 151.302L62.7631 151.835C62.8655 150.175 64.0101 148.692 65.705 148.238C67.8271 147.669 70.0084 148.929 70.577 151.051C71.0993 153 70.0797 154.999 68.266 155.752L73.4267 175.261C75.9879 174.798 78.5184 176.37 79.2041 178.93C79.927 181.627 78.3261 184.4 75.6285 185.123C73.8156 185.609 71.9688 185.045 70.733 183.804L60.0219 191.225C60.2003 191.56 60.3436 191.919 60.4459 192.301C61.1688 194.999 59.5679 197.772 56.8703 198.494C54.1726 199.217 51.3998 197.616 50.677 194.919C50.5712 194.524 50.5152 194.128 50.5051 193.737L36.4568 193.228C36.4348 195.441 34.9502 197.458 32.7079 198.059C30.0102 198.782 27.2374 197.181 26.5146 194.484C25.7917 191.786 27.3926 189.013 30.0902 188.29L24.6665 168.049C24.6464 168.054 24.6262 168.06 24.606 168.065C22.358 168.668 20.0473 167.334 19.4449 165.086C18.8426 162.838 20.1766 160.527 22.4246 159.925C24.3061 159.42 26.2315 160.273 27.1625 161.882L38.8214 154.045C38.4622 153.554 38.186 152.99 38.0191 152.367C37.2963 149.669 38.8971 146.896 41.5948 146.173C44.2924 145.451 47.0652 147.052 47.7881 149.749ZM47.8789 151.969L62.7703 152.419C62.7902 152.648 62.8304 152.88 62.8921 153.11C63.0279 153.617 63.2556 154.074 63.5525 154.469L50.7003 163.015C49.8399 162.03 48.4643 161.562 47.1155 161.923C45.6766 162.309 44.6835 163.527 44.5161 164.921L27.7131 164.377C27.7569 163.895 27.7181 163.398 27.5857 162.904C27.5483 162.765 27.5044 162.629 27.4543 162.497L39.2684 154.575C40.5041 155.85 42.3756 156.435 44.2124 155.943C46.1609 155.42 47.5372 153.829 47.8789 151.969ZM44.5013 165.61L27.5917 165.066C27.2803 166.247 26.4621 167.265 25.319 167.804L30.7723 188.156C33.2405 187.845 35.6216 189.395 36.2835 191.866C36.343 192.088 36.3868 192.311 36.4155 192.533L50.5351 193.044C50.7528 191.116 52.0761 189.416 54.0146 188.795L48.6912 168.82C46.8867 169.164 45.0955 168.061 44.6125 166.258C44.5545 166.042 44.5179 165.825 44.5013 165.61ZM49.3198 168.639L54.6447 188.637C56.5473 188.284 58.4362 189.055 59.5676 190.522L70.2515 183.244C69.8854 182.749 69.6042 182.178 69.4352 181.547C68.7356 178.936 70.2125 176.255 72.7536 175.43L67.6037 155.963C66.2806 156.26 64.9508 155.857 64.0185 154.988L51.0915 163.561C51.2456 163.826 51.3675 164.116 51.4507 164.426C51.9225 166.187 50.9801 167.993 49.3198 168.639Z" fill="#B7EE81"/>
<path fill-rule="evenodd" clip-rule="evenodd" d="M47.7881 149.749C47.9273 150.269 47.9804 150.792 47.9559 151.302L62.7631 151.835C62.8655 150.175 64.0101 148.692 65.705 148.238C67.8271 147.669 70.0084 148.929 70.577 151.051C71.0993 153 70.0797 154.999 68.266 155.752L73.4267 175.261C75.9879 174.798 78.5184 176.37 79.2041 178.93C79.927 181.627 78.3261 184.4 75.6285 185.123C73.8156 185.609 71.9688 185.045 70.733 183.804L60.0219 191.225C60.2003 191.56 60.3436 191.919 60.4459 192.301C61.1688 194.999 59.5679 197.772 56.8703 198.494C54.1726 199.217 51.3998 197.616 50.677 194.919C50.5712 194.524 50.5152 194.128 50.5051 193.737L36.4568 193.228C36.4348 195.441 34.9502 197.458 32.7079 198.059C30.0102 198.782 27.2374 197.181 26.5146 194.484C25.7917 191.786 27.3926 189.013 30.0902 188.29L24.6665 168.049C24.6464 168.054 24.6262 168.06 24.606 168.065C22.358 168.668 20.0473 167.334 19.4449 165.086C18.8426 162.838 20.1766 160.527 22.4246 159.925C24.3061 159.42 26.2315 160.273 27.1625 161.882L38.8214 154.045C38.4622 153.554 38.186 152.99 38.0191 152.367C37.2963 149.669 38.8971 146.896 41.5948 146.173C44.2924 145.451 47.0652 147.052 47.7881 149.749ZM47.8789 151.969L62.7703 152.419C62.7902 152.648 62.8304 152.88 62.8921 153.11C63.0279 153.617 63.2556 154.074 63.5525 154.469L50.7003 163.015C49.8399 162.03 48.4643 161.562 47.1155 161.923C45.6766 162.309 44.6835 163.527 44.5161 164.921L27.7131 164.377C27.7569 163.895 27.7181 163.398 27.5857 162.904C27.5483 162.765 27.5044 162.629 27.4543 162.497L39.2684 154.575C40.5041 155.85 42.3756 156.435 44.2124 155.943C46.1609 155.42 47.5372 153.829 47.8789 151.969ZM44.5013 165.61L27.5917 165.066C27.2803 166.247 26.4621 167.265 25.319 167.804L30.7723 188.156C33.2405 187.845 35.6216 189.395 36.2835 191.866C36.343 192.088 36.3868 192.311 36.4155 192.533L50.5351 193.044C50.7528 191.116 52.0761 189.416 54.0146 188.795L48.6912 168.82C46.8867 169.164 45.0955 168.061 44.6125 166.258C44.5545 166.042 44.5179 165.825 44.5013 165.61ZM49.3198 168.639L54.6447 188.637C56.5473 188.284 58.4362 189.055 59.5676 190.522L70.2515 183.244C69.8854 182.749 69.6042 182.178 69.4352 181.547C68.7356 178.936 70.2125 176.255 72.7536 175.43L67.6037 155.963C66.2806 156.26 64.9508 155.857 64.0185 154.988L51.0915 163.561C51.2456 163.826 51.3675 164.116 51.4507 164.426C51.9225 166.187 50.9801 167.993 49.3198 168.639Z" fill="white" fill-opacity="0.5"/>
</g>
</g>
<g clip-path="url(#clip2_335_833)">
<path d="M134.147 77.5763L83.0473 108.002C82.0392 108.602 81.7085 109.906 82.3088 110.914L103.382 146.307C103.982 147.315 105.286 147.645 106.294 147.045L157.394 116.62C158.402 116.02 158.733 114.716 158.132 113.708L137.059 78.3148C136.459 77.3067 135.155 76.976 134.147 77.5763Z" fill="#2A84C6"/>
<path d="M134.147 77.5763L83.0473 108.002C82.0392 108.602 81.7085 109.906 82.3088 110.914L103.382 146.307C103.982 147.315 105.286 147.645 106.294 147.045L157.394 116.62C158.402 116.02 158.733 114.716 158.132 113.708L137.059 78.3148C136.459 77.3067 135.155 76.976 134.147 77.5763Z" fill="white" fill-opacity="0.85"/>
<path d="M143.057 88.4447L88.3581 121.013L91.7293 126.675L146.428 94.1067L143.057 88.4447Z" fill="white"/>
<path d="M92.7597 107.548L88.0787 110.335C87.7427 110.535 87.6324 110.97 87.8325 111.306L89.4231 113.977C89.6232 114.313 90.0578 114.423 90.3939 114.223L95.0749 111.436C95.4109 111.236 95.5211 110.802 95.321 110.465L93.7305 107.794C93.5304 107.458 93.0957 107.348 92.7597 107.548Z" fill="#2A84C6"/>
<path d="M92.7597 107.548L88.0787 110.335C87.7427 110.535 87.6324 110.97 87.8325 111.306L89.4231 113.977C89.6232 114.313 90.0578 114.423 90.3939 114.223L95.0749 111.436C95.4109 111.236 95.5211 110.802 95.321 110.465L93.7305 107.794C93.5304 107.458 93.0957 107.348 92.7597 107.548Z" fill="white" fill-opacity="0.85"/>
</g>
<g clip-path="url(#clip3_335_833)">
<path d="M95.0863 65.8176L69.0431 119.284C68.5293 120.338 68.9679 121.61 70.0228 122.124L107.055 140.162C108.109 140.676 109.381 140.237 109.895 139.182L135.938 85.7163C136.452 84.6615 136.013 83.3899 134.958 82.8761L97.9266 64.838C96.8717 64.3242 95.6001 64.7627 95.0863 65.8176Z" fill="#1443BD"/>
<path d="M95.0863 65.8176L69.0431 119.284C68.5293 120.338 68.9679 121.61 70.0228 122.124L107.055 140.162C108.109 140.676 109.381 140.237 109.895 139.182L135.938 85.7163C136.452 84.6615 136.013 83.3899 134.958 82.8761L97.9266 64.838C96.8717 64.3242 95.6001 64.7627 95.0863 65.8176Z" fill="white" fill-opacity="0.5"/>
<path d="M126.692 92.1417C127.095 91.3131 126.005 89.9508 124.256 89.0989C122.507 88.247 120.762 88.2281 120.358 89.0566C119.955 89.8852 121.045 91.2475 122.794 92.0994C124.543 92.9513 126.288 92.9702 126.692 92.1417Z" fill="white"/>
<path d="M108.497 70.0196L80.6193 127.251L86.5435 130.137L114.421 72.9053L108.497 70.0196Z" fill="white"/>
<path d="M104.318 109.241L94.9701 128.432C94.7988 128.783 94.945 129.207 95.2966 129.378L96.0697 129.755C96.4213 129.926 96.8452 129.78 97.0165 129.429L106.364 110.238C106.535 109.887 106.389 109.463 106.037 109.291L105.264 108.915C104.913 108.744 104.489 108.89 104.318 109.241Z" fill="white"/>
<path d="M106.501 120.353L101.109 131.421C100.938 131.773 101.084 132.197 101.436 132.368L102.209 132.745C102.56 132.916 102.984 132.77 103.155 132.418L108.547 121.349C108.718 120.998 108.572 120.574 108.221 120.403L107.447 120.026C107.096 119.855 106.672 120.001 106.501 120.353Z" fill="white"/>
<path d="M76.9164 113.578L74.5308 118.476C74.3595 118.827 74.5057 119.251 74.8573 119.422L77.6524 120.784C78.004 120.955 78.4279 120.809 78.5992 120.457L80.9849 115.56C81.1561 115.208 81.0099 114.784 80.6583 114.613L77.8632 113.251C77.5116 113.08 77.0877 113.226 76.9164 113.578Z" fill="#1443BD"/>
<path d="M76.9164 113.578L74.5308 118.476C74.3595 118.827 74.5057 119.251 74.8573 119.422L77.6524 120.784C78.004 120.955 78.4279 120.809 78.5992 120.457L80.9849 115.56C81.1561 115.208 81.0099 114.784 80.6583 114.613L77.8632 113.251C77.5116 113.08 77.0877 113.226 76.9164 113.578Z" fill="white" fill-opacity="0.5"/>
<path d="M122.794 92.1003C121.566 91.5037 120.672 90.386 120.359 89.057C118.18 90.0587 117.152 92.5786 118.008 94.8184C118.864 97.0582 121.311 98.25 123.602 97.5433C125.894 96.8366 127.244 94.4737 126.69 92.1407C125.451 92.7132 124.021 92.6983 122.794 92.1003Z" fill="#2A84C6"/>
<path d="M122.794 92.1003C121.566 91.5037 120.672 90.386 120.359 89.057C118.18 90.0587 117.152 92.5786 118.008 94.8184C118.864 97.0582 121.311 98.25 123.602 97.5433C125.894 96.8366 127.244 94.4737 126.69 92.1407C125.451 92.7132 124.021 92.6983 122.794 92.1003Z" fill="white" fill-opacity="0.5"/>
<path d="M120.696 86.0136C120.234 86.9582 120.115 88.0339 120.359 89.0565C121.598 88.4866 123.028 88.5026 124.254 89.0999C125.481 89.6973 126.375 90.8131 126.69 92.1403C128.513 91.3033 129.573 89.3721 129.3 87.385C129.028 85.3979 127.487 83.8232 125.507 83.5075C123.526 83.1919 121.572 84.2096 120.696 86.0136Z" fill="#B7EE81"/>
<path d="M120.696 86.0136C120.234 86.9582 120.115 88.0339 120.359 89.0565C121.598 88.4866 123.028 88.5026 124.254 89.0999C125.481 89.6973 126.375 90.8131 126.69 92.1403C128.513 91.3033 129.573 89.3721 129.3 87.385C129.028 85.3979 127.487 83.8232 125.507 83.5075C123.526 83.1919 121.572 84.2096 120.696 86.0136Z" fill="white" fill-opacity="0.2"/>
</g>
<path fill-rule="evenodd" clip-rule="evenodd" d="M89.034 98.5686C89.034 98.5686 86.262 102.849 81.8756 105.145C77.4894 107.442 72.0855 106.781 68.5415 104.554C64.9972 102.327 63.8042 100.448 63.8042 100.448L60.7514 102.187C60.7514 102.187 60.1197 102.501 60.1197 101.77V90.8437C60.1197 90.8437 60.1197 89.8695 60.8565 90.2174C61.4765 90.5102 68.1811 94.3246 70.2938 95.5281C71.4539 96.0459 70.4346 96.4663 70.4346 96.4663L67.4887 98.1511C67.4887 98.1511 69.1691 100.257 71.6285 101.372C74.261 102.744 76.7256 102.907 79.7447 101.766C81.6554 101.045 83.8951 99.2302 85.5514 96.5526C85.634 96.4191 85.8119 96.3825 85.9417 96.4706L89.034 98.5686ZM61.6638 84.1285C61.6638 84.1285 64.4358 79.8485 68.8221 77.5519C73.2083 75.2555 78.6123 75.9166 82.1563 78.1435C85.7003 80.3705 86.8935 82.2495 86.8935 82.2495L89.9463 80.5097C89.9463 80.5097 90.578 80.1966 90.578 80.9273V91.8534C90.578 91.8534 90.578 92.8277 89.841 92.4797C89.221 92.187 82.5166 88.3725 80.404 87.1691C79.2438 86.6513 80.2631 86.2307 80.2631 86.2307L83.209 84.546C83.209 84.546 81.5287 82.4405 79.0692 81.3253C76.4367 79.9529 73.972 79.7902 70.953 80.9306C68.9844 81.6741 66.6666 83.578 64.9971 86.3902L61.6638 84.1285Z" fill="#1443BD"/>
</g>
</g>
<defs>
<filter id="filter0_ddddd_335_833" x="-42" y="-2" width="300" height="300" filterUnits="userSpaceOnUse" color-interpolation-filters="sRGB">
<feFlood flood-opacity="0" result="BackgroundImageFix"/>
<feColorMatrix in="SourceAlpha" type="matrix" values="0 0 0 0 0 0 0 0 0 0 0 0 0 0 0 0 0 0 127 0" result="hardAlpha"/>
<feOffset dy="6"/>
<feGaussianBlur stdDeviation="4"/>
<feColorMatrix type="matrix" values="0 0 0 0 0.705882 0 0 0 0 0.831373 0 0 0 0 0.921569 0 0 0 0.12 0"/>
<feBlend mode="normal" in2="BackgroundImageFix" result="effect1_dropShadow_335_833"/>
<feColorMatrix in="SourceAlpha" type="matrix" values="0 0 0 0 0 0 0 0 0 0 0 0 0 0 0 0 0 0 127 0" result="hardAlpha"/>
<feOffset dy="8"/>
<feGaussianBlur stdDeviation="12"/>
<feColorMatrix type="matrix" values="0 0 0 0 0.705882 0 0 0 0 0.831373 0 0 0 0 0.921569 0 0 0 0.08 0"/>
<feBlend mode="normal" in2="effect1_dropShadow_335_833" result="effect2_dropShadow_335_833"/>
<feColorMatrix in="SourceAlpha" type="matrix" values="0 0 0 0 0 0 0 0 0 0 0 0 0 0 0 0 0 0 127 0" result="hardAlpha"/>
<feOffset dy="16"/>
<feGaussianBlur stdDeviation="18"/>
<feColorMatrix type="matrix" values="0 0 0 0 0.705882 0 0 0 0 0.831373 0 0 0 0 0.921569 0 0 0 0.04 0"/>
<feBlend mode="normal" in2="effect2_dropShadow_335_833" result="effect3_dropShadow_335_833"/>
<feColorMatrix in="SourceAlpha" type="matrix" values="0 0 0 0 0 0 0 0 0 0 0 0 0 0 0 0 0 0 127 0" result="hardAlpha"/>
<feOffset dy="40"/>
<feGaussianBlur stdDeviation="35"/>
<feColorMatrix type="matrix" values="0 0 0 0 0.705882 0 0 0 0 0.831373 0 0 0 0 0.921569 0 0 0 0.04 0"/>
<feBlend mode="normal" in2="effect3_dropShadow_335_833" result="effect4_dropShadow_335_833"/>
<feColorMatrix in="SourceAlpha" type="matrix" values="0 0 0 0 0 0 0 0 0 0 0 0 0 0 0 0 0 0 127 0" result="hardAlpha"/>
<feOffset dy="2"/>
<feGaussianBlur stdDeviation="2"/>
<feColorMatrix type="matrix" values="0 0 0 0 0.87451 0 0 0 0 0.929412 0 0 0 0 0.964706 0 0 0 0.4 0"/>
<feBlend mode="normal" in2="effect4_dropShadow_335_833" result="effect5_dropShadow_335_833"/>
<feBlend mode="normal" in="SourceGraphic" in2="effect5_dropShadow_335_833" result="shape"/>
</filter>
<clipPath id="clip0_335_833">
<rect x="28" y="28" width="160" height="160" rx="16" fill="white"/>
</clipPath>
<clipPath id="clip1_335_833">
<rect width="69.0419" height="69.0419" fill="white" transform="translate(13 152.869) rotate(-15)"/>
</clipPath>
<clipPath id="clip2_335_833">
<rect width="75.5366" height="75.5366" fill="white" transform="translate(68.4529 99.1775) rotate(-30.77)"/>
</clipPath>
<clipPath id="clip3_335_833">
<rect width="75.5366" height="75.5366" fill="white" transform="translate(52 119.909) rotate(-64.0294)"/>
</clipPath>
</defs>
</svg>
