<svg width="258" height="216" viewBox="0 0 258 216" fill="none" xmlns="http://www.w3.org/2000/svg">
<g filter="url(#filter0_ddddd_335_783)">
<g clip-path="url(#clip0_335_783)">
<rect x="28" y="28" width="160" height="160" rx="16" fill="white"/>
<g opacity="0.6" clip-path="url(#clip1_335_783)">
<g opacity="0.6">
<path fill-rule="evenodd" clip-rule="evenodd" d="M47.7881 149.749C47.9274 150.269 47.9804 150.792 47.9559 151.302L62.7631 151.835C62.8655 150.175 64.0101 148.692 65.705 148.238C67.8271 147.669 70.0084 148.929 70.5771 151.051C71.0993 153 70.0797 154.999 68.266 155.752L73.4267 175.261C75.9879 174.798 78.5184 176.37 79.2042 178.93C79.927 181.627 78.3262 184.4 75.6285 185.123C73.8156 185.609 71.9688 185.045 70.733 183.804L60.0219 191.225C60.2003 191.56 60.3437 191.919 60.446 192.301C61.1688 194.999 59.568 197.772 56.8703 198.494C54.1726 199.217 51.3999 197.616 50.677 194.919C50.5713 194.524 50.5153 194.128 50.5051 193.737L36.4569 193.228C36.4348 195.441 34.9503 197.458 32.7079 198.059C30.0102 198.782 27.2374 197.181 26.5146 194.484C25.7917 191.786 27.3926 189.013 30.0903 188.29L24.6666 168.049C24.6465 168.054 24.6263 168.06 24.606 168.065C22.358 168.668 20.0473 167.334 19.445 165.086C18.8426 162.838 20.1767 160.527 22.4247 159.925C24.3062 159.42 26.2315 160.273 27.1625 161.882L38.8214 154.045C38.4622 153.554 38.186 152.99 38.0192 152.367C37.2963 149.669 38.8972 146.896 41.5948 146.173C44.2925 145.451 47.0652 147.052 47.7881 149.749ZM47.879 151.969L62.7704 152.419C62.7902 152.648 62.8304 152.88 62.8922 153.11C63.0279 153.617 63.2556 154.074 63.5525 154.469L50.7003 163.015C49.8399 162.03 48.4643 161.562 47.1155 161.923C45.6767 162.309 44.6836 163.527 44.5161 164.921L27.7132 164.377C27.757 163.895 27.7181 163.398 27.5857 162.904C27.5484 162.765 27.5044 162.629 27.4543 162.497L39.2684 154.575C40.5041 155.85 42.3757 156.435 44.2124 155.943C46.1609 155.42 47.5372 153.829 47.879 151.969ZM44.5014 165.61L27.5918 165.066C27.2804 166.247 26.4622 167.265 25.319 167.804L30.7723 188.156C33.2405 187.845 35.6216 189.396 36.2835 191.866C36.3431 192.088 36.3868 192.311 36.4155 192.533L50.5351 193.044C50.7528 191.116 52.0761 189.416 54.0146 188.795L48.6912 168.82C46.8867 169.164 45.0956 168.061 44.6125 166.258C44.5545 166.042 44.5179 165.825 44.5014 165.61ZM49.3199 168.639L54.6447 188.637C56.5473 188.284 58.4362 189.055 59.5676 190.522L70.2516 183.244C69.8855 182.749 69.6043 182.178 69.4352 181.547C68.7357 178.936 70.2125 176.255 72.7536 175.43L67.6038 155.963C66.2806 156.26 64.9508 155.857 64.0185 154.988L51.0915 163.561C51.2456 163.826 51.3676 164.116 51.4508 164.426C51.9225 166.187 50.9802 167.993 49.3199 168.639Z" fill="#B7EE81"/>
<path fill-rule="evenodd" clip-rule="evenodd" d="M47.7881 149.749C47.9274 150.269 47.9804 150.792 47.9559 151.302L62.7631 151.835C62.8655 150.175 64.0101 148.692 65.705 148.238C67.8271 147.669 70.0084 148.929 70.5771 151.051C71.0993 153 70.0797 154.999 68.266 155.752L73.4267 175.261C75.9879 174.798 78.5184 176.37 79.2042 178.93C79.927 181.627 78.3262 184.4 75.6285 185.123C73.8156 185.609 71.9688 185.045 70.733 183.804L60.0219 191.225C60.2003 191.56 60.3437 191.919 60.446 192.301C61.1688 194.999 59.568 197.772 56.8703 198.494C54.1726 199.217 51.3999 197.616 50.677 194.919C50.5713 194.524 50.5153 194.128 50.5051 193.737L36.4569 193.228C36.4348 195.441 34.9503 197.458 32.7079 198.059C30.0102 198.782 27.2374 197.181 26.5146 194.484C25.7917 191.786 27.3926 189.013 30.0903 188.29L24.6666 168.049C24.6465 168.054 24.6263 168.06 24.606 168.065C22.358 168.668 20.0473 167.334 19.445 165.086C18.8426 162.838 20.1767 160.527 22.4247 159.925C24.3062 159.42 26.2315 160.273 27.1625 161.882L38.8214 154.045C38.4622 153.554 38.186 152.99 38.0192 152.367C37.2963 149.669 38.8972 146.896 41.5948 146.173C44.2925 145.451 47.0652 147.052 47.7881 149.749ZM47.879 151.969L62.7704 152.419C62.7902 152.648 62.8304 152.88 62.8922 153.11C63.0279 153.617 63.2556 154.074 63.5525 154.469L50.7003 163.015C49.8399 162.03 48.4643 161.562 47.1155 161.923C45.6767 162.309 44.6836 163.527 44.5161 164.921L27.7132 164.377C27.757 163.895 27.7181 163.398 27.5857 162.904C27.5484 162.765 27.5044 162.629 27.4543 162.497L39.2684 154.575C40.5041 155.85 42.3757 156.435 44.2124 155.943C46.1609 155.42 47.5372 153.829 47.879 151.969ZM44.5014 165.61L27.5918 165.066C27.2804 166.247 26.4622 167.265 25.319 167.804L30.7723 188.156C33.2405 187.845 35.6216 189.396 36.2835 191.866C36.3431 192.088 36.3868 192.311 36.4155 192.533L50.5351 193.044C50.7528 191.116 52.0761 189.416 54.0146 188.795L48.6912 168.82C46.8867 169.164 45.0956 168.061 44.6125 166.258C44.5545 166.042 44.5179 165.825 44.5014 165.61ZM49.3199 168.639L54.6447 188.637C56.5473 188.284 58.4362 189.055 59.5676 190.522L70.2516 183.244C69.8855 182.749 69.6043 182.178 69.4352 181.547C68.7357 178.936 70.2125 176.255 72.7536 175.43L67.6038 155.963C66.2806 156.26 64.9508 155.857 64.0185 154.988L51.0915 163.561C51.2456 163.826 51.3676 164.116 51.4508 164.426C51.9225 166.187 50.9802 167.993 49.3199 168.639Z" fill="white" fill-opacity="0.5"/>
</g>
</g>
<path d="M85.9595 77.3406V88.6951H71.2422L85.9595 77.3406Z" fill="#1443BD"/>
<path d="M85.9595 77.3406V88.6951H71.2422L85.9595 77.3406Z" fill="black" fill-opacity="0.2"/>
<path d="M129.908 77.3406V88.6867L144.704 88.6951L129.908 77.3406Z" fill="#1443BD"/>
<path d="M129.908 77.3406V88.6867L144.704 88.6951L129.908 77.3406Z" fill="black" fill-opacity="0.2"/>
<path d="M129.909 77.3406L144.705 88.6951H71.2422L85.9595 77.3406H129.909Z" fill="#B7EE81"/>
<path d="M129.909 77.3406L144.705 88.6951H71.2422L85.9595 77.3406H129.909Z" fill="white" fill-opacity="0.5"/>
<path d="M107.23 103.66C118.734 103.66 128.06 94.3343 128.06 82.8301C128.06 71.326 118.734 62 107.23 62C95.726 62 86.4 71.326 86.4 82.8301C86.4 94.3343 95.726 103.66 107.23 103.66Z" fill="#1443BD"/>
<path d="M107.23 103.66C118.734 103.66 128.06 94.3343 128.06 82.8301C128.06 71.326 118.734 62 107.23 62C95.726 62 86.4 71.326 86.4 82.8301C86.4 94.3343 95.726 103.66 107.23 103.66Z" fill="white" fill-opacity="0.65"/>
<path d="M106.948 99.096C116.087 99.096 123.496 91.6872 123.496 82.548C123.496 73.4088 116.087 66 106.948 66C97.8088 66 90.4 73.4088 90.4 82.548C90.4 91.6872 97.8088 99.096 106.948 99.096Z" fill="#1443BD"/>
<path d="M106.948 99.096C116.087 99.096 123.496 91.6872 123.496 82.548C123.496 73.4088 116.087 66 106.948 66C97.8088 66 90.4 73.4088 90.4 82.548C90.4 91.6872 97.8088 99.096 106.948 99.096Z" fill="white" fill-opacity="0.5"/>
<path d="M107.07 93.308C106.585 93.308 106.197 93.2707 105.908 93.196V90.704C104.975 90.5733 104.111 90.3493 103.318 90.032C102.525 89.7147 101.885 89.3927 101.4 89.066C101.409 88.6647 101.531 88.2353 101.764 87.778C101.997 87.3207 102.259 86.9987 102.548 86.812C103.183 87.2227 103.915 87.5867 104.746 87.904C105.577 88.2213 106.398 88.3847 107.21 88.394C108.003 88.394 108.657 88.226 109.17 87.89C109.683 87.5447 109.945 87.0593 109.954 86.434C109.963 85.9207 109.809 85.468 109.492 85.076C109.175 84.6747 108.666 84.3527 107.966 84.11L105.25 83.144C104.233 82.7893 103.421 82.2807 102.814 81.618C102.217 80.946 101.918 80.1013 101.918 79.084C101.918 77.9173 102.305 76.9187 103.08 76.088C103.864 75.2573 104.9 74.7487 106.188 74.562V72.112C106.347 72.0747 106.529 72.0467 106.734 72.028C106.949 72.0093 107.154 72 107.35 72C107.807 72 108.19 72.0373 108.498 72.112V74.576C109.282 74.66 110.005 74.814 110.668 75.038C111.34 75.262 111.937 75.5093 112.46 75.78C112.46 76.1907 112.362 76.606 112.166 77.026C111.979 77.446 111.737 77.7913 111.438 78.062C110.785 77.7073 110.113 77.4273 109.422 77.222C108.741 77.0167 108.069 76.914 107.406 76.914C106.641 76.914 106.029 77.082 105.572 77.418C105.115 77.754 104.886 78.2067 104.886 78.776C104.886 79.3173 105.063 79.728 105.418 80.008C105.773 80.2787 106.239 80.5167 106.818 80.722L109.394 81.66C110.486 82.052 111.354 82.6213 111.998 83.368C112.642 84.1147 112.964 85.0807 112.964 86.266C112.964 87.4607 112.539 88.4687 111.69 89.29C110.841 90.102 109.683 90.5873 108.218 90.746V93.196C107.938 93.2707 107.555 93.308 107.07 93.308Z" fill="white"/>
<path d="M71.4213 102.559H144.655V139.14C144.655 140.719 143.425 142 141.907 142H74.1694C72.6516 142 71.4213 140.719 71.4213 139.14V102.559Z" fill="#1443BD"/>
<path d="M71.3259 88.6951L64.1797 105.055C63.908 105.646 63.9464 106.34 64.2813 106.894C64.6161 107.448 65.2007 107.784 65.8297 107.785H150.164C150.806 107.785 151.402 107.434 151.733 106.861C152.065 106.288 152.083 105.576 151.782 104.985L144.783 88.6951H71.3259Z" fill="#2A84C6"/>
<path d="M71.3259 88.6951L64.1797 105.055C63.908 105.646 63.9464 106.34 64.2813 106.894C64.6161 107.448 65.2007 107.784 65.8297 107.785H150.164C150.806 107.785 151.402 107.434 151.733 106.861C152.065 106.288 152.083 105.576 151.782 104.985L144.783 88.6951H71.3259Z" fill="white" fill-opacity="0.85"/>
</g>
</g>
<defs>
<filter id="filter0_ddddd_335_783" x="-42" y="-2" width="300" height="300" filterUnits="userSpaceOnUse" color-interpolation-filters="sRGB">
<feFlood flood-opacity="0" result="BackgroundImageFix"/>
<feColorMatrix in="SourceAlpha" type="matrix" values="0 0 0 0 0 0 0 0 0 0 0 0 0 0 0 0 0 0 127 0" result="hardAlpha"/>
<feOffset dy="6"/>
<feGaussianBlur stdDeviation="4"/>
<feColorMatrix type="matrix" values="0 0 0 0 0.705882 0 0 0 0 0.831373 0 0 0 0 0.921569 0 0 0 0.12 0"/>
<feBlend mode="normal" in2="BackgroundImageFix" result="effect1_dropShadow_335_783"/>
<feColorMatrix in="SourceAlpha" type="matrix" values="0 0 0 0 0 0 0 0 0 0 0 0 0 0 0 0 0 0 127 0" result="hardAlpha"/>
<feOffset dy="8"/>
<feGaussianBlur stdDeviation="12"/>
<feColorMatrix type="matrix" values="0 0 0 0 0.705882 0 0 0 0 0.831373 0 0 0 0 0.921569 0 0 0 0.08 0"/>
<feBlend mode="normal" in2="effect1_dropShadow_335_783" result="effect2_dropShadow_335_783"/>
<feColorMatrix in="SourceAlpha" type="matrix" values="0 0 0 0 0 0 0 0 0 0 0 0 0 0 0 0 0 0 127 0" result="hardAlpha"/>
<feOffset dy="16"/>
<feGaussianBlur stdDeviation="18"/>
<feColorMatrix type="matrix" values="0 0 0 0 0.705882 0 0 0 0 0.831373 0 0 0 0 0.921569 0 0 0 0.04 0"/>
<feBlend mode="normal" in2="effect2_dropShadow_335_783" result="effect3_dropShadow_335_783"/>
<feColorMatrix in="SourceAlpha" type="matrix" values="0 0 0 0 0 0 0 0 0 0 0 0 0 0 0 0 0 0 127 0" result="hardAlpha"/>
<feOffset dy="40"/>
<feGaussianBlur stdDeviation="35"/>
<feColorMatrix type="matrix" values="0 0 0 0 0.705882 0 0 0 0 0.831373 0 0 0 0 0.921569 0 0 0 0.04 0"/>
<feBlend mode="normal" in2="effect3_dropShadow_335_783" result="effect4_dropShadow_335_783"/>
<feColorMatrix in="SourceAlpha" type="matrix" values="0 0 0 0 0 0 0 0 0 0 0 0 0 0 0 0 0 0 127 0" result="hardAlpha"/>
<feOffset dy="2"/>
<feGaussianBlur stdDeviation="2"/>
<feColorMatrix type="matrix" values="0 0 0 0 0.87451 0 0 0 0 0.929412 0 0 0 0 0.964706 0 0 0 0.4 0"/>
<feBlend mode="normal" in2="effect4_dropShadow_335_783" result="effect5_dropShadow_335_783"/>
<feBlend mode="normal" in="SourceGraphic" in2="effect5_dropShadow_335_783" result="shape"/>
</filter>
<clipPath id="clip0_335_783">
<rect x="28" y="28" width="160" height="160" rx="16" fill="white"/>
</clipPath>
<clipPath id="clip1_335_783">
<rect width="69.0419" height="69.0419" fill="white" transform="translate(13 152.869) rotate(-15)"/>
</clipPath>
</defs>
</svg>
