<svg width="258" height="216" viewBox="0 0 258 216" fill="none" xmlns="http://www.w3.org/2000/svg">
<g filter="url(#filter0_ddddd_335_805)">
<g clip-path="url(#clip0_335_805)">
<rect x="28" y="28" width="160" height="160" rx="16" fill="white"/>
<g opacity="0.6" clip-path="url(#clip1_335_805)">
<g opacity="0.559454">
<path d="M40.395 180.262L48.2859 175.313L43.3377 167.423L35.4468 172.371L40.395 180.262Z" fill="#B7EE81"/>
<path d="M40.395 180.262L48.2859 175.313L43.3377 167.423L35.4468 172.371L40.395 180.262Z" fill="white" fill-opacity="0.65"/>
</g>
<path d="M53.2763 183.272L61.1672 178.324L56.2191 170.433L48.3282 175.381L53.2763 183.272Z" fill="#B7EE81"/>
<path d="M53.2763 183.272L61.1672 178.324L56.2191 170.433L48.3282 175.381L53.2763 183.272Z" fill="white" fill-opacity="0.65"/>
<path d="M29.5362 198.158L37.4271 193.21L32.4789 185.319L24.588 190.267L29.5362 198.158Z" fill="#B7EE81"/>
<path d="M29.5362 198.158L37.4271 193.21L32.4789 185.319L24.588 190.267L29.5362 198.158Z" fill="white" fill-opacity="0.65"/>
<path d="M59.2541 157.442L67.145 152.493L62.1968 144.603L54.3059 149.551L59.2541 157.442Z" fill="#B7EE81"/>
<path d="M59.2541 157.442L67.145 152.493L62.1968 144.603L54.3059 149.551L59.2541 157.442Z" fill="white" fill-opacity="0.65"/>
<g opacity="0.783366">
<path d="M35.4467 172.371L43.3376 167.423L38.3894 159.532L30.4986 164.48L35.4467 172.371Z" fill="#B7EE81"/>
<path d="M35.4467 172.371L43.3376 167.423L38.3894 159.532L30.4986 164.48L35.4467 172.371Z" fill="white" fill-opacity="0.65"/>
</g>
<g opacity="0.461286">
<path d="M43.3373 167.422L51.2281 162.474L46.28 154.583L38.3891 159.531L43.3373 167.422Z" fill="#B7EE81"/>
<path d="M43.3373 167.422L51.2281 162.474L46.28 154.583L38.3891 159.531L43.3373 167.422Z" fill="white" fill-opacity="0.65"/>
</g>
<g opacity="0.414969">
<path d="M41.3992 146.65L49.2901 141.702L44.3419 133.811L36.451 138.759L41.3992 146.65Z" fill="#B7EE81"/>
<path d="M41.3992 146.65L49.2901 141.702L44.3419 133.811L36.451 138.759L41.3992 146.65Z" fill="white" fill-opacity="0.65"/>
</g>
<g opacity="0.414969">
<path d="M30.4983 164.48L38.3892 159.532L33.4411 151.641L25.5502 156.589L30.4983 164.48Z" fill="#B7EE81"/>
<path d="M30.4983 164.48L38.3892 159.532L33.4411 151.641L25.5502 156.589L30.4983 164.48Z" fill="white" fill-opacity="0.65"/>
</g>
<g opacity="0.340681">
<path d="M32.5038 185.21L40.3947 180.262L35.4465 172.371L27.5556 177.319L32.5038 185.21Z" fill="#B7EE81"/>
<path d="M32.5038 185.21L40.3947 180.262L35.4465 172.371L27.5556 177.319L32.5038 185.21Z" fill="white" fill-opacity="0.65"/>
</g>
<path d="M66.1823 186.172L74.0732 181.224L69.125 173.333L61.2341 178.281L66.1823 186.172Z" fill="#B7EE81"/>
<path d="M66.1823 186.172L74.0732 181.224L69.125 173.333L61.2341 178.281L66.1823 186.172Z" fill="white" fill-opacity="0.65"/>
</g>
<path fill-rule="evenodd" clip-rule="evenodd" d="M72.7067 83.6779C73.03 83.6779 73.3489 83.6962 73.6629 83.7306C73.6629 83.713 73.6622 83.6955 73.6622 83.6779C73.6622 74.109 81.4194 66.3518 90.9883 66.3518C98.0832 66.3518 104.181 70.6169 106.86 76.7223C107.54 76.6054 108.238 76.5436 108.951 76.5436C115.706 76.5436 121.182 82.0193 121.182 88.7738C121.182 95.5283 115.706 101.004 108.951 101.004H72.7067C67.9222 101.004 64.0437 97.1254 64.0437 92.3409C64.0437 87.5565 67.9222 83.6779 72.7067 83.6779Z" fill="#1443BD"/>
<path fill-rule="evenodd" clip-rule="evenodd" d="M142.014 111.716C141.463 111.716 140.918 111.747 140.382 111.806C140.382 111.776 140.383 111.746 140.383 111.716C140.383 95.3831 127.143 82.1426 110.81 82.1426C98.6997 82.1426 88.2915 89.4226 83.718 99.844C82.5582 99.6442 81.3659 99.5388 80.1489 99.5388C68.6196 99.5388 59.2734 108.885 59.2734 120.414C59.2734 131.944 68.6196 141.29 80.1489 141.29H142.014C150.181 141.29 156.801 134.67 156.801 126.503C156.801 118.336 150.181 111.716 142.014 111.716Z" fill="#2A84C6"/>
<path fill-rule="evenodd" clip-rule="evenodd" d="M142.014 111.716C141.463 111.716 140.918 111.747 140.382 111.806C140.382 111.776 140.383 111.746 140.383 111.716C140.383 95.3831 127.143 82.1426 110.81 82.1426C98.6997 82.1426 88.2915 89.4226 83.718 99.844C82.5582 99.6442 81.3659 99.5388 80.1489 99.5388C68.6196 99.5388 59.2734 108.885 59.2734 120.414C59.2734 131.944 68.6196 141.29 80.1489 141.29H142.014C150.181 141.29 156.801 134.67 156.801 126.503C156.801 118.336 150.181 111.716 142.014 111.716Z" fill="white" fill-opacity="0.85"/>
<path fill-rule="evenodd" clip-rule="evenodd" d="M149.344 134.757C149.069 134.757 148.798 134.773 148.531 134.802C148.531 134.787 148.532 134.772 148.532 134.757C148.532 126.612 141.942 120.009 133.813 120.009C127.785 120.009 122.605 123.64 120.329 128.837C119.751 128.737 119.158 128.685 118.552 128.685C112.814 128.685 108.162 133.345 108.162 139.095C108.162 144.844 112.814 149.505 118.552 149.505H149.344C153.408 149.505 156.703 146.204 156.703 142.131C156.703 138.059 153.408 134.757 149.344 134.757Z" fill="#B7EE81"/>
<path fill-rule="evenodd" clip-rule="evenodd" d="M149.344 134.757C149.069 134.757 148.798 134.773 148.531 134.802C148.531 134.787 148.532 134.772 148.532 134.757C148.532 126.612 141.942 120.009 133.813 120.009C127.785 120.009 122.605 123.64 120.329 128.837C119.751 128.737 119.158 128.685 118.552 128.685C112.814 128.685 108.162 133.345 108.162 139.095C108.162 144.844 112.814 149.505 118.552 149.505H149.344C153.408 149.505 156.703 146.204 156.703 142.131C156.703 138.059 153.408 134.757 149.344 134.757Z" fill="white" fill-opacity="0.85"/>
</g>
</g>
<defs>
<filter id="filter0_ddddd_335_805" x="-42" y="-2" width="300" height="300" filterUnits="userSpaceOnUse" color-interpolation-filters="sRGB">
<feFlood flood-opacity="0" result="BackgroundImageFix"/>
<feColorMatrix in="SourceAlpha" type="matrix" values="0 0 0 0 0 0 0 0 0 0 0 0 0 0 0 0 0 0 127 0" result="hardAlpha"/>
<feOffset dy="6"/>
<feGaussianBlur stdDeviation="4"/>
<feColorMatrix type="matrix" values="0 0 0 0 0.705882 0 0 0 0 0.831373 0 0 0 0 0.921569 0 0 0 0.12 0"/>
<feBlend mode="normal" in2="BackgroundImageFix" result="effect1_dropShadow_335_805"/>
<feColorMatrix in="SourceAlpha" type="matrix" values="0 0 0 0 0 0 0 0 0 0 0 0 0 0 0 0 0 0 127 0" result="hardAlpha"/>
<feOffset dy="8"/>
<feGaussianBlur stdDeviation="12"/>
<feColorMatrix type="matrix" values="0 0 0 0 0.705882 0 0 0 0 0.831373 0 0 0 0 0.921569 0 0 0 0.08 0"/>
<feBlend mode="normal" in2="effect1_dropShadow_335_805" result="effect2_dropShadow_335_805"/>
<feColorMatrix in="SourceAlpha" type="matrix" values="0 0 0 0 0 0 0 0 0 0 0 0 0 0 0 0 0 0 127 0" result="hardAlpha"/>
<feOffset dy="16"/>
<feGaussianBlur stdDeviation="18"/>
<feColorMatrix type="matrix" values="0 0 0 0 0.705882 0 0 0 0 0.831373 0 0 0 0 0.921569 0 0 0 0.04 0"/>
<feBlend mode="normal" in2="effect2_dropShadow_335_805" result="effect3_dropShadow_335_805"/>
<feColorMatrix in="SourceAlpha" type="matrix" values="0 0 0 0 0 0 0 0 0 0 0 0 0 0 0 0 0 0 127 0" result="hardAlpha"/>
<feOffset dy="40"/>
<feGaussianBlur stdDeviation="35"/>
<feColorMatrix type="matrix" values="0 0 0 0 0.705882 0 0 0 0 0.831373 0 0 0 0 0.921569 0 0 0 0.04 0"/>
<feBlend mode="normal" in2="effect3_dropShadow_335_805" result="effect4_dropShadow_335_805"/>
<feColorMatrix in="SourceAlpha" type="matrix" values="0 0 0 0 0 0 0 0 0 0 0 0 0 0 0 0 0 0 127 0" result="hardAlpha"/>
<feOffset dy="2"/>
<feGaussianBlur stdDeviation="2"/>
<feColorMatrix type="matrix" values="0 0 0 0 0.87451 0 0 0 0 0.929412 0 0 0 0 0.964706 0 0 0 0.4 0"/>
<feBlend mode="normal" in2="effect4_dropShadow_335_805" result="effect5_dropShadow_335_805"/>
<feBlend mode="normal" in="SourceGraphic" in2="effect5_dropShadow_335_805" result="shape"/>
</filter>
<clipPath id="clip0_335_805">
<rect x="28" y="28" width="160" height="160" rx="16" fill="white"/>
</clipPath>
<clipPath id="clip1_335_805">
<rect width="81.5173" height="81.5173" fill="white" transform="translate(99.6318 180.325) rotate(147.909)"/>
</clipPath>
</defs>
</svg>
