<svg width="258" height="216" viewBox="0 0 258 216" fill="none" xmlns="http://www.w3.org/2000/svg">
<g filter="url(#filter0_ddddd_335_863)">
<g clip-path="url(#clip0_335_863)">
<rect x="28" y="28" width="160" height="160" rx="16" fill="white"/>
<g opacity="0.6" clip-path="url(#clip1_335_863)">
<g opacity="0.559454">
<path d="M40.395 180.262L48.2859 175.313L43.3377 167.423L35.4468 172.371L40.395 180.262Z" fill="#B7EE81"/>
<path d="M40.395 180.262L48.2859 175.313L43.3377 167.423L35.4468 172.371L40.395 180.262Z" fill="white" fill-opacity="0.65"/>
</g>
<path d="M53.2763 183.272L61.1672 178.324L56.2191 170.433L48.3282 175.381L53.2763 183.272Z" fill="#B7EE81"/>
<path d="M53.2763 183.272L61.1672 178.324L56.2191 170.433L48.3282 175.381L53.2763 183.272Z" fill="white" fill-opacity="0.65"/>
<path d="M29.5362 198.158L37.4271 193.21L32.4789 185.319L24.5881 190.267L29.5362 198.158Z" fill="#B7EE81"/>
<path d="M29.5362 198.158L37.4271 193.21L32.4789 185.319L24.5881 190.267L29.5362 198.158Z" fill="white" fill-opacity="0.65"/>
<path d="M59.2541 157.442L67.145 152.493L62.1968 144.603L54.306 149.551L59.2541 157.442Z" fill="#B7EE81"/>
<path d="M59.2541 157.442L67.145 152.493L62.1968 144.603L54.306 149.551L59.2541 157.442Z" fill="white" fill-opacity="0.65"/>
<g opacity="0.783366">
<path d="M35.4468 172.371L43.3376 167.423L38.3895 159.532L30.4986 164.48L35.4468 172.371Z" fill="#B7EE81"/>
<path d="M35.4468 172.371L43.3376 167.423L38.3895 159.532L30.4986 164.48L35.4468 172.371Z" fill="white" fill-opacity="0.65"/>
</g>
<g opacity="0.461286">
<path d="M43.3373 167.422L51.2281 162.474L46.28 154.583L38.3891 159.531L43.3373 167.422Z" fill="#B7EE81"/>
<path d="M43.3373 167.422L51.2281 162.474L46.28 154.583L38.3891 159.531L43.3373 167.422Z" fill="white" fill-opacity="0.65"/>
</g>
<g opacity="0.414969">
<path d="M41.3993 146.65L49.2902 141.702L44.342 133.811L36.4511 138.759L41.3993 146.65Z" fill="#B7EE81"/>
<path d="M41.3993 146.65L49.2902 141.702L44.342 133.811L36.4511 138.759L41.3993 146.65Z" fill="white" fill-opacity="0.65"/>
</g>
<g opacity="0.414969">
<path d="M30.4984 164.48L38.3893 159.532L33.4411 151.641L25.5502 156.589L30.4984 164.48Z" fill="#B7EE81"/>
<path d="M30.4984 164.48L38.3893 159.532L33.4411 151.641L25.5502 156.589L30.4984 164.48Z" fill="white" fill-opacity="0.65"/>
</g>
<g opacity="0.340681">
<path d="M32.5038 185.21L40.3947 180.262L35.4465 172.371L27.5556 177.319L32.5038 185.21Z" fill="#B7EE81"/>
<path d="M32.5038 185.21L40.3947 180.262L35.4465 172.371L27.5556 177.319L32.5038 185.21Z" fill="white" fill-opacity="0.65"/>
</g>
<path d="M66.1824 186.172L74.0732 181.224L69.1251 173.333L61.2342 178.281L66.1824 186.172Z" fill="#B7EE81"/>
<path d="M66.1824 186.172L74.0732 181.224L69.1251 173.333L61.2342 178.281L66.1824 186.172Z" fill="white" fill-opacity="0.65"/>
</g>
<g clip-path="url(#clip2_335_863)">
<g clip-path="url(#clip3_335_863)" filter="url(#filter1_ddddd_335_863)">
<path d="M64.262 93.828C63.6384 94.0887 63.3438 94.8056 63.6047 95.4296C65.0798 98.8072 66.0133 102.267 66.4631 105.93C66.5259 106.441 67.1642 107.322 68.151 106.91C68.6442 106.704 68.9612 106.189 68.8929 105.631C68.587 103.11 67.8863 99.1188 65.8631 94.4855C65.6029 93.8617 64.886 93.5671 64.262 93.828ZM62.6136 89.9988C59.7294 91.2007 58.645 94.2601 59.7478 96.7855C60.7262 99.0268 61.4582 101.373 61.9231 103.757C62.0518 104.421 62.6953 104.854 63.3582 104.725C64.0248 104.594 64.4548 103.953 64.3261 103.29C63.8272 100.729 63.0415 98.2109 61.9918 95.8059C61.462 94.5928 61.8966 92.9439 63.5245 92.2716C65.0072 91.6777 66.7125 92.3397 67.3273 93.7484C68.3089 95.9944 69.0903 98.3369 69.6522 100.712C69.807 101.37 70.4671 101.777 71.1247 101.622C72.13 101.385 72.0893 100.384 72.0336 100.149C71.439 97.6314 70.61 95.1485 69.5714 92.7687C68.4322 90.1602 65.3111 88.9175 62.6136 89.9988ZM57.0155 91.2456C56.3667 91.0558 55.6878 91.4248 55.4952 92.0736C54.9093 94.06 55.0439 96.2029 55.8751 98.1066C56.6422 99.8634 57.2397 101.697 57.6508 103.559C57.7975 104.219 58.45 104.636 59.1106 104.49C60.1258 104.259 60.0931 103.261 60.0422 103.031C59.5968 101.014 58.9494 99.0282 58.1192 97.1269C57.5092 95.73 57.4134 94.2222 57.8439 92.7657C58.0346 92.1177 57.6639 91.4373 57.0155 91.2456ZM60.9408 86.1588C60.2075 86.4427 59.5164 86.8339 58.8842 87.2933C58.3378 87.6909 58.2164 88.4559 58.6135 89.0036C59.0111 89.55 59.7762 89.6691 60.3238 89.2743C60.7925 88.9341 61.307 88.6549 61.8512 88.4318C65.4231 87.001 69.5426 88.6163 71.0344 92.0327C71.8075 93.8037 72.4716 95.6396 73.0074 97.4898C73.1959 98.1391 73.8749 98.5137 74.5237 98.3253C75.3489 98.0882 75.4905 97.2644 75.3592 96.809C74.7904 94.8475 74.0954 92.9249 73.2785 91.0531C71.2623 86.4367 65.7275 84.2406 60.9408 86.1588ZM75.1923 86.915C74.8035 86.3632 74.0453 86.2225 73.4865 86.6181C72.9338 87.0072 72.8007 87.7705 73.1901 88.3237C73.8329 89.2385 74.1571 89.9876 74.6231 91.13C74.879 91.7567 75.5935 92.0561 76.2192 91.8006L76.2287 91.7967C76.8484 91.5376 77.1442 90.8274 76.8898 90.2045C76.462 89.1572 76.0409 88.1209 75.1923 86.915ZM71.5195 83.4351C67.8626 81.1278 63.2828 80.7111 59.2677 82.3194C55.9669 83.6529 53.4354 86.1337 52.1211 89.3385C50.8524 92.4357 50.8896 95.8295 52.2294 98.8965L52.6461 99.9093C52.8884 100.54 53.5964 100.856 54.2274 100.613C54.2386 100.61 54.2504 100.605 54.2617 100.6C54.8697 100.346 55.1691 99.6511 54.9313 99.0319L54.4737 97.9162C53.4018 95.462 53.3714 92.7459 54.3876 90.2678C55.4482 87.6794 57.512 85.6628 60.1793 84.5925C63.4678 83.2746 67.2191 83.6153 70.2144 85.5049C70.7861 85.8662 71.5406 85.694 71.9024 85.1232C72.2626 84.5513 72.0914 83.7953 71.5195 83.4351Z" fill="#1443BD"/>
</g>
<path d="M139.418 107.286L140.87 109.301L139.172 110.364L137.967 108.041L136.762 110.364L135.064 109.301L136.543 107.286L134.051 107.454V105.439L136.543 105.607L135.064 103.593L136.762 102.529L137.967 104.852L139.172 102.529L140.87 103.593L139.418 105.607L141.883 105.439V107.454L139.418 107.286Z" fill="#1443BD"/>
<path d="M139.418 107.286L140.87 109.301L139.172 110.364L137.967 108.041L136.762 110.364L135.064 109.301L136.543 107.286L134.051 107.454V105.439L136.543 105.607L135.064 103.593L136.762 102.529L137.967 104.852L139.172 102.529L140.87 103.593L139.418 105.607L141.883 105.439V107.454L139.418 107.286Z" fill="white" fill-opacity="0.2"/>
<path d="M149.865 107.286L151.317 109.301L149.619 110.364L148.414 108.041L147.209 110.364L145.511 109.301L146.99 107.286L144.498 107.454V105.439L146.99 105.607L145.511 103.593L147.209 102.529L148.414 104.852L149.619 102.529L151.317 103.593L149.865 105.607L152.33 105.439V107.454L149.865 107.286Z" fill="#1443BD"/>
<path d="M149.865 107.286L151.317 109.301L149.619 110.364L148.414 108.041L147.209 110.364L145.511 109.301L146.99 107.286L144.498 107.454V105.439L146.99 105.607L145.511 103.593L147.209 102.529L148.414 104.852L149.619 102.529L151.317 103.593L149.865 105.607L152.33 105.439V107.454L149.865 107.286Z" fill="white" fill-opacity="0.2"/>
<path d="M160.313 107.286L161.764 109.301L160.066 110.364L158.861 108.041L157.656 110.364L155.958 109.301L157.437 107.286L154.945 107.454V105.439L157.437 105.607L155.958 103.593L157.656 102.529L158.861 104.852L160.066 102.529L161.764 103.593L160.313 105.607L162.777 105.439V107.454L160.313 107.286Z" fill="#1443BD"/>
<path d="M160.313 107.286L161.764 109.301L160.066 110.364L158.861 108.041L157.656 110.364L155.958 109.301L157.437 107.286L154.945 107.454V105.439L157.437 105.607L155.958 103.593L157.656 102.529L158.861 104.852L160.066 102.529L161.764 103.593L160.313 105.607L162.777 105.439V107.454L160.313 107.286Z" fill="white" fill-opacity="0.2"/>
<path d="M115.488 128.532V115.814H94.2567V128.532C71.8283 136.618 69.3164 142.384 69.3164 142.384H140.433C140.433 142.384 137.921 136.618 115.488 128.532Z" fill="#2A84C6"/>
<path d="M115.488 128.532V115.814H94.2567V128.532C71.8283 136.618 69.3164 142.384 69.3164 142.384H140.433C140.433 142.384 137.921 136.618 115.488 128.532Z" fill="white" fill-opacity="0.2"/>
<path d="M128.813 98.6927C128.813 95.7365 127.287 93.1943 125.098 92.064C125.204 88.3298 125.121 85.7132 125.121 85.7132C125.121 78.7774 121.207 72.7127 115.367 69.41V64.3838C98.853 64.3838 93.5431 70.352 93.5431 70.352C88.5494 73.7954 85.3025 79.3915 85.3025 85.7097C85.3025 85.7097 85.2257 88.2007 85.3199 91.7907C82.8103 92.7408 80.9996 95.4714 80.9996 98.6927C80.9996 102.447 83.4592 105.535 86.6143 105.916C87.3214 109.8 88.3936 113.324 90.0124 115.473C94.8514 121.898 100.72 124.603 105.212 124.603C109.704 124.603 115.574 121.898 120.412 115.473C122.051 113.302 123.122 109.73 123.829 105.799C126.675 105.113 128.813 102.194 128.813 98.6927Z" fill="#2A84C6"/>
<path d="M128.813 98.6927C128.813 95.7365 127.287 93.1943 125.098 92.064C125.204 88.3298 125.121 85.7132 125.121 85.7132C125.121 78.7774 121.207 72.7127 115.367 69.41V64.3838C98.853 64.3838 93.5431 70.352 93.5431 70.352C88.5494 73.7954 85.3025 79.3915 85.3025 85.7097C85.3025 85.7097 85.2257 88.2007 85.3199 91.7907C82.8103 92.7408 80.9996 95.4714 80.9996 98.6927C80.9996 102.447 83.4592 105.535 86.6143 105.916C87.3214 109.8 88.3936 113.324 90.0124 115.473C94.8514 121.898 100.72 124.603 105.212 124.603C109.704 124.603 115.574 121.898 120.412 115.473C122.051 113.302 123.122 109.73 123.829 105.799C126.675 105.113 128.813 102.194 128.813 98.6927Z" fill="white" fill-opacity="0.65"/>
<path d="M84.8378 85.0486H94.7611" stroke="white" stroke-linecap="round" stroke-linejoin="round"/>
<path d="M97.083 87.5178C98.3656 87.5178 99.4054 86.478 99.4054 85.1954C99.4054 83.9128 98.3656 82.873 97.083 82.873C95.8004 82.873 94.7606 83.9128 94.7606 85.1954C94.7606 86.478 95.8004 87.5178 97.083 87.5178Z" stroke="white" stroke-linecap="round" stroke-linejoin="round"/>
<path d="M123.177 109.54H113.253" stroke="white" stroke-linecap="round" stroke-linejoin="round"/>
<path d="M110.932 111.714C112.214 111.714 113.254 110.674 113.254 109.392C113.254 108.109 112.214 107.069 110.932 107.069C109.649 107.069 108.609 108.109 108.609 109.392C108.609 110.674 109.649 111.714 110.932 111.714Z" stroke="white" stroke-linecap="round" stroke-linejoin="round"/>
<path d="M64.3697 60.5615H60.6483V75.4471H64.3697V60.5615Z" fill="#1443BD"/>
<path d="M64.3697 60.5615H60.6483V75.4471H64.3697V60.5615Z" fill="black" fill-opacity="0.2"/>
<path d="M75.417 64.2829V60.5615H60.6477V64.2829H75.417Z" fill="#1443BD"/>
<path d="M75.417 64.2829V60.5615H60.6477V64.2829H75.417Z" fill="black" fill-opacity="0.2"/>
<path d="M146.241 75.4478H149.962V60.5622H146.241V75.4478Z" fill="#1443BD"/>
<path d="M146.241 75.4478H149.962V60.5622H146.241V75.4478Z" fill="black" fill-opacity="0.2"/>
<path d="M149.962 64.2829V60.5615H135.193V64.2829H149.962Z" fill="#1443BD"/>
<path d="M149.962 64.2829V60.5615H135.193V64.2829H149.962Z" fill="black" fill-opacity="0.2"/>
<path d="M64.3697 134.924H60.6483V149.81H64.3697V134.924Z" fill="#1443BD"/>
<path d="M64.3697 134.924H60.6483V149.81H64.3697V134.924Z" fill="black" fill-opacity="0.2"/>
<path d="M60.6484 146.089V149.81H75.4177V146.089H60.6484Z" fill="#1443BD"/>
<path d="M60.6484 146.089V149.81H75.4177V146.089H60.6484Z" fill="black" fill-opacity="0.2"/>
<path d="M146.241 149.81H149.962V134.925H146.241V149.81Z" fill="#1443BD"/>
<path d="M146.241 149.81H149.962V134.925H146.241V149.81Z" fill="black" fill-opacity="0.2"/>
<path d="M135.192 146.089V149.81H149.961V146.089H135.192Z" fill="#1443BD"/>
<path d="M135.192 146.089V149.81H149.961V146.089H135.192Z" fill="black" fill-opacity="0.2"/>
<path d="M154.741 164.73C155.08 164.73 155.403 164.586 155.629 164.333C155.855 164.081 155.962 163.744 155.925 163.407C155.268 157.454 150.22 152.822 144.09 152.822C137.96 152.822 132.912 157.454 132.255 163.409C132.217 163.745 132.325 164.082 132.551 164.334C132.777 164.587 133.1 164.731 133.439 164.731L154.741 164.73Z" fill="#2A84C6"/>
<path d="M154.741 164.73C155.08 164.73 155.403 164.586 155.629 164.333C155.855 164.081 155.962 163.744 155.925 163.407C155.268 157.454 150.22 152.822 144.09 152.822C137.96 152.822 132.912 157.454 132.255 163.409C132.217 163.745 132.325 164.082 132.551 164.334C132.777 164.587 133.1 164.731 133.439 164.731L154.741 164.73Z" fill="white" fill-opacity="0.85"/>
<path d="M144.076 152.823C140.24 152.82 136.639 154.668 134.403 157.786C140.279 161.572 147.822 161.586 153.712 157.822L153.755 157.794C151.521 154.672 147.916 152.82 144.076 152.823Z" fill="#2A84C6"/>
<path d="M144.076 152.823C140.24 152.82 136.639 154.668 134.403 157.786C140.279 161.572 147.822 161.586 153.712 157.822L153.755 157.794C151.521 154.672 147.916 152.82 144.076 152.823Z" fill="white" fill-opacity="0.5"/>
<path d="M144.098 159.226C153.963 159.226 161.96 151.229 161.96 141.364C161.96 131.5 153.963 123.503 144.098 123.503C134.234 123.503 126.237 131.5 126.237 141.364C126.237 151.229 134.234 159.226 144.098 159.226Z" fill="#2A84C6"/>
<path d="M144.098 159.226C153.963 159.226 161.96 151.229 161.96 141.364C161.96 131.5 153.963 123.503 144.098 123.503C134.234 123.503 126.237 131.5 126.237 141.364C126.237 151.229 134.234 159.226 144.098 159.226Z" fill="white" fill-opacity="0.85"/>
<path d="M144.099 152.227C149.36 152.227 153.625 147.962 153.625 142.701C153.625 137.439 149.36 133.175 144.099 133.175C138.837 133.175 134.573 137.439 134.573 142.701C134.573 147.962 138.837 152.227 144.099 152.227Z" fill="#1443BD"/>
<path d="M144.098 147.464C146.729 147.464 148.861 145.332 148.861 142.701C148.861 140.07 146.729 137.938 144.098 137.938C141.467 137.938 139.335 140.07 139.335 142.701C139.335 145.332 141.467 147.464 144.098 147.464Z" fill="#2A84C6"/>
<path d="M144.098 147.464C146.729 147.464 148.861 145.332 148.861 142.701C148.861 140.07 146.729 137.938 144.098 137.938C141.467 137.938 139.335 140.07 139.335 142.701C139.335 145.332 141.467 147.464 144.098 147.464Z" fill="white" fill-opacity="0.85"/>
<path d="M144.098 144.487C145.084 144.487 145.884 143.688 145.884 142.701C145.884 141.715 145.084 140.915 144.098 140.915C143.111 140.915 142.312 141.715 142.312 142.701C142.312 143.688 143.111 144.487 144.098 144.487Z" fill="#1443BD"/>
<path d="M126.177 141.364H129.244L130.317 143.188H134.446" stroke="#1443BD" stroke-linecap="round" stroke-linejoin="round"/>
<path d="M126.177 141.364H129.244L130.317 143.188H134.446" stroke="white" stroke-opacity="0.5" stroke-linecap="round" stroke-linejoin="round"/>
<path d="M161.997 141.364H158.929L157.857 143.188H153.609" stroke="#1443BD" stroke-linecap="round" stroke-linejoin="round"/>
<path d="M161.997 141.364H158.929L157.857 143.188H153.609" stroke="white" stroke-opacity="0.5" stroke-linecap="round" stroke-linejoin="round"/>
</g>
</g>
</g>
<defs>
<filter id="filter0_ddddd_335_863" x="-42" y="-2" width="300" height="300" filterUnits="userSpaceOnUse" color-interpolation-filters="sRGB">
<feFlood flood-opacity="0" result="BackgroundImageFix"/>
<feColorMatrix in="SourceAlpha" type="matrix" values="0 0 0 0 0 0 0 0 0 0 0 0 0 0 0 0 0 0 127 0" result="hardAlpha"/>
<feOffset dy="6"/>
<feGaussianBlur stdDeviation="4"/>
<feColorMatrix type="matrix" values="0 0 0 0 0.705882 0 0 0 0 0.831373 0 0 0 0 0.921569 0 0 0 0.12 0"/>
<feBlend mode="normal" in2="BackgroundImageFix" result="effect1_dropShadow_335_863"/>
<feColorMatrix in="SourceAlpha" type="matrix" values="0 0 0 0 0 0 0 0 0 0 0 0 0 0 0 0 0 0 127 0" result="hardAlpha"/>
<feOffset dy="8"/>
<feGaussianBlur stdDeviation="12"/>
<feColorMatrix type="matrix" values="0 0 0 0 0.705882 0 0 0 0 0.831373 0 0 0 0 0.921569 0 0 0 0.08 0"/>
<feBlend mode="normal" in2="effect1_dropShadow_335_863" result="effect2_dropShadow_335_863"/>
<feColorMatrix in="SourceAlpha" type="matrix" values="0 0 0 0 0 0 0 0 0 0 0 0 0 0 0 0 0 0 127 0" result="hardAlpha"/>
<feOffset dy="16"/>
<feGaussianBlur stdDeviation="18"/>
<feColorMatrix type="matrix" values="0 0 0 0 0.705882 0 0 0 0 0.831373 0 0 0 0 0.921569 0 0 0 0.04 0"/>
<feBlend mode="normal" in2="effect2_dropShadow_335_863" result="effect3_dropShadow_335_863"/>
<feColorMatrix in="SourceAlpha" type="matrix" values="0 0 0 0 0 0 0 0 0 0 0 0 0 0 0 0 0 0 127 0" result="hardAlpha"/>
<feOffset dy="40"/>
<feGaussianBlur stdDeviation="35"/>
<feColorMatrix type="matrix" values="0 0 0 0 0.705882 0 0 0 0 0.831373 0 0 0 0 0.921569 0 0 0 0.04 0"/>
<feBlend mode="normal" in2="effect3_dropShadow_335_863" result="effect4_dropShadow_335_863"/>
<feColorMatrix in="SourceAlpha" type="matrix" values="0 0 0 0 0 0 0 0 0 0 0 0 0 0 0 0 0 0 127 0" result="hardAlpha"/>
<feOffset dy="2"/>
<feGaussianBlur stdDeviation="2"/>
<feColorMatrix type="matrix" values="0 0 0 0 0.87451 0 0 0 0 0.929412 0 0 0 0 0.964706 0 0 0 0.4 0"/>
<feBlend mode="normal" in2="effect4_dropShadow_335_863" result="effect5_dropShadow_335_863"/>
<feBlend mode="normal" in="SourceGraphic" in2="effect5_dropShadow_335_863" result="shape"/>
</filter>
<filter id="filter1_ddddd_335_863" x="-26.0461" y="43.8025" width="181" height="181" filterUnits="userSpaceOnUse" color-interpolation-filters="sRGB">
<feFlood flood-opacity="0" result="BackgroundImageFix"/>
<feColorMatrix in="SourceAlpha" type="matrix" values="0 0 0 0 0 0 0 0 0 0 0 0 0 0 0 0 0 0 127 0" result="hardAlpha"/>
<feOffset dy="6"/>
<feGaussianBlur stdDeviation="4"/>
<feColorMatrix type="matrix" values="0 0 0 0 0.705882 0 0 0 0 0.831373 0 0 0 0 0.921569 0 0 0 0.12 0"/>
<feBlend mode="normal" in2="BackgroundImageFix" result="effect1_dropShadow_335_863"/>
<feColorMatrix in="SourceAlpha" type="matrix" values="0 0 0 0 0 0 0 0 0 0 0 0 0 0 0 0 0 0 127 0" result="hardAlpha"/>
<feOffset dy="8"/>
<feGaussianBlur stdDeviation="12"/>
<feColorMatrix type="matrix" values="0 0 0 0 0.705882 0 0 0 0 0.831373 0 0 0 0 0.921569 0 0 0 0.08 0"/>
<feBlend mode="normal" in2="effect1_dropShadow_335_863" result="effect2_dropShadow_335_863"/>
<feColorMatrix in="SourceAlpha" type="matrix" values="0 0 0 0 0 0 0 0 0 0 0 0 0 0 0 0 0 0 127 0" result="hardAlpha"/>
<feOffset dy="16"/>
<feGaussianBlur stdDeviation="18"/>
<feColorMatrix type="matrix" values="0 0 0 0 0.705882 0 0 0 0 0.831373 0 0 0 0 0.921569 0 0 0 0.04 0"/>
<feBlend mode="normal" in2="effect2_dropShadow_335_863" result="effect3_dropShadow_335_863"/>
<feColorMatrix in="SourceAlpha" type="matrix" values="0 0 0 0 0 0 0 0 0 0 0 0 0 0 0 0 0 0 127 0" result="hardAlpha"/>
<feOffset dy="40"/>
<feGaussianBlur stdDeviation="35"/>
<feColorMatrix type="matrix" values="0 0 0 0 0.705882 0 0 0 0 0.831373 0 0 0 0 0.921569 0 0 0 0.04 0"/>
<feBlend mode="normal" in2="effect3_dropShadow_335_863" result="effect4_dropShadow_335_863"/>
<feColorMatrix in="SourceAlpha" type="matrix" values="0 0 0 0 0 0 0 0 0 0 0 0 0 0 0 0 0 0 127 0" result="hardAlpha"/>
<feOffset dy="2"/>
<feGaussianBlur stdDeviation="2"/>
<feColorMatrix type="matrix" values="0 0 0 0 0.87451 0 0 0 0 0.929412 0 0 0 0 0.964706 0 0 0 0.4 0"/>
<feBlend mode="normal" in2="effect4_dropShadow_335_863" result="effect5_dropShadow_335_863"/>
<feBlend mode="normal" in="SourceGraphic" in2="effect5_dropShadow_335_863" result="shape"/>
</filter>
<clipPath id="clip0_335_863">
<rect x="28" y="28" width="160" height="160" rx="16" fill="white"/>
</clipPath>
<clipPath id="clip1_335_863">
<rect width="81.5173" height="81.5173" fill="white" transform="translate(99.6318 180.325) rotate(147.909)"/>
</clipPath>
<clipPath id="clip2_335_863">
<rect width="120" height="120" fill="white" transform="translate(48 48)"/>
</clipPath>
<clipPath id="clip3_335_863">
<rect width="31.338" height="31.338" fill="white" transform="translate(43.9539 85.8899) rotate(-22.688)"/>
</clipPath>
</defs>
</svg>
