<svg width="1533" height="605" viewBox="0 0 1533 605" fill="none" xmlns="http://www.w3.org/2000/svg">
<path d="M376.5 406.075C515 471.233 613.5 492.003 860 492.003L337.5 584.319L5 453.272C83 357.242 201 323.51 376.5 406.075Z" fill="#B7EE81"/>
<path d="M376.5 406.075C515 471.233 613.5 492.003 860 492.003L337.5 584.319L5 453.272C83 357.242 201 323.51 376.5 406.075Z" fill="white" fill-opacity="0.85"/>
<path d="M1465 196.506C1473 130.717 1505 5.50553 1532.5 0.73053L1480 604.503H0V342.939C83.6667 402.184 313.823 511.656 540.5 511.656C738.5 511.656 811.5 482.137 875.5 454.356C978.5 409.644 1013.5 388.784 1166 454.356C1352.5 534.546 1439.57 405.6 1465 196.506Z" fill="#B7EE81"/>
<path d="M1465 196.506C1473 130.717 1505 5.50553 1532.5 0.73053L1480 604.503H0V342.939C83.6667 402.184 313.823 511.656 540.5 511.656C738.5 511.656 811.5 482.137 875.5 454.356C978.5 409.644 1013.5 388.784 1166 454.356C1352.5 534.546 1439.57 405.6 1465 196.506Z" fill="white" fill-opacity="0.65"/>
</svg>
