<svg width="1600" height="784" viewBox="0 0 1600 784" fill="none" xmlns="http://www.w3.org/2000/svg">
<g opacity="0.4">
<path d="M396.111 622C550 703.874 659.444 729.972 933.333 729.972L352.778 845.972L-16.6667 681.306C70 560.639 201.111 518.254 396.111 622Z" fill="#B7EE81"/>
<path d="M396.111 622C550 703.874 659.444 729.972 933.333 729.972L352.778 845.972L-16.6667 681.306C70 560.639 201.111 518.254 396.111 622Z" fill="white" fill-opacity="0.85"/>
</g>
<path d="M1605.56 358.667C1614.44 276 1650 118.667 1680.56 112.667L1622.22 871.333H-22.2222V542.667C70.7407 617.111 326.47 754.667 578.333 754.667C798.333 754.667 879.444 717.576 950.556 682.667C1065 626.485 1103.89 600.273 1273.33 682.667C1480.56 783.43 1577.3 621.404 1605.56 358.667Z" fill="#B7EE81"/>
<path d="M1605.56 358.667C1614.44 276 1650 118.667 1680.56 112.667L1622.22 871.333H-22.2222V542.667C70.7407 617.111 326.47 754.667 578.333 754.667C798.333 754.667 879.444 717.576 950.556 682.667C1065 626.485 1103.89 600.273 1273.33 682.667C1480.56 783.43 1577.3 621.404 1605.56 358.667Z" fill="white" fill-opacity="0.65"/>
</svg>
