<svg width="26" height="26" viewBox="0 0 26 26" fill="none" xmlns="http://www.w3.org/2000/svg">
<path d="M15.7083 3.25C16.1393 3.25 16.5526 3.4212 16.8574 3.72595C17.1621 4.0307 17.3333 4.44402 17.3333 4.875V10.2917C17.3333 10.7226 17.1621 11.136 16.8574 11.4407C16.5526 11.7455 16.1393 11.9167 15.7083 11.9167C15.2774 11.9167 14.864 11.7455 14.5593 11.4407C14.2545 11.136 14.0833 10.7226 14.0833 10.2917V4.875C14.0833 4.44402 14.2545 4.0307 14.5593 3.72595C14.864 3.4212 15.2774 3.25 15.7083 3.25ZM4.875 14.0833H6.5V15.7083C6.5 16.0297 6.4047 16.3439 6.22614 16.6111C6.04758 16.8784 5.79379 17.0866 5.49686 17.2096C5.19993 17.3326 4.8732 17.3648 4.55798 17.3021C4.24276 17.2394 3.95321 17.0846 3.72595 16.8574C3.49869 16.6301 3.34393 16.3406 3.28122 16.0254C3.21852 15.7101 3.2507 15.3834 3.3737 15.0865C3.49669 14.7895 3.70497 14.5358 3.9722 14.3572C4.23943 14.1786 4.55361 14.0833 4.875 14.0833ZM14.0833 19.5H15.7083C16.0297 19.5 16.3439 19.5953 16.6111 19.7739C16.8784 19.9524 17.0866 20.2062 17.2096 20.5031C17.3326 20.8001 17.3648 21.1268 17.3021 21.442C17.2394 21.7572 17.0846 22.0468 16.8574 22.274C16.6301 22.5013 16.3406 22.6561 16.0254 22.7188C15.7101 22.7815 15.3834 22.7493 15.0865 22.6263C14.7895 22.5033 14.5358 22.295 14.3572 22.0278C14.1786 21.7606 14.0833 21.4464 14.0833 21.125V19.5ZM15.7083 14.0833H21.125C21.556 14.0833 21.9693 14.2545 22.274 14.5593C22.5788 14.864 22.75 15.2774 22.75 15.7083C22.75 16.1393 22.5788 16.5526 22.274 16.8574C21.9693 17.1621 21.556 17.3333 21.125 17.3333H15.7083C15.2774 17.3333 14.864 17.1621 14.5593 16.8574C14.2545 16.5526 14.0833 16.1393 14.0833 15.7083C14.0833 15.2774 14.2545 14.864 14.5593 14.5593C14.864 14.2545 15.2774 14.0833 15.7083 14.0833ZM21.125 8.66667C21.556 8.66667 21.9693 8.83787 22.274 9.14262C22.5788 9.44736 22.75 9.86069 22.75 10.2917C22.75 10.7226 22.5788 11.136 22.274 11.4407C21.9693 11.7455 21.556 11.9167 21.125 11.9167H19.5V10.2917C19.5 9.86069 19.6712 9.44736 19.976 9.14262C20.2807 8.83787 20.694 8.66667 21.125 8.66667ZM4.875 8.66667H10.2917C10.7226 8.66667 11.136 8.83787 11.4407 9.14262C11.7455 9.44736 11.9167 9.86069 11.9167 10.2917C11.9167 10.7226 11.7455 11.136 11.4407 11.4407C11.136 11.7455 10.7226 11.9167 10.2917 11.9167H4.875C4.44402 11.9167 4.0307 11.7455 3.72595 11.4407C3.42121 11.136 3.25 10.7226 3.25 10.2917C3.25 9.86069 3.42121 9.44736 3.72595 9.14262C4.0307 8.83787 4.44402 8.66667 4.875 8.66667ZM10.2917 3.25C10.7226 3.25 11.136 3.4212 11.4407 3.72595C11.7455 4.0307 11.9167 4.44402 11.9167 4.875V6.5H10.2917C9.86069 6.5 9.44737 6.3288 9.14262 6.02405C8.83787 5.7193 8.66667 5.30598 8.66667 4.875C8.66667 4.44402 8.83787 4.0307 9.14262 3.72595C9.44737 3.4212 9.86069 3.25 10.2917 3.25ZM10.2917 14.0833C10.7226 14.0833 11.136 14.2545 11.4407 14.5593C11.7455 14.864 11.9167 15.2774 11.9167 15.7083V21.125C11.9167 21.556 11.7455 21.9693 11.4407 22.274C11.136 22.5788 10.7226 22.75 10.2917 22.75C9.86069 22.75 9.44737 22.5788 9.14262 22.274C8.83787 21.9693 8.66667 21.556 8.66667 21.125V15.7083C8.66667 15.2774 8.83787 14.864 9.14262 14.5593C9.44737 14.2545 9.86069 14.0833 10.2917 14.0833Z" fill="white"/>
</svg>
