<svg width="179" height="170" viewBox="0 0 179 170" fill="none" xmlns="http://www.w3.org/2000/svg">
<g filter="url(#filter0_d_5_52)">
<path d="M156.354 57.2464H4.11407V122.8H156.354V57.2464Z" fill="#1443BD"/>
<path d="M156.354 57.2464H4.11407V122.8H156.354V57.2464Z" fill="black" fill-opacity="0.35"/>
<path d="M74.4541 1.50095L4.18231 57.2402L152.367 61.0742C152.686 61.0736 153.003 61.038 153.314 60.9681C155.173 60.5018 156.47 59.1556 156.449 57.2402L83.9369 1.31837C81.0545 -0.556737 77.3365 -0.374163 74.4541 1.50095Z" fill="#1443BD"/>
<path d="M74.4541 1.50095L4.18231 57.2402L152.367 61.0742C152.686 61.0736 153.003 61.038 153.314 60.9681C155.173 60.5018 156.47 59.1556 156.449 57.2402L83.9369 1.31837C81.0545 -0.556737 77.3365 -0.374163 74.4541 1.50095Z" fill="black" fill-opacity="0.35"/>
<path fill-rule="evenodd" clip-rule="evenodd" d="M46.9871 60.1423L60.7564 47.7923L70.1023 63.9605L46.9871 60.1423Z" fill="#FFD666"/>
<path fill-rule="evenodd" clip-rule="evenodd" d="M113.984 71.2092L104.903 55.0846L91.6031 67.5122L113.984 71.2092Z" fill="#FFA940"/>
<path fill-rule="evenodd" clip-rule="evenodd" d="M46.9871 60.1423L73.8549 105.589L70.1128 63.9623L46.9871 60.1423Z" fill="#FFC53D"/>
<path fill-rule="evenodd" clip-rule="evenodd" d="M113.838 71.185L73.8549 105.589L91.5358 67.5011L113.838 71.185Z" fill="#FA8C16"/>
<path fill-rule="evenodd" clip-rule="evenodd" d="M60.6394 47.7729L82.874 51.4458L69.4051 63.8454L60.6394 47.7729Z" fill="#FFC53D"/>
<path fill-rule="evenodd" clip-rule="evenodd" d="M82.7272 51.4216L104.962 55.0944L91.5735 67.5073L82.7272 51.4216Z" fill="#FFC53D"/>
<path fill-rule="evenodd" clip-rule="evenodd" d="M69.3716 63.82L82.8232 51.4374L91.6062 67.4928L89.6219 71.5571L69.9945 68.125L69.3716 63.82Z" fill="#FFA940"/>
<path fill-rule="evenodd" clip-rule="evenodd" d="M69.4418 63.8514L73.8734 105.592L91.603 67.5121L69.4418 63.8514Z" fill="#FAAD14"/>
<g clip-path="url(#clip0_5_52)">
<path d="M69.0829 130.505C83.6215 137.093 100.779 130.579 107.405 115.956C114.031 101.334 107.617 84.1388 93.0782 77.5509C78.5397 70.9629 61.3823 77.4765 54.7562 92.0994C48.1301 106.722 54.5444 123.917 69.0829 130.505Z" fill="#FFD666"/>
<path d="M71.1927 124.961C83.0036 130.313 96.9167 125.077 102.269 113.266C107.621 101.455 102.385 87.5422 90.5737 82.1903C78.7628 76.8384 64.8497 82.0744 59.4978 93.8853C54.1459 105.696 59.3819 119.609 71.1927 124.961Z" fill="#FFC53D"/>
<path d="M74.7398 117.553C74.1126 117.269 73.6339 116.994 73.3037 116.728L74.7631 113.507C73.6334 112.792 72.6489 111.997 71.8094 111.122C70.97 110.247 70.3324 109.457 69.8964 108.751C70.1435 108.237 70.5518 107.754 71.1211 107.299C71.6905 106.845 72.2168 106.582 72.7 106.51C73.2797 107.412 74.0134 108.312 74.901 109.208C75.7887 110.105 76.7545 110.797 77.7984 111.284C78.8236 111.749 79.7663 111.915 80.6265 111.781C81.4921 111.635 82.1141 111.161 82.4923 110.358C82.805 109.7 82.8711 109.025 82.6905 108.333C82.5154 107.628 82.0466 106.914 81.2841 106.191L78.3398 103.352C77.2328 102.298 76.4813 101.165 76.0853 99.9534C75.7069 98.7351 75.8156 97.4686 76.4113 96.1539C77.0945 94.6462 78.1799 93.5824 79.6675 92.9626C81.1671 92.3482 82.8038 92.2975 84.5777 92.8105L86.0124 89.6443C86.2393 89.689 86.4909 89.7594 86.7672 89.8555C87.0555 89.9571 87.3263 90.0652 87.5796 90.18C88.1707 90.4478 88.6433 90.7202 88.9976 90.997L87.5547 94.1813C88.5187 94.749 89.3633 95.3716 90.0885 96.0491C90.8258 96.7321 91.4529 97.4016 91.9699 98.0574C91.7294 98.5882 91.3595 99.0675 90.8603 99.4955C90.3731 99.929 89.8573 100.233 89.3128 100.408C88.6761 99.5671 87.9717 98.8117 87.1993 98.1419C86.4391 97.4776 85.6308 96.9514 84.7744 96.5633C83.7853 96.1151 82.8969 95.9743 82.1091 96.1407C81.3213 96.3071 80.7607 96.7582 80.4273 97.4939C80.1103 98.1935 80.099 98.8281 80.3934 99.3976C80.6932 99.9551 81.1569 100.536 81.7845 101.14L84.5643 103.861C85.7459 105.007 86.5343 106.251 86.9293 107.593C87.3243 108.935 87.1747 110.372 86.4806 111.904C85.781 113.448 84.6419 114.502 83.0633 115.066C81.4902 115.618 79.7103 115.567 77.7237 114.914L76.289 118.081C75.8834 118.013 75.367 117.837 74.7398 117.553Z" fill="white"/>
</g>
<g clip-path="url(#clip1_5_52)">
<path d="M106.037 100.483C114.57 104.35 124.641 100.527 128.53 91.9437C132.42 83.3607 128.655 73.2681 120.121 69.4012C111.588 65.5344 101.517 69.3576 97.6277 77.9406C93.7384 86.5236 97.5033 96.6162 106.037 100.483Z" fill="#FFD666"/>
<path d="M107.275 97.2287C114.208 100.37 122.374 97.2968 125.516 90.3643C128.657 83.4318 125.584 75.2654 118.651 72.124C111.719 68.9827 103.552 72.056 100.411 78.9885C97.2695 85.9209 100.343 94.0874 107.275 97.2287Z" fill="#FFC53D"/>
<path d="M109.357 92.8808C108.989 92.714 108.708 92.5525 108.514 92.3964L109.371 90.5061C108.708 90.0862 108.13 89.6195 107.637 89.1061C107.145 88.5927 106.77 88.1287 106.515 87.7141C106.66 87.4129 106.899 87.129 107.233 86.8622C107.568 86.5955 107.876 86.4411 108.16 86.399C108.5 86.9286 108.931 87.4566 109.452 87.9828C109.973 88.509 110.54 88.9152 111.153 89.2014C111.754 89.4741 112.308 89.5712 112.813 89.4928C113.321 89.4073 113.686 89.129 113.908 88.6578C114.091 88.2717 114.13 87.8754 114.024 87.4689C113.921 87.0554 113.646 86.6364 113.199 86.2117L111.47 84.5454C110.821 83.9267 110.38 83.2617 110.147 82.5505C109.925 81.8355 109.989 81.0921 110.339 80.3204C110.74 79.4354 111.377 78.811 112.25 78.4472C113.13 78.0866 114.091 78.0568 115.132 78.358L115.974 76.4995C116.107 76.5257 116.255 76.5671 116.417 76.6235C116.586 76.6831 116.745 76.7466 116.894 76.814C117.241 76.9712 117.518 77.131 117.726 77.2935L116.879 79.1626C117.445 79.4958 117.941 79.8612 118.366 80.2589C118.799 80.6598 119.167 81.0527 119.471 81.4377C119.33 81.7492 119.112 82.0306 118.819 82.2818C118.533 82.5362 118.231 82.7147 117.911 82.8174C117.537 82.3238 117.124 81.8804 116.671 81.4873C116.224 81.0973 115.75 80.7885 115.247 80.5607C114.667 80.2976 114.145 80.215 113.683 80.3126C113.22 80.4103 112.891 80.6751 112.696 81.1069C112.51 81.5176 112.503 81.89 112.676 82.2243C112.852 82.5515 113.124 82.8925 113.492 83.2471L115.124 84.8441C115.818 85.5168 116.28 86.247 116.512 87.0347C116.744 87.8225 116.656 88.6659 116.249 89.565C115.838 90.4712 115.17 91.0899 114.243 91.4209C113.32 91.745 112.275 91.7153 111.109 91.332L110.267 93.1904C110.029 93.1508 109.726 93.0476 109.357 92.8808Z" fill="white"/>
</g>
<g clip-path="url(#clip2_5_52)">
<path d="M50.005 99.8746C59.1948 98.0525 65.159 89.0823 63.3262 79.8392C61.4935 70.5961 52.5579 64.5802 43.3681 66.4024C34.1782 68.2245 28.2141 77.1947 30.0468 86.4378C31.8796 95.6809 40.8151 101.697 50.005 99.8746Z" fill="#FFD666"/>
<path d="M49.1181 96.5075C56.5837 95.0272 61.4358 87.7751 59.9555 80.3094C58.4752 72.8437 51.2231 67.9916 43.7574 69.4719C36.2918 70.9522 31.4397 78.2044 32.92 85.67C34.4003 93.1357 41.6524 97.9878 49.1181 96.5075Z" fill="#FFC53D"/>
<path d="M48.2802 91.76C47.8837 91.8386 47.5613 91.8708 47.3128 91.8567L46.9092 89.821C46.1256 89.8655 45.3841 89.8223 44.6846 89.6916C43.9852 89.5609 43.4108 89.4014 42.9614 89.2131C42.904 88.8838 42.9336 88.5134 43.0501 88.102C43.1666 87.6907 43.328 87.3853 43.5341 87.1859C44.1191 87.4186 44.7765 87.5973 45.5065 87.722C46.2364 87.8467 46.9338 87.847 47.5986 87.7231C48.2467 87.5946 48.7532 87.3516 49.1181 86.994C49.4815 86.6287 49.6164 86.1899 49.5227 85.6776C49.4472 85.2568 49.2481 84.9119 48.9253 84.6431C48.6011 84.3667 48.1334 84.186 47.5223 84.1012L45.1472 83.752C44.2587 83.627 43.513 83.343 42.9101 82.9C42.3133 82.4478 41.9325 81.8062 41.7677 80.9751C41.5788 80.0221 41.7334 79.1436 42.2317 78.3395C42.7376 77.534 43.5015 76.9507 44.5234 76.5895L44.1265 74.5882C44.2501 74.532 44.3942 74.4796 44.559 74.4311C44.7313 74.3811 44.8975 74.3402 45.0576 74.3085C45.4312 74.2344 45.7499 74.2029 46.0135 74.214L46.4126 76.2268C47.0667 76.1685 47.6825 76.1771 48.2601 76.2528C48.8453 76.3269 49.3733 76.4322 49.8441 76.5686C49.9107 76.9041 49.8979 77.2592 49.8058 77.6341C49.7213 78.0074 49.579 78.3288 49.3789 78.5983C48.7878 78.4144 48.1935 78.2945 47.596 78.2386C47.0062 78.1813 46.4406 78.2062 45.8993 78.3136C45.2741 78.4375 44.8019 78.6738 44.4828 79.0223C44.1636 79.3709 44.0501 79.7777 44.1423 80.2428C44.23 80.685 44.4414 80.9917 44.7765 81.163C45.11 81.3267 45.5298 81.4455 46.0358 81.5195L48.292 81.8685C49.2475 82.0119 50.0488 82.3363 50.6958 82.842C51.3428 83.3476 51.7623 84.0846 51.9543 85.0528C52.1478 86.0287 51.9642 86.9209 51.4034 87.7294C50.8411 88.5303 49.9743 89.1142 48.803 89.4812L49.1998 91.4825C48.9832 91.5889 48.6767 91.6814 48.2802 91.76Z" fill="white"/>
</g>
<path d="M84.3226 115.513C81.8081 116.352 79.0476 115.998 76.8273 114.549L4 57.2402V153.785C4 155.923 6.10609 157.656 8.35781 157.656H152.365C154.621 157.656 156.449 155.923 156.449 153.785V57.2402L86.9041 114.091C86.1332 114.712 85.2595 115.193 84.3226 115.513Z" fill="#2A84C6"/>
<path d="M84.3226 115.513C81.8081 116.352 79.0476 115.998 76.8273 114.549L4 57.2402V153.785C4 155.923 6.10609 157.656 8.35781 157.656H152.365C154.621 157.656 156.449 155.923 156.449 153.785V57.2402L86.9041 114.091C86.1332 114.712 85.2595 115.193 84.3226 115.513Z" fill="white" fill-opacity="0.85"/>
<path fill-rule="evenodd" clip-rule="evenodd" d="M84.3226 115.513C81.8081 116.352 79.0476 115.998 76.8273 114.549L76.2453 114.091L4 153.785C4 155.923 6.10609 157.656 8.35781 157.656H152.365C154.621 157.656 156.449 155.923 156.449 153.785L86.9041 114.091C86.1332 114.712 85.2595 115.193 84.3226 115.513Z" fill="#1443BD"/>
<path fill-rule="evenodd" clip-rule="evenodd" d="M84.3226 115.513C81.8081 116.352 79.0476 115.998 76.8273 114.549L76.2453 114.091L4 153.785C4 155.923 6.10609 157.656 8.35781 157.656H152.365C154.621 157.656 156.449 155.923 156.449 153.785L86.9041 114.091C86.1332 114.712 85.2595 115.193 84.3226 115.513Z" fill="white" fill-opacity="0.85"/>
<g clip-path="url(#clip3_5_52)" filter="url(#filter1_ddddd_5_52)">
<path fill-rule="evenodd" clip-rule="evenodd" d="M102.387 59.8163L101.88 56.4986L99.6631 53.9787L99.663 53.9784L102.981 53.4715L105.501 51.2546L106.008 54.5725L108.225 57.0927L108.225 57.0928L104.907 57.5996L102.387 59.8164L102.387 59.8165L102.387 59.8163Z" fill="white"/>
</g>
<ellipse cx="156.171" cy="121.294" rx="16.7941" ry="16.7941" fill="white"/>
<path d="M163.308 114.173C162.88 113.733 162.247 113.57 161.657 113.742L147.89 117.745C147.267 117.918 146.826 118.415 146.707 119.046C146.585 119.689 147.009 120.504 147.564 120.845L151.868 123.49C152.31 123.762 152.88 123.694 153.245 123.325L158.174 118.365C158.422 118.107 158.833 118.107 159.081 118.365C159.329 118.615 159.329 119.02 159.081 119.278L154.144 124.239C153.777 124.606 153.709 125.179 153.978 125.623L156.609 129.971C156.917 130.487 157.447 130.78 158.029 130.78C158.097 130.78 158.174 130.78 158.243 130.771C158.91 130.685 159.441 130.229 159.637 129.583L163.719 115.834C163.898 115.249 163.736 114.612 163.308 114.173" fill="#1443BD"/>
</g>
<defs>
<filter id="filter0_d_5_52" x="0" y="0" width="176.966" height="165.656" filterUnits="userSpaceOnUse" color-interpolation-filters="sRGB">
<feFlood flood-opacity="0" result="BackgroundImageFix"/>
<feColorMatrix in="SourceAlpha" type="matrix" values="0 0 0 0 0 0 0 0 0 0 0 0 0 0 0 0 0 0 127 0" result="hardAlpha"/>
<feOffset dy="4"/>
<feGaussianBlur stdDeviation="2"/>
<feComposite in2="hardAlpha" operator="out"/>
<feColorMatrix type="matrix" values="0 0 0 0 0 0 0 0 0 0 0 0 0 0 0 0 0 0 0.25 0"/>
<feBlend mode="normal" in2="BackgroundImageFix" result="effect1_dropShadow_5_52"/>
<feBlend mode="normal" in="SourceGraphic" in2="effect1_dropShadow_5_52" result="shape"/>
</filter>
<filter id="filter1_ddddd_5_52" x="26.3954" y="17.987" width="155.097" height="155.097" filterUnits="userSpaceOnUse" color-interpolation-filters="sRGB">
<feFlood flood-opacity="0" result="BackgroundImageFix"/>
<feColorMatrix in="SourceAlpha" type="matrix" values="0 0 0 0 0 0 0 0 0 0 0 0 0 0 0 0 0 0 127 0" result="hardAlpha"/>
<feOffset dy="6"/>
<feGaussianBlur stdDeviation="4"/>
<feColorMatrix type="matrix" values="0 0 0 0 0.705882 0 0 0 0 0.831373 0 0 0 0 0.921569 0 0 0 0.12 0"/>
<feBlend mode="normal" in2="BackgroundImageFix" result="effect1_dropShadow_5_52"/>
<feColorMatrix in="SourceAlpha" type="matrix" values="0 0 0 0 0 0 0 0 0 0 0 0 0 0 0 0 0 0 127 0" result="hardAlpha"/>
<feOffset dy="8"/>
<feGaussianBlur stdDeviation="12"/>
<feColorMatrix type="matrix" values="0 0 0 0 0.705882 0 0 0 0 0.831373 0 0 0 0 0.921569 0 0 0 0.08 0"/>
<feBlend mode="normal" in2="effect1_dropShadow_5_52" result="effect2_dropShadow_5_52"/>
<feColorMatrix in="SourceAlpha" type="matrix" values="0 0 0 0 0 0 0 0 0 0 0 0 0 0 0 0 0 0 127 0" result="hardAlpha"/>
<feOffset dy="16"/>
<feGaussianBlur stdDeviation="18"/>
<feColorMatrix type="matrix" values="0 0 0 0 0.705882 0 0 0 0 0.831373 0 0 0 0 0.921569 0 0 0 0.04 0"/>
<feBlend mode="normal" in2="effect2_dropShadow_5_52" result="effect3_dropShadow_5_52"/>
<feColorMatrix in="SourceAlpha" type="matrix" values="0 0 0 0 0 0 0 0 0 0 0 0 0 0 0 0 0 0 127 0" result="hardAlpha"/>
<feOffset dy="40"/>
<feGaussianBlur stdDeviation="35"/>
<feColorMatrix type="matrix" values="0 0 0 0 0.705882 0 0 0 0 0.831373 0 0 0 0 0.921569 0 0 0 0.04 0"/>
<feBlend mode="normal" in2="effect3_dropShadow_5_52" result="effect4_dropShadow_5_52"/>
<feColorMatrix in="SourceAlpha" type="matrix" values="0 0 0 0 0 0 0 0 0 0 0 0 0 0 0 0 0 0 127 0" result="hardAlpha"/>
<feOffset dy="2"/>
<feGaussianBlur stdDeviation="2"/>
<feColorMatrix type="matrix" values="0 0 0 0 0.87451 0 0 0 0 0.929412 0 0 0 0 0.964706 0 0 0 0.4 0"/>
<feBlend mode="normal" in2="effect4_dropShadow_5_52" result="effect5_dropShadow_5_52"/>
<feBlend mode="normal" in="SourceGraphic" in2="effect5_dropShadow_5_52" result="shape"/>
</filter>
<clipPath id="clip0_5_52">
<rect width="68.1032" height="68.1032" fill="white" transform="translate(63.5338 57.476) rotate(24.3769)"/>
</clipPath>
<clipPath id="clip1_5_52">
<rect width="39.9738" height="39.9738" fill="white" transform="translate(102.78 57.6182) rotate(24.3769)"/>
</clipPath>
<clipPath id="clip2_5_52">
<rect width="39.9737" height="39.9737" fill="white" transform="translate(22.4084 66.9133) rotate(-11.2152)"/>
</clipPath>
<clipPath id="clip3_5_52">
<rect width="11.78" height="11.78" fill="white" transform="matrix(0.939764 0.341825 0.341824 -0.939764 96.3954 59.0574)"/>
</clipPath>
</defs>
</svg>
