<svg width="194" height="158" viewBox="0 0 194 158" fill="none" xmlns="http://www.w3.org/2000/svg">
<path fill-rule="evenodd" clip-rule="evenodd" d="M159.818 19.9453H0V5.625C0 2.51859 2.51859 0 5.625 0H154.193C157.3 0 159.818 2.51859 159.818 5.625V19.9453Z" fill="#1443BD"/>
<path fill-rule="evenodd" clip-rule="evenodd" d="M159.818 19.9453H0V5.625C0 2.51859 2.51859 0 5.625 0H154.193C157.3 0 159.818 2.51859 159.818 5.625V19.9453Z" fill="black" fill-opacity="0.5"/>
<path fill-rule="evenodd" clip-rule="evenodd" d="M154.193 157.828H5.625C2.51859 157.828 0 155.31 0 152.203V18.2685H159.818V152.203C159.818 155.31 157.3 157.828 154.193 157.828Z" fill="#2A84C6"/>
<path fill-rule="evenodd" clip-rule="evenodd" d="M154.193 157.828H5.625C2.51859 157.828 0 155.31 0 152.203V18.2685H159.818V152.203C159.818 155.31 157.3 157.828 154.193 157.828Z" fill="white" fill-opacity="0.85"/>
<path fill-rule="evenodd" clip-rule="evenodd" d="M12.9879 9.28263C12.9879 11.2322 11.4073 12.8128 9.45749 12.8128C7.50796 12.8128 5.92757 11.2322 5.92757 9.28263C5.92757 7.3331 7.50796 5.75247 9.45749 5.75247C11.4073 5.75247 12.9879 7.3331 12.9879 9.28263Z" fill="#F56D7E"/>
<path fill-rule="evenodd" clip-rule="evenodd" d="M26.1712 9.28263C26.1712 11.2322 24.5908 12.8128 22.6411 12.8128C20.6915 12.8128 19.1112 11.2322 19.1112 9.28263C19.1112 7.3331 20.6915 5.75247 22.6411 5.75247C24.5908 5.75247 26.1712 7.3331 26.1712 9.28263Z" fill="#F1F380"/>
<path fill-rule="evenodd" clip-rule="evenodd" d="M39.3548 9.28263C39.3548 11.2322 37.7744 12.8128 35.8247 12.8128C33.8751 12.8128 32.2948 11.2322 32.2948 9.28263C32.2948 7.3331 33.8751 5.75247 35.8247 5.75247C37.7744 5.75247 39.3548 7.3331 39.3548 9.28263Z" fill="#B7EE81"/>
<path fill-rule="evenodd" clip-rule="evenodd" d="M17.2733 138.845C16.3038 138.845 15.5181 138.059 15.5181 137.091V35.4175C15.5181 34.4489 16.3038 33.6636 17.2733 33.6636H144.291C145.26 33.6636 146.046 34.4489 146.046 35.4175V137.091C146.046 138.059 145.26 138.845 144.291 138.845H17.2733Z" fill="white"/>
<path fill-rule="evenodd" clip-rule="evenodd" d="M68.5706 82.9688H42.0541C40.0648 82.9688 38.4373 81.3412 38.4373 79.352V52.8355C38.4373 50.8462 40.0648 49.2188 42.0541 49.2188H68.5706C70.5599 49.2188 72.1874 50.8462 72.1874 52.8355V79.352C72.1874 81.3412 70.5599 82.9688 68.5706 82.9688Z" fill="#1443BD"/>
<path fill-rule="evenodd" clip-rule="evenodd" d="M68.5522 128.907H42.0725C40.0731 128.907 38.4373 127.271 38.4373 125.272V98.7919C38.4373 96.7925 40.0731 95.1568 42.0725 95.1568H68.5522C70.5515 95.1568 72.1874 96.7925 72.1874 98.7919V125.272C72.1874 127.271 70.5515 128.907 68.5522 128.907Z" fill="#B7EE81"/>
<path fill-rule="evenodd" clip-rule="evenodd" d="M116.365 128.907H89.8848C87.8856 128.907 86.2498 127.271 86.2498 125.272V98.7919C86.2498 96.7925 87.8856 95.1568 89.8848 95.1568H116.365C118.364 95.1568 120 96.7925 120 98.7919V125.272C120 127.271 118.364 128.907 116.365 128.907Z" fill="#1443BD"/>
<g filter="url(#filter0_d_4_26)">
<rect x="94.538" y="49.5572" width="91.3793" height="25" rx="12.5" fill="white"/>
</g>
<path fill-rule="evenodd" clip-rule="evenodd" d="M172.571 79.273C172.57 79.2392 172.575 79.2052 172.585 79.172C172.618 79.0662 172.703 78.9828 172.811 78.9492L178.593 77.166C178.861 77.0836 178.899 76.8528 178.904 76.7841C178.91 76.7152 178.908 76.4816 178.656 76.3612L162.811 68.7816C162.655 68.7067 162.478 68.7236 162.34 68.8268C162.201 68.9299 162.139 69.0906 162.173 69.2569L165.669 86.3551C165.723 86.6209 165.954 86.6841 166.023 86.6972C166.092 86.7103 166.33 86.7353 166.483 86.5085L169.925 81.417C169.986 81.326 170.09 81.2697 170.201 81.2659C170.313 81.2622 170.42 81.3115 170.488 81.3981L176.035 88.4993C176.093 88.5732 176.199 88.589 176.277 88.5352L178.603 86.9306C178.657 86.8933 178.672 86.8419 178.675 86.8145C178.679 86.7872 178.68 86.7338 178.638 86.6838L172.647 79.4786C172.598 79.4196 172.572 79.3469 172.571 79.273Z" fill="#1443BD"/>
<defs>
<filter id="filter0_d_4_26" x="86.538" y="47.5572" width="107.379" height="41" filterUnits="userSpaceOnUse" color-interpolation-filters="sRGB">
<feFlood flood-opacity="0" result="BackgroundImageFix"/>
<feColorMatrix in="SourceAlpha" type="matrix" values="0 0 0 0 0 0 0 0 0 0 0 0 0 0 0 0 0 0 127 0" result="hardAlpha"/>
<feOffset dy="6"/>
<feGaussianBlur stdDeviation="4"/>
<feColorMatrix type="matrix" values="0 0 0 0 0.0392157 0 0 0 0 0.129412 0 0 0 0 0.372549 0 0 0 0.12 0"/>
<feBlend mode="normal" in2="BackgroundImageFix" result="effect1_dropShadow_4_26"/>
<feBlend mode="normal" in="SourceGraphic" in2="effect1_dropShadow_4_26" result="shape"/>
</filter>
</defs>
</svg>
