<svg width="60" height="60" viewBox="0 0 60 60" fill="none" xmlns="http://www.w3.org/2000/svg">
<circle cx="30" cy="30" r="30" fill="#2A84C6"/>
<circle cx="30" cy="30" r="30" fill="white" fill-opacity="0.2"/>
<path d="M39.3516 24.1667H21.9792C21.5763 24.1667 21.25 23.8404 21.25 23.4376C21.25 23.0347 21.5763 22.7084 21.9792 22.7084H39.4792C39.8821 22.7084 40.2084 22.3821 40.2084 21.9792C40.2084 20.7711 39.229 19.7917 38.0209 19.7917H21.25C19.639 19.7917 18.3334 21.0974 18.3334 22.7084V37.2917C18.3334 38.9028 19.639 40.2084 21.25 40.2084H39.3516C40.6286 40.2084 41.6667 39.2272 41.6667 38.0209V26.3542C41.6667 25.1479 40.6286 24.1667 39.3516 24.1667ZM37.2917 33.6459C36.4864 33.6459 35.8334 32.9929 35.8334 32.1876C35.8334 31.3823 36.4864 30.7292 37.2917 30.7292C38.097 30.7292 38.75 31.3823 38.75 32.1876C38.75 32.9929 38.097 33.6459 37.2917 33.6459Z" fill="white"/>
</svg>
