<svg width="14" height="10" viewBox="0 0 14 10" fill="none" xmlns="http://www.w3.org/2000/svg">
<path d="M6.29559 9.01167L0.627155 3.34323C0.235366 2.95144 0.235366 2.31791 0.627155 1.93029L1.56912 0.98833C1.96091 0.596541 2.59444 0.596541 2.98206 0.98833L6.99998 5.00625L11.0179 0.98833C11.4097 0.596541 12.0432 0.596541 12.4308 0.98833L13.3728 1.93029C13.7646 2.32208 13.7646 2.95561 13.3728 3.34323L7.70437 9.01167C7.32091 9.40346 6.68738 9.40346 6.29559 9.01167Z" fill="#1443BD"/>
<path d="M6.29559 9.01167L0.627155 3.34323C0.235366 2.95144 0.235366 2.31791 0.627155 1.93029L1.56912 0.98833C1.96091 0.596541 2.59444 0.596541 2.98206 0.98833L6.99998 5.00625L11.0179 0.98833C11.4097 0.596541 12.0432 0.596541 12.4308 0.98833L13.3728 1.93029C13.7646 2.32208 13.7646 2.95561 13.3728 3.34323L7.70437 9.01167C7.32091 9.40346 6.68738 9.40346 6.29559 9.01167Z" fill="black" fill-opacity="0.5"/>
</svg>
