<svg width="461" height="494" viewBox="0 0 461 494" fill="none" xmlns="http://www.w3.org/2000/svg">
<path fill-rule="evenodd" clip-rule="evenodd" d="M0.838346 404.957C0.838346 404.957 -1.78593 384.313 26.5563 375.023C54.8985 365.733 61.1968 370.636 61.1968 370.636L58.5725 378.894C58.5725 378.894 54.1112 399.538 33.6418 402.376C13.1725 405.215 5.29962 401.086 0.838346 404.957Z" fill="#B7EE81"/>
<path fill-rule="evenodd" clip-rule="evenodd" d="M0.838346 404.957C0.838346 404.957 -1.78593 384.313 26.5563 375.023C54.8985 365.733 61.1968 370.636 61.1968 370.636L58.5725 378.894C58.5725 378.894 54.1112 399.538 33.6418 402.376C13.1725 405.215 5.29962 401.086 0.838346 404.957Z" fill="white" fill-opacity="0.2"/>
<path d="M58.1581 371.611L58.9871 372.244L58.9184 372.328C58.8885 372.365 58.8515 372.409 58.8073 372.461L58.6762 372.613C58.5841 372.719 58.4826 372.834 58.3715 372.956L58.2864 373.049C57.7105 373.677 57.0155 374.376 56.1996 375.127C53.8742 377.268 51.0438 379.407 47.6943 381.402C40.9678 385.409 33.0253 388.321 23.824 389.678L23.4826 389.727C17.2892 390.611 12.3539 392.634 8.53089 395.449C6.69693 396.8 5.24147 398.244 4.12588 399.686C3.73757 400.188 3.41987 400.652 3.16802 401.067L3.0858 401.205C3.04711 401.271 3.01204 401.333 2.98051 401.39L2.89256 401.555L2.8873 401.566L1.93864 401.124L1.96759 401.066C2.02765 400.948 2.12633 400.769 2.26663 400.538C2.53825 400.091 2.87789 399.594 3.29051 399.061C4.46331 397.545 5.98731 396.033 7.9017 394.623C11.808 391.747 16.8189 389.675 23.0597 388.745L23.3318 388.706C32.5352 387.392 40.4581 384.506 47.1504 380.519C50.4356 378.562 53.2083 376.467 55.4822 374.373C56.2231 373.691 56.8599 373.055 57.394 372.48L57.5068 372.358C57.6728 372.177 57.8176 372.014 57.9414 371.87L58.08 371.706L58.1581 371.611Z" fill="#B7EE81"/>
<path d="M58.1581 371.611L58.9871 372.244L58.9184 372.328C58.8885 372.365 58.8515 372.409 58.8073 372.461L58.6762 372.613C58.5841 372.719 58.4826 372.834 58.3715 372.956L58.2864 373.049C57.7105 373.677 57.0155 374.376 56.1996 375.127C53.8742 377.268 51.0438 379.407 47.6943 381.402C40.9678 385.409 33.0253 388.321 23.824 389.678L23.4826 389.727C17.2892 390.611 12.3539 392.634 8.53089 395.449C6.69693 396.8 5.24147 398.244 4.12588 399.686C3.73757 400.188 3.41987 400.652 3.16802 401.067L3.0858 401.205C3.04711 401.271 3.01204 401.333 2.98051 401.39L2.89256 401.555L2.8873 401.566L1.93864 401.124L1.96759 401.066C2.02765 400.948 2.12633 400.769 2.26663 400.538C2.53825 400.091 2.87789 399.594 3.29051 399.061C4.46331 397.545 5.98731 396.033 7.9017 394.623C11.808 391.747 16.8189 389.675 23.0597 388.745L23.3318 388.706C32.5352 387.392 40.4581 384.506 47.1504 380.519C50.4356 378.562 53.2083 376.467 55.4822 374.373C56.2231 373.691 56.8599 373.055 57.394 372.48L57.5068 372.358C57.6728 372.177 57.8176 372.014 57.9414 371.87L58.08 371.706L58.1581 371.611Z" fill="white" fill-opacity="0.2"/>
<path fill-rule="evenodd" clip-rule="evenodd" d="M57.7848 418.892H61.1963L61.1968 370.636L57.7848 370.636L58.7041 385.463C58.9657 389.682 58.9943 393.912 58.7901 398.134L57.7848 418.892Z" fill="#B7EE81"/>
<path fill-rule="evenodd" clip-rule="evenodd" d="M57.7848 418.892H61.1963L61.1968 370.636L57.7848 370.636L58.7041 385.463C58.9657 389.682 58.9943 393.912 58.7901 398.134L57.7848 418.892Z" fill="white" fill-opacity="0.2"/>
<path fill-rule="evenodd" clip-rule="evenodd" d="M5.24133 334.303C5.24133 334.303 15.6873 318.683 40.5738 328.58C65.4602 338.477 66.7075 346.38 66.7075 346.38L60.1691 349.581C60.1691 349.581 44.8787 361.139 29.2 351.345C13.5215 341.55 10.5867 334.214 5.24133 334.303Z" fill="#B7EE81"/>
<path fill-rule="evenodd" clip-rule="evenodd" d="M5.24133 334.303C5.24133 334.303 15.6873 318.683 40.5738 328.58C65.4602 338.477 66.7075 346.38 66.7075 346.38L60.1691 349.581C60.1691 349.581 44.8787 361.139 29.2 351.345C13.5215 341.55 10.5867 334.214 5.24133 334.303Z" fill="white" fill-opacity="0.2"/>
<path fill-rule="evenodd" clip-rule="evenodd" d="M63.296 432.31H65.9202L66.9484 347.127C66.961 346.077 66.2572 345.147 65.2298 344.859L63.296 344.315C63.296 344.315 63.9549 352.23 63.8208 362.121C63.6925 371.582 62.7711 382.84 62.7711 391.179C62.7711 414.763 63.296 432.31 63.296 432.31Z" fill="#B7EE81"/>
<path fill-rule="evenodd" clip-rule="evenodd" d="M63.296 432.31H65.9202L66.9484 347.127C66.961 346.077 66.2572 345.147 65.2298 344.859L63.296 344.315C63.296 344.315 63.9549 352.23 63.8208 362.121C63.6925 371.582 62.7711 382.84 62.7711 391.179C62.7711 414.763 63.296 432.31 63.296 432.31Z" fill="white" fill-opacity="0.2"/>
<path fill-rule="evenodd" clip-rule="evenodd" d="M40.7271 333.735C52.0519 342.378 63.5583 347.928 63.5583 347.928L60.1691 349.581C60.1691 349.581 44.8787 361.139 29.2 351.345C13.5215 341.55 10.5867 334.214 5.24133 334.303C5.24133 334.303 23.1444 320.316 40.7271 333.735Z" fill="#B7EE81"/>
<path fill-rule="evenodd" clip-rule="evenodd" d="M40.7271 333.735C52.0519 342.378 63.5583 347.928 63.5583 347.928L60.1691 349.581C60.1691 349.581 44.8787 361.139 29.2 351.345C13.5215 341.55 10.5867 334.214 5.24133 334.303C5.24133 334.303 23.1444 320.316 40.7271 333.735Z" fill="black" fill-opacity="0.2"/>
<path fill-rule="evenodd" clip-rule="evenodd" d="M128.052 371.248C128.052 371.248 121.005 360.765 104.217 367.407C87.4296 374.05 86.5882 379.354 86.5882 379.354L90.9988 381.503C90.9988 381.503 101.313 389.26 111.89 382.687C122.466 376.113 124.446 371.188 128.052 371.248Z" fill="#B7EE81"/>
<path fill-rule="evenodd" clip-rule="evenodd" d="M128.052 371.248C128.052 371.248 121.005 360.765 104.217 367.407C87.4296 374.05 86.5882 379.354 86.5882 379.354L90.9988 381.503C90.9988 381.503 101.313 389.26 111.89 382.687C122.466 376.113 124.446 371.188 128.052 371.248Z" fill="white" fill-opacity="0.2"/>
<path fill-rule="evenodd" clip-rule="evenodd" d="M88.8496 437.457H87.0362L86.3257 380.002C86.317 379.293 86.8033 378.666 87.5133 378.471L88.8496 378.105C88.8496 378.105 88.3942 383.444 88.4869 390.114C88.5756 396.496 89.2122 404.09 89.2122 409.714C89.2122 425.621 88.8496 437.457 88.8496 437.457Z" fill="#B7EE81"/>
<path fill-rule="evenodd" clip-rule="evenodd" d="M88.8496 437.457H87.0362L86.3257 380.002C86.317 379.293 86.8033 378.666 87.5133 378.471L88.8496 378.105C88.8496 378.105 88.3942 383.444 88.4869 390.114C88.5756 396.496 89.2122 404.09 89.2122 409.714C89.2122 425.621 88.8496 437.457 88.8496 437.457Z" fill="white" fill-opacity="0.2"/>
<path fill-rule="evenodd" clip-rule="evenodd" d="M130.011 314.433C130.011 314.433 119.565 298.813 94.6782 308.71C69.7919 318.607 68.5445 326.51 68.5445 326.51L75.0829 329.712C75.0829 329.712 90.3733 341.269 106.052 331.475C121.731 321.681 124.665 314.344 130.011 314.433Z" fill="#B7EE81"/>
<path fill-rule="evenodd" clip-rule="evenodd" d="M130.011 314.433C130.011 314.433 119.565 298.813 94.6782 308.71C69.7919 318.607 68.5445 326.51 68.5445 326.51L75.0829 329.712C75.0829 329.712 90.3733 341.269 106.052 331.475C121.731 321.681 124.665 314.344 130.011 314.433Z" fill="white" fill-opacity="0.2"/>
<path fill-rule="evenodd" clip-rule="evenodd" d="M71.9563 415.795H69.332L68.3038 327.257C68.2912 326.207 68.9951 325.278 70.0225 324.989L71.9563 324.446C71.9563 324.446 71.2973 332.361 71.4314 342.251C71.5598 351.712 72.4811 362.97 72.4811 371.309C72.4811 394.893 71.9563 415.795 71.9563 415.795Z" fill="#B7EE81"/>
<path fill-rule="evenodd" clip-rule="evenodd" d="M71.9563 415.795H69.332L68.3038 327.257C68.2912 326.207 68.9951 325.278 70.0225 324.989L71.9563 324.446C71.9563 324.446 71.2973 332.361 71.4314 342.251C71.5598 351.712 72.4811 362.97 72.4811 371.309C72.4811 394.893 71.9563 415.795 71.9563 415.795Z" fill="white" fill-opacity="0.2"/>
<path fill-rule="evenodd" clip-rule="evenodd" d="M130.011 314.433C130.011 314.433 112.108 300.446 94.525 313.865C83.2002 322.508 71.6937 328.058 71.6937 328.058L75.0829 329.712C75.0829 329.712 90.3733 341.269 106.052 331.475C121.731 321.681 124.665 314.344 130.011 314.433Z" fill="#B7EE81"/>
<path fill-rule="evenodd" clip-rule="evenodd" d="M130.011 314.433C130.011 314.433 112.108 300.446 94.525 313.865C83.2002 322.508 71.6937 328.058 71.6937 328.058L75.0829 329.712C75.0829 329.712 90.3733 341.269 106.052 331.475C121.731 321.681 124.665 314.344 130.011 314.433Z" fill="black" fill-opacity="0.2"/>
<path fill-rule="evenodd" clip-rule="evenodd" d="M76.6799 415.021H81.1412L82.9058 360.18L79.5451 308.42C79.5577 307.369 78.8539 306.44 77.8265 306.151L75.8926 305.608C75.8926 305.608 80.0915 346.713 80.0915 355.052C80.0915 378.636 76.6799 415.021 76.6799 415.021Z" fill="#B7EE81"/>
<path fill-rule="evenodd" clip-rule="evenodd" d="M76.6799 415.021H81.1412L82.9058 360.18L79.5451 308.42C79.5577 307.369 78.8539 306.44 77.8265 306.151L75.8926 305.608C75.8926 305.608 80.0915 346.713 80.0915 355.052C80.0915 378.636 76.6799 415.021 76.6799 415.021Z" fill="white" fill-opacity="0.2"/>
<path fill-rule="evenodd" clip-rule="evenodd" d="M26.4758 276.647C26.4758 276.647 36.0038 262.772 58.5726 276.706C81.307 290.743 79.7285 309.157 79.7285 309.157L72.4634 309.901C72.4634 309.901 54.0218 315.45 42.8332 300.87C31.6446 286.29 31.5131 278.408 26.4758 276.647Z" fill="#B7EE81"/>
<path fill-rule="evenodd" clip-rule="evenodd" d="M26.4758 276.647C26.4758 276.647 36.0038 262.772 58.5726 276.706C81.307 290.743 79.7285 309.157 79.7285 309.157L72.4634 309.901C72.4634 309.901 54.0218 315.45 42.8332 300.87C31.6446 286.29 31.5131 278.408 26.4758 276.647Z" fill="white" fill-opacity="0.2"/>
<path fill-rule="evenodd" clip-rule="evenodd" d="M26.4758 276.647C26.4758 276.647 36.7326 269.212 45.4512 279.802C49.9125 285.221 57.8053 289.307 61.1969 292.447C70.0074 300.603 76.2272 309.52 76.2272 309.52L72.4634 309.901C72.4634 309.901 54.0218 315.45 42.8332 300.87C31.6446 286.29 31.5131 278.408 26.4758 276.647Z" fill="#B7EE81"/>
<path fill-rule="evenodd" clip-rule="evenodd" d="M26.4758 276.647C26.4758 276.647 36.7326 269.212 45.4512 279.802C49.9125 285.221 57.8053 289.307 61.1969 292.447C70.0074 300.603 76.2272 309.52 76.2272 309.52L72.4634 309.901C72.4634 309.901 54.0218 315.45 42.8332 300.87C31.6446 286.29 31.5131 278.408 26.4758 276.647Z" fill="black" fill-opacity="0.2"/>
<path fill-rule="evenodd" clip-rule="evenodd" d="M93.2045 487.275H50.5572C47.0787 487.275 44.2478 484.502 44.2478 481.082L34.3648 421.214C34.3648 417.794 37.1846 415.021 40.6631 415.021H101.546C105.025 415.021 107.845 417.794 107.845 421.214L99.6368 481.082C99.6368 484.502 96.683 487.275 93.2045 487.275Z" fill="#1443BD"/>
<path fill-rule="evenodd" clip-rule="evenodd" d="M93.2045 487.275H50.5572C47.0787 487.275 44.2478 484.502 44.2478 481.082L34.3648 421.214C34.3648 417.794 37.1846 415.021 40.6631 415.021H101.546C105.025 415.021 107.845 417.794 107.845 421.214L99.6368 481.082C99.6368 484.502 96.683 487.275 93.2045 487.275Z" fill="black" fill-opacity="0.2"/>
<path fill-rule="evenodd" clip-rule="evenodd" d="M197.41 365.061C197.41 371.768 191.881 377.205 185.061 377.205C178.241 377.205 172.711 371.768 172.711 365.061C172.711 358.355 178.241 352.918 185.061 352.918C191.881 352.918 197.41 358.355 197.41 365.061Z" fill="#1443BD"/>
<path fill-rule="evenodd" clip-rule="evenodd" d="M197.41 365.061C197.41 371.768 191.881 377.205 185.061 377.205C178.241 377.205 172.711 371.768 172.711 365.061C172.711 358.355 178.241 352.918 185.061 352.918C191.881 352.918 197.41 358.355 197.41 365.061Z" fill="black" fill-opacity="0.5"/>
<path fill-rule="evenodd" clip-rule="evenodd" d="M182.743 474.351H187.524V368.688H182.743V474.351Z" fill="#1443BD"/>
<path fill-rule="evenodd" clip-rule="evenodd" d="M182.743 474.351H187.524V368.688H182.743V474.351Z" fill="black" fill-opacity="0.5"/>
<path fill-rule="evenodd" clip-rule="evenodd" d="M182.743 474.351L127.068 483.469L123.475 480.918L182.744 463.752L182.743 474.351Z" fill="#1443BD"/>
<path fill-rule="evenodd" clip-rule="evenodd" d="M182.743 474.351L127.068 483.469L123.475 480.918L182.744 463.752L182.743 474.351Z" fill="black" fill-opacity="0.5"/>
<path fill-rule="evenodd" clip-rule="evenodd" d="M187.524 474.351L243.199 483.469L246.792 480.918L187.524 463.752L187.524 474.351Z" fill="#1443BD"/>
<path fill-rule="evenodd" clip-rule="evenodd" d="M187.524 474.351L243.199 483.469L246.792 480.918L187.524 463.752L187.524 474.351Z" fill="black" fill-opacity="0.5"/>
<path fill-rule="evenodd" clip-rule="evenodd" d="M181.341 486.61H188.926V471.3H181.341V486.61Z" fill="#1443BD"/>
<path fill-rule="evenodd" clip-rule="evenodd" d="M181.341 486.61H188.926V471.3H181.341V486.61Z" fill="black" fill-opacity="0.5"/>
<path fill-rule="evenodd" clip-rule="evenodd" d="M132.285 486.814C132.285 490.31 129.402 493.144 125.848 493.144C122.292 493.144 119.41 490.31 119.41 486.814C119.41 483.318 122.292 480.484 125.848 480.484C129.402 480.484 132.285 483.318 132.285 486.814Z" fill="#1443BD"/>
<path fill-rule="evenodd" clip-rule="evenodd" d="M132.285 486.814C132.285 490.31 129.402 493.144 125.848 493.144C122.292 493.144 119.41 490.31 119.41 486.814C119.41 483.318 122.292 480.484 125.848 480.484C129.402 480.484 132.285 483.318 132.285 486.814Z" fill="black" fill-opacity="0.5"/>
<path fill-rule="evenodd" clip-rule="evenodd" d="M191.571 486.814C191.571 490.31 188.689 493.144 185.133 493.144C181.579 493.144 178.696 490.31 178.696 486.814C178.696 483.318 181.579 480.484 185.133 480.484C188.689 480.484 191.571 483.318 191.571 486.814Z" fill="#1443BD"/>
<path fill-rule="evenodd" clip-rule="evenodd" d="M191.571 486.814C191.571 490.31 188.689 493.144 185.133 493.144C181.579 493.144 178.696 490.31 178.696 486.814C178.696 483.318 181.579 480.484 185.133 480.484C188.689 480.484 191.571 483.318 191.571 486.814Z" fill="black" fill-opacity="0.5"/>
<path fill-rule="evenodd" clip-rule="evenodd" d="M251.421 486.814C251.421 490.31 248.539 493.144 244.983 493.144C241.429 493.144 238.546 490.31 238.546 486.814C238.546 483.318 241.429 480.484 244.983 480.484C248.539 480.484 251.421 483.318 251.421 486.814Z" fill="#1443BD"/>
<path fill-rule="evenodd" clip-rule="evenodd" d="M251.421 486.814C251.421 490.31 248.539 493.144 244.983 493.144C241.429 493.144 238.546 490.31 238.546 486.814C238.546 483.318 241.429 480.484 244.983 480.484C248.539 480.484 251.421 483.318 251.421 486.814Z" fill="black" fill-opacity="0.5"/>
<path fill-rule="evenodd" clip-rule="evenodd" d="M262.469 362.833H107.651C107.651 347.87 119.986 335.741 135.203 335.741H234.918C250.134 335.741 262.469 347.87 262.469 362.833Z" fill="#2A84C6"/>
<path fill-rule="evenodd" clip-rule="evenodd" d="M262.469 362.833H107.651C107.651 347.87 119.986 335.741 135.203 335.741H234.918C250.134 335.741 262.469 347.87 262.469 362.833Z" fill="white" fill-opacity="0.5"/>
<path fill-rule="evenodd" clip-rule="evenodd" d="M376.297 14.3173H264.657V4.95488C264.657 2.92396 266.416 1.27734 268.586 1.27734H372.368C374.538 1.27734 376.297 2.92396 376.297 4.95488V14.3173Z" fill="#1443BD"/>
<path fill-rule="evenodd" clip-rule="evenodd" d="M376.297 14.3173H264.657V4.95488C264.657 2.92396 266.416 1.27734 268.586 1.27734H372.368C374.538 1.27734 376.297 2.92396 376.297 4.95488V14.3173Z" fill="black" fill-opacity="0.5"/>
<path fill-rule="evenodd" clip-rule="evenodd" d="M372.368 109.287H268.586C266.416 109.287 264.657 107.564 264.657 105.439V13.8277H376.297V105.439C376.297 107.564 374.538 109.287 372.368 109.287Z" fill="#2A84C6"/>
<path fill-rule="evenodd" clip-rule="evenodd" d="M372.368 109.287H268.586C266.416 109.287 264.657 107.564 264.657 105.439V13.8277H376.297V105.439C376.297 107.564 374.538 109.287 372.368 109.287Z" fill="white" fill-opacity="0.85"/>
<path fill-rule="evenodd" clip-rule="evenodd" d="M273.816 7.7615C273.816 9.08211 272.723 10.1528 271.374 10.1528C270.025 10.1528 268.932 9.08211 268.932 7.7615C268.932 6.44089 270.025 5.37017 271.374 5.37017C272.723 5.37017 273.816 6.44089 273.816 7.7615Z" fill="#F56D7E"/>
<path fill-rule="evenodd" clip-rule="evenodd" d="M282.365 7.7615C282.365 9.08211 281.271 10.1528 279.922 10.1528C278.573 10.1528 277.48 9.08211 277.48 7.7615C277.48 6.44089 278.573 5.37017 279.922 5.37017C281.271 5.37017 282.365 6.44089 282.365 7.7615Z" fill="#F1F380"/>
<path fill-rule="evenodd" clip-rule="evenodd" d="M292.134 7.7615C292.134 9.08211 291.041 10.1528 289.692 10.1528C288.343 10.1528 287.25 9.08211 287.25 7.7615C287.25 6.44089 288.343 5.37017 289.692 5.37017C291.041 5.37017 292.134 6.44089 292.134 7.7615Z" fill="#B7EE81"/>
<path fill-rule="evenodd" clip-rule="evenodd" d="M292.134 7.7615C292.134 9.08211 291.041 10.1528 289.692 10.1528C288.343 10.1528 287.25 9.08211 287.25 7.7615C287.25 6.44089 288.343 5.37017 289.692 5.37017C291.041 5.37017 292.134 6.44089 292.134 7.7615Z" fill="white" fill-opacity="0.2"/>
<path fill-rule="evenodd" clip-rule="evenodd" d="M276.544 96.8375C275.869 96.8375 275.321 96.2974 275.321 95.6313V25.7058C275.321 25.0397 275.869 24.4996 276.544 24.4996H365.077C365.752 24.4996 366.3 25.0397 366.3 25.7058V95.6313C366.3 96.2974 365.752 96.8375 365.077 96.8375H276.544Z" fill="white"/>
<path d="M285 38.9999C285 36.7908 286.791 34.9999 289 34.9999H351.128C353.338 34.9999 355.128 36.7908 355.128 38.9999V40.9648C355.128 43.1739 353.338 44.9648 351.128 44.9648H289C286.791 44.9648 285 43.1739 285 40.9648V38.9999Z" fill="white"/>
<path d="M285 60.2579C285 58.0487 286.791 56.2579 289 56.2579H351.128C353.338 56.2579 355.128 58.0487 355.128 60.2579V62.2227C355.128 64.4318 353.338 66.2227 351.128 66.2227H289C286.791 66.2227 285 64.4318 285 62.2227V60.2579Z" fill="white"/>
<path d="M285 82.4985C285 79.7468 287.231 77.5161 289.982 77.5161H350.146C352.898 77.5161 355.128 79.7468 355.128 82.4985C355.128 85.2502 352.898 87.4809 350.146 87.4809H289.982C287.231 87.4809 285 85.2502 285 82.4985Z" fill="#2A84C6"/>
<path fill-rule="evenodd" clip-rule="evenodd" d="M239.506 143.282C239.506 143.282 253 142.511 255.307 156.662C267.815 162.375 263.078 175.929 263.078 175.929C263.078 175.929 268.61 187.361 255.236 191.843C253.228 202.905 240.52 199.785 240.52 199.785C240.52 199.785 236.673 208.139 227.191 203.761C215.917 210.945 196.147 207.635 189.944 197.155C175.022 206.257 151.73 191.628 155.615 182.494C139.327 180.131 132.887 162.382 143.754 148.69C137.39 136.592 146.385 130.534 146.385 130.534C146.385 130.534 146.376 103.984 165.241 102.009C176.02 88.6279 195.637 101.78 195.637 101.78C195.637 101.78 209.538 100.15 213.412 112.222C228.471 115.825 227.032 124.013 227.598 131.039C241.189 132.957 239.506 143.282 239.506 143.282Z" fill="#1443BD"/>
<path fill-rule="evenodd" clip-rule="evenodd" d="M239.506 143.282C239.506 143.282 253 142.511 255.307 156.662C267.815 162.375 263.078 175.929 263.078 175.929C263.078 175.929 268.61 187.361 255.236 191.843C253.228 202.905 240.52 199.785 240.52 199.785C240.52 199.785 236.673 208.139 227.191 203.761C215.917 210.945 196.147 207.635 189.944 197.155C175.022 206.257 151.73 191.628 155.615 182.494C139.327 180.131 132.887 162.382 143.754 148.69C137.39 136.592 146.385 130.534 146.385 130.534C146.385 130.534 146.376 103.984 165.241 102.009C176.02 88.6279 195.637 101.78 195.637 101.78C195.637 101.78 209.538 100.15 213.412 112.222C228.471 115.825 227.032 124.013 227.598 131.039C241.189 132.957 239.506 143.282 239.506 143.282Z" fill="black" fill-opacity="0.5"/>
<path fill-rule="evenodd" clip-rule="evenodd" d="M198.286 126.822C187.423 127.762 184.869 119.523 184.869 119.523C184.869 119.523 181.438 107.935 179.702 114.724C178.781 118.33 173.454 112.989 170.468 116.665C168.458 119.139 172.61 122.899 166.213 129.407C162.508 133.177 175.441 137.533 166.63 144.314C166.63 144.314 171.628 153.929 161.409 156.06L159.415 166.666C158.255 172.839 162.765 178.649 169.126 179.179C175.19 179.683 180.482 175.164 180.821 169.187L181.561 156.111C197.023 157.422 199.611 136.589 198.286 126.822Z" fill="#FFC999"/>
<path fill-rule="evenodd" clip-rule="evenodd" d="M186.881 140.512C182.407 140.558 178.491 137.99 178.491 137.99C178.491 137.99 177.325 143.72 181.055 144.408C184.677 145.075 186.881 140.512 186.881 140.512Z" fill="white"/>
<path d="M177.851 137.864L177.807 138.109C177.791 138.211 177.774 138.332 177.757 138.471C177.64 139.408 177.622 140.393 177.768 141.329C178.077 143.311 179.074 144.695 180.935 145.038C182.881 145.397 184.587 144.529 186.018 142.914C186.428 142.451 186.786 141.957 187.09 141.463C187.275 141.165 187.402 140.929 187.471 140.786C187.678 140.357 187.357 139.864 186.874 139.869C185.002 139.888 183.08 139.432 181.222 138.659C180.582 138.393 179.997 138.108 179.48 137.823L179.24 137.689C179.06 137.585 178.93 137.505 178.853 137.455C178.467 137.202 177.942 137.415 177.851 137.864ZM178.993 139.256L179.011 139.034L178.842 138.944C179.399 139.251 180.027 139.556 180.713 139.842L181.09 139.995C182.468 140.536 183.88 140.913 185.296 141.071L185.768 141.114L185.629 141.317C185.446 141.575 185.247 141.828 185.033 142.07C183.875 143.377 182.582 144.035 181.175 143.776C179.953 143.55 179.293 142.633 179.059 141.135C178.965 140.532 178.951 139.89 178.993 139.256Z" fill="#F56D7E"/>
<path d="M183.642 137.43C183.858 137.425 184.215 137.38 184.716 137.258C185.484 137.071 186.384 136.751 187.418 136.267L187.601 136.18L187.448 135.897C186.744 134.566 186.265 133.268 185.976 132.026L185.903 131.688C185.705 130.729 185.642 129.922 185.661 129.304L185.677 129.016C185.678 129.003 185.679 128.991 185.68 128.982C185.71 128.717 185.953 128.527 186.222 128.557C186.464 128.584 186.644 128.779 186.656 129.011L186.647 129.18C186.614 129.739 186.663 130.526 186.863 131.497C187.165 132.965 187.755 134.529 188.703 136.145C188.843 136.383 188.752 136.688 188.503 136.814C187.131 137.507 185.948 137.951 184.951 138.193C184.373 138.333 183.937 138.389 183.641 138.393L183.509 138.391C183.239 138.375 183.034 138.146 183.051 137.881C183.066 137.642 183.256 137.454 183.49 137.431L183.568 137.429L183.642 137.43Z" fill="#DD936F"/>
<path d="M176.192 125.11C178.19 125.28 179.464 127.732 179.22 130.506C179.19 130.846 178.885 131.098 178.539 131.069C178.193 131.04 177.936 130.74 177.966 130.399C178.157 128.22 177.233 126.441 176.084 126.343C174.936 126.247 173.716 127.844 173.524 130.022C173.494 130.363 173.188 130.615 172.842 130.586C172.496 130.556 172.239 130.256 172.269 129.915C172.508 127.212 174.112 125.052 176.042 125.101L176.192 125.11Z" fill="#1443BD"/>
<path d="M176.192 125.11C178.19 125.28 179.464 127.732 179.22 130.506C179.19 130.846 178.885 131.098 178.539 131.069C178.193 131.04 177.936 130.74 177.966 130.399C178.157 128.22 177.233 126.441 176.084 126.343C174.936 126.247 173.716 127.844 173.524 130.022C173.494 130.363 173.188 130.615 172.842 130.586C172.496 130.556 172.239 130.256 172.269 129.915C172.508 127.212 174.112 125.052 176.042 125.101L176.192 125.11Z" fill="black" fill-opacity="0.5"/>
<path d="M193.104 128.064C195.102 128.233 196.375 130.686 196.132 133.459C196.102 133.8 195.797 134.052 195.451 134.023C195.104 133.993 194.848 133.693 194.878 133.353C195.069 131.174 194.145 129.395 192.996 129.298C191.847 129.201 190.628 130.797 190.436 132.976C190.407 133.316 190.102 133.569 189.755 133.539C189.409 133.51 189.152 133.21 189.182 132.869C189.419 130.165 191.023 128.006 192.955 128.056L193.104 128.064Z" fill="#1443BD"/>
<path d="M193.104 128.064C195.102 128.233 196.375 130.686 196.132 133.459C196.102 133.8 195.797 134.052 195.451 134.023C195.104 133.993 194.848 133.693 194.878 133.353C195.069 131.174 194.145 129.395 192.996 129.298C191.847 129.201 190.628 130.797 190.436 132.976C190.407 133.316 190.102 133.569 189.755 133.539C189.409 133.51 189.152 133.21 189.182 132.869C189.419 130.165 191.023 128.006 192.955 128.056L193.104 128.064Z" fill="black" fill-opacity="0.5"/>
<path d="M171.43 119.304C174.413 117.806 177.256 117.751 179.708 118.564C180.293 118.757 180.716 118.955 180.957 119.096C181.271 119.28 181.374 119.68 181.187 119.989C181 120.298 180.593 120.399 180.279 120.215L180.217 120.181C180.175 120.159 180.116 120.13 180.042 120.096C179.827 119.995 179.573 119.894 179.285 119.798C177.15 119.091 174.672 119.138 172.033 120.464C171.707 120.628 171.308 120.501 171.142 120.18C170.975 119.86 171.104 119.467 171.43 119.304Z" fill="#1443BD"/>
<path d="M171.43 119.304C174.413 117.806 177.256 117.751 179.708 118.564C180.293 118.757 180.716 118.955 180.957 119.096C181.271 119.28 181.374 119.68 181.187 119.989C181 120.298 180.593 120.399 180.279 120.215L180.217 120.181C180.175 120.159 180.116 120.13 180.042 120.096C179.827 119.995 179.573 119.894 179.285 119.798C177.15 119.091 174.672 119.138 172.033 120.464C171.707 120.628 171.308 120.501 171.142 120.18C170.975 119.86 171.104 119.467 171.43 119.304Z" fill="black" fill-opacity="0.5"/>
<path d="M171.886 152.682C172.035 152.46 172.339 152.399 172.565 152.546C175.424 154.406 178.464 155.477 181.582 155.784C181.852 155.81 182.048 156.046 182.021 156.311C181.994 156.575 181.754 156.769 181.485 156.742C178.207 156.42 175.015 155.295 172.024 153.35C171.799 153.203 171.737 152.904 171.886 152.682Z" fill="#DD936F"/>
<path fill-rule="evenodd" clip-rule="evenodd" d="M235.511 257.645L236.321 257.207C242.37 253.938 244.579 246.467 241.255 240.52L210.464 185.428C207.138 179.479 199.541 177.308 193.493 180.577L192.683 181.014C186.635 184.284 184.426 191.753 187.75 197.702L218.542 252.794C221.867 258.741 229.463 260.913 235.511 257.645Z" fill="#FFC999"/>
<path fill-rule="evenodd" clip-rule="evenodd" d="M200.77 220.997L187.533 197.313C184.344 191.604 186.842 184.171 193.088 180.795C199.335 177.421 207.056 179.33 210.247 185.039L223.357 208.498L200.77 220.997Z" fill="#1443BD"/>
<path fill-rule="evenodd" clip-rule="evenodd" d="M200.77 220.997L187.533 197.313C184.344 191.604 186.842 184.171 193.088 180.795C199.335 177.421 207.056 179.33 210.247 185.039L223.357 208.498L200.77 220.997Z" fill="white" fill-opacity="0.35"/>
<path d="M192.577 180.645C192.761 180.545 192.993 180.611 193.094 180.792C193.195 180.973 193.128 181.201 192.944 181.301C186.961 184.534 184.52 191.589 187.413 197.079L187.539 197.31L200.59 220.662L222.843 208.35C223.005 208.259 223.207 208.3 223.322 208.436L223.361 208.492C223.453 208.652 223.411 208.85 223.273 208.964L223.216 209.002L200.629 221.5C200.465 221.591 200.262 221.549 200.148 221.411L200.109 221.355L186.872 197.671C183.577 191.775 186.152 184.117 192.577 180.645Z" fill="#2A84C6"/>
<path d="M192.577 180.645C192.761 180.545 192.993 180.611 193.094 180.792C193.195 180.973 193.128 181.201 192.944 181.301C186.961 184.534 184.52 191.589 187.413 197.079L187.539 197.31L200.59 220.662L222.843 208.35C223.005 208.259 223.207 208.3 223.322 208.436L223.361 208.492C223.453 208.652 223.411 208.85 223.273 208.964L223.216 209.002L200.629 221.5C200.465 221.591 200.262 221.549 200.148 221.411L200.109 221.355L186.872 197.671C183.577 191.775 186.152 184.117 192.577 180.645Z" fill="black" fill-opacity="0.2"/>
<path fill-rule="evenodd" clip-rule="evenodd" d="M212.861 440.133C217.944 442.054 223.679 439.646 225.854 434.675L272.373 328.372C275.724 320.713 271.994 311.875 264.162 308.914C256.331 305.955 247.54 310.059 244.811 317.953L206.932 427.522C205.162 432.645 207.778 438.211 212.861 440.133Z" fill="#FFC999"/>
<path fill-rule="evenodd" clip-rule="evenodd" d="M144.595 305.592C147.866 295.878 156.925 290.163 164.656 292.935L247.77 322.753C254.172 325.05 257.12 333.303 254.411 341.347C251.704 349.391 244.327 354.284 237.798 352.369L153.01 327.52C145.125 325.208 141.324 315.305 144.595 305.592Z" fill="#FFC999"/>
<path fill-rule="evenodd" clip-rule="evenodd" d="M222.099 444.343L203.268 437.879L212.604 408.228L234.224 415.647L222.099 444.343Z" fill="#1443BD"/>
<path fill-rule="evenodd" clip-rule="evenodd" d="M222.099 444.343L203.268 437.879L212.604 408.228L234.224 415.647L222.099 444.343Z" fill="white" fill-opacity="0.35"/>
<path d="M211.341 414.349C211.45 414.041 211.773 413.866 212.089 413.93L212.175 413.953L232.133 420.804C232.475 420.921 232.655 421.288 232.536 421.624C232.427 421.932 232.104 422.106 231.787 422.043L231.702 422.02L211.743 415.169C211.402 415.052 211.222 414.685 211.341 414.349Z" fill="#2A84C6"/>
<path d="M211.341 414.349C211.45 414.041 211.773 413.866 212.089 413.93L212.175 413.953L232.133 420.804C232.475 420.921 232.655 421.288 232.536 421.624C232.427 421.932 232.104 422.106 231.787 422.043L231.702 422.02L211.743 415.169C211.402 415.052 211.222 414.685 211.341 414.349Z" fill="white" fill-opacity="0.85"/>
<path fill-rule="evenodd" clip-rule="evenodd" d="M226.234 437.841L205.531 430.735L191.248 467.667L237.898 483.677L240.044 477.991C240.825 475.899 239.97 473.556 238.011 472.431L226.9 464.6L221.801 458.854C220.265 457.124 219.82 454.71 220.648 452.563C222.427 447.945 225.433 440.112 226.234 437.841Z" fill="#2A84C6"/>
<path fill-rule="evenodd" clip-rule="evenodd" d="M226.234 437.841L205.531 430.735L191.248 467.667L237.898 483.677L240.044 477.991C240.825 475.899 239.97 473.556 238.011 472.431L226.9 464.6L221.801 458.854C220.265 457.124 219.82 454.71 220.648 452.563C222.427 447.945 225.433 440.112 226.234 437.841Z" fill="black" fill-opacity="0.2"/>
<path fill-rule="evenodd" clip-rule="evenodd" d="M191.267 469.037L237.774 484.998C238.216 485.15 238.698 484.921 238.85 484.487L240.672 479.359C240.826 478.925 240.594 478.451 240.152 478.3L193.645 462.339C193.204 462.188 192.722 462.416 192.568 462.849L190.748 467.979C190.594 468.412 190.827 468.886 191.267 469.037Z" fill="#2A84C6"/>
<path fill-rule="evenodd" clip-rule="evenodd" d="M191.267 469.037L237.774 484.998C238.216 485.15 238.698 484.921 238.85 484.487L240.672 479.359C240.826 478.925 240.594 478.451 240.152 478.3L193.645 462.339C193.204 462.188 192.722 462.416 192.568 462.849L190.748 467.979C190.594 468.412 190.827 468.886 191.267 469.037Z" fill="white" fill-opacity="0.85"/>
<path fill-rule="evenodd" clip-rule="evenodd" d="M240.152 478.3C241.299 475.067 239.892 471.494 236.83 469.865L226.906 464.583L223.347 472.406L240.152 478.3Z" fill="#2A84C6"/>
<path fill-rule="evenodd" clip-rule="evenodd" d="M240.152 478.3C241.299 475.067 239.892 471.494 236.83 469.865L226.906 464.583L223.347 472.406L240.152 478.3Z" fill="white" fill-opacity="0.85"/>
<path d="M193.328 462.229C193.381 462.079 193.534 461.99 193.689 462.011L193.755 462.026L240.262 477.988C240.437 478.048 240.529 478.236 240.468 478.408C240.415 478.558 240.262 478.646 240.107 478.626L240.041 478.61L193.534 462.649C193.359 462.589 193.267 462.401 193.328 462.229Z" fill="#2A84C6"/>
<path d="M193.328 462.229C193.381 462.079 193.534 461.99 193.689 462.011L193.755 462.026L240.262 477.988C240.437 478.048 240.529 478.236 240.468 478.408C240.415 478.558 240.262 478.646 240.107 478.626L240.041 478.61L193.534 462.649C193.359 462.589 193.267 462.401 193.328 462.229Z" fill="white" fill-opacity="0.5"/>
<path d="M216.078 451.005C217.617 450.532 219.22 450.427 220.63 450.528L220.812 450.543C220.891 450.55 220.953 450.556 220.995 450.562C221.363 450.608 221.622 450.939 221.574 451.3C221.527 451.661 221.191 451.916 220.824 451.87L220.533 451.843C219.381 451.761 218.071 451.833 216.819 452.166L216.479 452.264L216.274 452.331L216.434 452.414C216.66 452.533 216.899 452.663 217.148 452.804L217.401 452.948L217.878 453.227C217.959 453.275 218.04 453.323 218.123 453.373C218.765 453.759 219.419 454.173 220.05 454.586L220.879 455.14C221.362 455.471 221.208 456.209 220.632 456.326L220.479 456.362C220.431 456.374 220.376 456.389 220.312 456.407C220.038 456.482 219.728 456.58 219.39 456.703C218.906 456.88 218.415 457.09 217.926 457.334L217.744 457.427L217.935 457.496L218.298 457.634C219.066 457.934 219.871 458.304 220.7 458.727C221.511 459.141 222.302 459.584 223.04 460.028L223.579 460.357L223.998 460.623C224.579 461.006 224.248 461.877 223.587 461.83L223.345 461.8C222.358 461.7 221.189 461.857 220.086 462.474C219.893 462.583 219.705 462.704 219.523 462.839C219.228 463.058 218.807 463.001 218.584 462.71C218.361 462.42 218.419 462.006 218.715 461.787C218.943 461.617 219.179 461.465 219.423 461.328C220.027 460.99 220.642 460.763 221.246 460.625L221.382 460.596L221.237 460.514C221.048 460.409 220.857 460.305 220.665 460.202L220.082 459.897C219.29 459.493 218.524 459.142 217.802 458.859C217.128 458.595 216.506 458.396 215.946 458.269C215.373 458.14 215.234 457.402 215.722 457.08C216.641 456.472 217.589 455.99 218.524 455.619L218.954 455.456L218.683 455.28C218.473 455.146 218.262 455.013 218.052 454.883L217.423 454.497L216.953 454.218L216.724 454.086C215.767 453.536 214.977 453.142 214.434 452.955C213.895 452.77 213.823 452.05 214.315 451.765C214.856 451.451 215.447 451.2 216.078 451.005Z" fill="#2A84C6"/>
<path d="M216.078 451.005C217.617 450.532 219.22 450.427 220.63 450.528L220.812 450.543C220.891 450.55 220.953 450.556 220.995 450.562C221.363 450.608 221.622 450.939 221.574 451.3C221.527 451.661 221.191 451.916 220.824 451.87L220.533 451.843C219.381 451.761 218.071 451.833 216.819 452.166L216.479 452.264L216.274 452.331L216.434 452.414C216.66 452.533 216.899 452.663 217.148 452.804L217.401 452.948L217.878 453.227C217.959 453.275 218.04 453.323 218.123 453.373C218.765 453.759 219.419 454.173 220.05 454.586L220.879 455.14C221.362 455.471 221.208 456.209 220.632 456.326L220.479 456.362C220.431 456.374 220.376 456.389 220.312 456.407C220.038 456.482 219.728 456.58 219.39 456.703C218.906 456.88 218.415 457.09 217.926 457.334L217.744 457.427L217.935 457.496L218.298 457.634C219.066 457.934 219.871 458.304 220.7 458.727C221.511 459.141 222.302 459.584 223.04 460.028L223.579 460.357L223.998 460.623C224.579 461.006 224.248 461.877 223.587 461.83L223.345 461.8C222.358 461.7 221.189 461.857 220.086 462.474C219.893 462.583 219.705 462.704 219.523 462.839C219.228 463.058 218.807 463.001 218.584 462.71C218.361 462.42 218.419 462.006 218.715 461.787C218.943 461.617 219.179 461.465 219.423 461.328C220.027 460.99 220.642 460.763 221.246 460.625L221.382 460.596L221.237 460.514C221.048 460.409 220.857 460.305 220.665 460.202L220.082 459.897C219.29 459.493 218.524 459.142 217.802 458.859C217.128 458.595 216.506 458.396 215.946 458.269C215.373 458.14 215.234 457.402 215.722 457.08C216.641 456.472 217.589 455.99 218.524 455.619L218.954 455.456L218.683 455.28C218.473 455.146 218.262 455.013 218.052 454.883L217.423 454.497L216.953 454.218L216.724 454.086C215.767 453.536 214.977 453.142 214.434 452.955C213.895 452.77 213.823 452.05 214.315 451.765C214.856 451.451 215.447 451.2 216.078 451.005Z" fill="white" fill-opacity="0.85"/>
<path d="M214.33 443.715C210.683 443.852 207.884 445.125 206.372 447.84C205.301 449.765 205.751 451.159 207.518 451.58C208.751 451.873 210.629 451.696 213.064 451.155C214.733 450.784 216.582 450.259 218.5 449.637L219.689 449.243C220.752 448.882 221.619 448.567 222.194 448.348C222.347 448.314 222.666 448.205 222.994 448.037C223.499 447.779 223.869 447.456 224.023 447.002C224.233 446.383 223.953 445.77 223.279 445.229C223.221 445.182 223.155 445.145 223.085 445.12L222.761 445.011C222.655 444.976 222.532 444.937 222.391 444.895C221.849 444.729 221.244 444.564 220.589 444.409C218.472 443.911 216.337 443.639 214.33 443.715ZM214.381 445.033C216.25 444.962 218.269 445.219 220.277 445.692C220.902 445.839 221.479 445.996 221.993 446.154L222.516 446.321L222.574 446.371C222.73 446.512 222.755 446.571 222.751 446.584C222.733 446.636 222.6 446.752 222.375 446.868C222.153 446.981 221.922 447.06 221.784 447.095L221.178 447.319C220.514 447.561 219.681 447.855 218.712 448.178C216.606 448.878 214.571 449.469 212.769 449.869C210.525 450.368 208.806 450.529 207.833 450.298C207.001 450.1 206.87 449.693 207.549 448.473C208.799 446.228 211.161 445.154 214.381 445.033Z" fill="#2A84C6"/>
<path d="M214.33 443.715C210.683 443.852 207.884 445.125 206.372 447.84C205.301 449.765 205.751 451.159 207.518 451.58C208.751 451.873 210.629 451.696 213.064 451.155C214.733 450.784 216.582 450.259 218.5 449.637L219.689 449.243C220.752 448.882 221.619 448.567 222.194 448.348C222.347 448.314 222.666 448.205 222.994 448.037C223.499 447.779 223.869 447.456 224.023 447.002C224.233 446.383 223.953 445.77 223.279 445.229C223.221 445.182 223.155 445.145 223.085 445.12L222.761 445.011C222.655 444.976 222.532 444.937 222.391 444.895C221.849 444.729 221.244 444.564 220.589 444.409C218.472 443.911 216.337 443.639 214.33 443.715ZM214.381 445.033C216.25 444.962 218.269 445.219 220.277 445.692C220.902 445.839 221.479 445.996 221.993 446.154L222.516 446.321L222.574 446.371C222.73 446.512 222.755 446.571 222.751 446.584C222.733 446.636 222.6 446.752 222.375 446.868C222.153 446.981 221.922 447.06 221.784 447.095L221.178 447.319C220.514 447.561 219.681 447.855 218.712 448.178C216.606 448.878 214.571 449.469 212.769 449.869C210.525 450.368 208.806 450.529 207.833 450.298C207.001 450.1 206.87 449.693 207.549 448.473C208.799 446.228 211.161 445.154 214.381 445.033Z" fill="white" fill-opacity="0.85"/>
<path fill-rule="evenodd" clip-rule="evenodd" d="M334.281 441.549C339.348 439.588 341.919 434.001 340.107 428.892L301.331 319.626C298.539 311.755 289.714 307.719 281.907 310.742C274.099 313.763 270.443 322.632 273.856 330.263L321.245 436.195C323.46 441.147 329.215 443.511 334.281 441.549Z" fill="#FFC999"/>
<path fill-rule="evenodd" clip-rule="evenodd" d="M189.393 314.458C190.519 304.286 198.158 296.828 206.308 297.945L293.935 309.951C300.685 310.875 305.327 318.337 304.396 326.761C303.463 335.185 297.296 341.49 290.503 340.966L202.301 334.162C194.097 333.528 188.268 324.631 189.393 314.458Z" fill="#FFC999"/>
<path fill-rule="evenodd" clip-rule="evenodd" d="M343.983 438.513L325.661 446.264L312.163 418.204L333.197 409.306L343.983 438.513Z" fill="#1443BD"/>
<path fill-rule="evenodd" clip-rule="evenodd" d="M343.983 438.513L325.661 446.264L312.163 418.204L333.197 409.306L343.983 438.513Z" fill="white" fill-opacity="0.35"/>
<path d="M335.2 414.494C335.532 414.354 335.918 414.504 336.061 414.831C336.192 415.131 336.074 415.474 335.797 415.637L335.718 415.677L316.299 423.893C315.966 424.034 315.581 423.883 315.438 423.556C315.307 423.256 315.425 422.913 315.701 422.75L315.781 422.71L335.2 414.494Z" fill="#2A84C6"/>
<path d="M335.2 414.494C335.532 414.354 335.918 414.504 336.061 414.831C336.192 415.131 336.074 415.474 335.797 415.637L335.718 415.677L316.299 423.893C315.966 424.034 315.581 423.883 315.438 423.556C315.307 423.256 315.425 422.913 315.701 422.75L315.781 422.71L335.2 414.494Z" fill="white" fill-opacity="0.85"/>
<path fill-rule="evenodd" clip-rule="evenodd" d="M342.561 430.972L322.419 439.493L337.274 476.205L382.661 457.004L380.336 451.388C379.474 449.326 377.233 448.167 375.018 448.64L361.444 450.253L353.738 449.406C351.416 449.151 349.428 447.668 348.563 445.535C346.701 440.949 343.533 433.178 342.561 430.972Z" fill="#2A84C6"/>
<path fill-rule="evenodd" clip-rule="evenodd" d="M342.561 430.972L322.419 439.493L337.274 476.205L382.661 457.004L380.336 451.388C379.474 449.326 377.233 448.167 375.018 448.64L361.444 450.253L353.738 449.406C351.416 449.151 349.428 447.668 348.563 445.535C346.701 440.949 343.533 433.178 342.561 430.972Z" fill="black" fill-opacity="0.2"/>
<path fill-rule="evenodd" clip-rule="evenodd" d="M338.23 477.204L383.479 458.061C383.907 457.881 384.106 457.391 383.922 456.97L381.738 451.98C381.555 451.557 381.057 451.363 380.627 451.544L335.379 470.687C334.949 470.869 334.752 471.357 334.937 471.78L337.118 476.77C337.305 477.191 337.801 477.385 338.23 477.204Z" fill="#2A84C6"/>
<path fill-rule="evenodd" clip-rule="evenodd" d="M338.23 477.204L383.479 458.061C383.907 457.881 384.106 457.391 383.922 456.97L381.738 451.98C381.555 451.557 381.057 451.363 380.627 451.544L335.379 470.687C334.949 470.869 334.752 471.357 334.937 471.78L337.118 476.77C337.305 477.191 337.801 477.385 338.23 477.204Z" fill="white" fill-opacity="0.85"/>
<path fill-rule="evenodd" clip-rule="evenodd" d="M380.627 451.544C379.251 448.399 375.758 446.701 372.381 447.535L361.437 450.236L364.191 458.367L380.627 451.544Z" fill="#2A84C6"/>
<path fill-rule="evenodd" clip-rule="evenodd" d="M380.627 451.544C379.251 448.399 375.758 446.701 372.381 447.535L361.437 450.236L364.191 458.367L380.627 451.544Z" fill="white" fill-opacity="0.85"/>
<path d="M380.495 451.24C380.665 451.168 380.862 451.245 380.936 451.413C381 451.559 380.947 451.726 380.819 451.813L380.76 451.846L335.512 470.989C335.342 471.061 335.145 470.983 335.072 470.816C335.007 470.67 335.06 470.503 335.188 470.415L335.247 470.383L380.495 451.24Z" fill="#2A84C6"/>
<path d="M380.495 451.24C380.665 451.168 380.862 451.245 380.936 451.413C381 451.559 380.947 451.726 380.819 451.813L380.76 451.846L335.512 470.989C335.342 471.061 335.145 470.983 335.072 470.816C335.007 470.67 335.06 470.503 335.188 470.415L335.247 470.383L380.495 451.24Z" fill="white" fill-opacity="0.5"/>
<path d="M347.445 443.829C347.747 443.619 348.165 443.691 348.379 443.988C348.592 444.286 348.52 444.697 348.217 444.907L348.099 444.993C347.982 445.08 347.82 445.208 347.626 445.373C347.169 445.761 346.712 446.207 346.286 446.702C345.864 447.192 345.5 447.699 345.207 448.219L345.178 448.272L345.385 448.219C345.723 448.134 346.091 448.05 346.485 447.967L346.786 447.905C347.397 447.781 348.04 447.664 348.69 447.557L349.566 447.418L350.506 447.282C351.089 447.205 351.482 447.851 351.139 448.321L351.034 448.474C350.975 448.563 350.902 448.68 350.816 448.824C350.562 449.252 350.307 449.745 350.068 450.296C350.009 450.432 349.952 450.57 349.897 450.709L349.768 451.05L349.961 450.972C350.318 450.831 350.694 450.695 351.089 450.563L351.491 450.434C352.604 450.084 353.793 449.788 354.981 449.543C355.188 449.501 355.389 449.461 355.58 449.425L356.44 449.272C356.495 449.263 356.539 449.256 356.572 449.251C357.262 449.146 357.617 450.005 357.102 450.411L356.952 450.513C356.888 450.558 356.8 450.625 356.693 450.713C356.417 450.94 356.14 451.215 355.882 451.536C355.345 452.203 354.963 452.976 354.798 453.858C354.731 454.216 354.381 454.453 354.017 454.387C353.653 454.321 353.412 453.978 353.479 453.62C353.651 452.697 354.012 451.871 354.513 451.143L354.639 450.966L354.112 451.086C353.544 451.221 352.982 451.367 352.438 451.527L351.899 451.69C350.758 452.049 349.78 452.443 349.02 452.868C348.509 453.153 347.899 452.701 348.037 452.139C348.24 451.313 348.512 450.524 348.834 449.779C348.939 449.538 349.047 449.306 349.156 449.084L349.304 448.793L348.914 448.857C348.49 448.927 348.07 449.001 347.661 449.078L347.057 449.196L346.503 449.313C345.523 449.527 344.747 449.745 344.253 449.954C343.728 450.176 343.18 449.693 343.347 449.156C343.711 447.981 344.38 446.876 345.262 445.85C345.736 445.299 346.243 444.806 346.75 444.375L346.996 444.17C347.187 444.016 347.34 443.901 347.445 443.829Z" fill="#2A84C6"/>
<path d="M347.445 443.829C347.747 443.619 348.165 443.691 348.379 443.988C348.592 444.286 348.52 444.697 348.217 444.907L348.099 444.993C347.982 445.08 347.82 445.208 347.626 445.373C347.169 445.761 346.712 446.207 346.286 446.702C345.864 447.192 345.5 447.699 345.207 448.219L345.178 448.272L345.385 448.219C345.723 448.134 346.091 448.05 346.485 447.967L346.786 447.905C347.397 447.781 348.04 447.664 348.69 447.557L349.566 447.418L350.506 447.282C351.089 447.205 351.482 447.851 351.139 448.321L351.034 448.474C350.975 448.563 350.902 448.68 350.816 448.824C350.562 449.252 350.307 449.745 350.068 450.296C350.009 450.432 349.952 450.57 349.897 450.709L349.768 451.05L349.961 450.972C350.318 450.831 350.694 450.695 351.089 450.563L351.491 450.434C352.604 450.084 353.793 449.788 354.981 449.543C355.188 449.501 355.389 449.461 355.58 449.425L356.44 449.272C356.495 449.263 356.539 449.256 356.572 449.251C357.262 449.146 357.617 450.005 357.102 450.411L356.952 450.513C356.888 450.558 356.8 450.625 356.693 450.713C356.417 450.94 356.14 451.215 355.882 451.536C355.345 452.203 354.963 452.976 354.798 453.858C354.731 454.216 354.381 454.453 354.017 454.387C353.653 454.321 353.412 453.978 353.479 453.62C353.651 452.697 354.012 451.871 354.513 451.143L354.639 450.966L354.112 451.086C353.544 451.221 352.982 451.367 352.438 451.527L351.899 451.69C350.758 452.049 349.78 452.443 349.02 452.868C348.509 453.153 347.899 452.701 348.037 452.139C348.24 451.313 348.512 450.524 348.834 449.779C348.939 449.538 349.047 449.306 349.156 449.084L349.304 448.793L348.914 448.857C348.49 448.927 348.07 449.001 347.661 449.078L347.057 449.196L346.503 449.313C345.523 449.527 344.747 449.745 344.253 449.954C343.728 450.176 343.18 449.693 343.347 449.156C343.711 447.981 344.38 446.876 345.262 445.85C345.736 445.299 346.243 444.806 346.75 444.375L346.996 444.17C347.187 444.016 347.34 443.901 347.445 443.829Z" fill="white" fill-opacity="0.85"/>
<path d="M345.46 438.382C345.386 438.386 345.312 438.402 345.243 438.43L344.882 438.586L344.778 438.633C344.418 438.796 344.017 438.988 343.587 439.209C342.356 439.841 341.125 440.578 339.973 441.416C335.956 444.339 333.843 447.737 334.794 451.541C335.27 453.445 336.349 454.263 337.774 453.735C338.787 453.36 339.91 452.298 341.185 450.65C341.878 449.755 342.602 448.699 343.348 447.516C344.192 446.177 345.02 444.745 345.798 443.314L346.112 442.73C346.263 442.448 346.404 442.18 346.534 441.929L346.805 441.4L346.851 441.33C346.901 441.248 346.976 441.11 347.051 440.951C347.168 440.699 347.258 440.448 347.308 440.2C347.531 439.096 346.874 438.301 345.46 438.382ZM345.993 439.944C345.966 440.078 345.91 440.234 345.833 440.398L345.746 440.571C345.704 440.649 345.667 440.71 345.641 440.75L345.339 441.331C345.126 441.741 344.884 442.199 344.616 442.692C343.85 444.101 343.036 445.509 342.208 446.821C341.483 447.972 340.782 448.993 340.118 449.851C338.987 451.313 338.007 452.24 337.301 452.501C336.746 452.707 336.401 452.445 336.096 451.226C335.307 448.067 337.14 445.117 340.771 442.476C341.862 441.683 343.035 440.98 344.207 440.378C344.535 440.21 344.845 440.059 345.13 439.927L345.652 439.691L345.717 439.688C346.051 439.673 346.042 439.702 345.993 439.944Z" fill="#2A84C6"/>
<path d="M345.46 438.382C345.386 438.386 345.312 438.402 345.243 438.43L344.882 438.586L344.778 438.633C344.418 438.796 344.017 438.988 343.587 439.209C342.356 439.841 341.125 440.578 339.973 441.416C335.956 444.339 333.843 447.737 334.794 451.541C335.27 453.445 336.349 454.263 337.774 453.735C338.787 453.36 339.91 452.298 341.185 450.65C341.878 449.755 342.602 448.699 343.348 447.516C344.192 446.177 345.02 444.745 345.798 443.314L346.112 442.73C346.263 442.448 346.404 442.18 346.534 441.929L346.805 441.4L346.851 441.33C346.901 441.248 346.976 441.11 347.051 440.951C347.168 440.699 347.258 440.448 347.308 440.2C347.531 439.096 346.874 438.301 345.46 438.382ZM345.993 439.944C345.966 440.078 345.91 440.234 345.833 440.398L345.746 440.571C345.704 440.649 345.667 440.71 345.641 440.75L345.339 441.331C345.126 441.741 344.884 442.199 344.616 442.692C343.85 444.101 343.036 445.509 342.208 446.821C341.483 447.972 340.782 448.993 340.118 449.851C338.987 451.313 338.007 452.24 337.301 452.501C336.746 452.707 336.401 452.445 336.096 451.226C335.307 448.067 337.14 445.117 340.771 442.476C341.862 441.683 343.035 440.98 344.207 440.378C344.535 440.21 344.845 440.059 345.13 439.927L345.652 439.691L345.717 439.688C346.051 439.673 346.042 439.702 345.993 439.944Z" fill="white" fill-opacity="0.85"/>
<path fill-rule="evenodd" clip-rule="evenodd" d="M203.547 195.155C205.879 200.875 210.234 210.735 210.518 217.126C210.979 227.484 203.768 234.828 203.768 234.828C203.768 234.828 203.895 236.994 205.061 258.537C173.516 262.423 150.755 259.454 150.755 259.454L151.618 248.613L147.374 231.628C147.374 231.628 147.08 225.082 141.434 210.868C137.507 200.986 139.118 189.403 140.036 183.023C140.427 180.289 138.027 176.764 140.765 176.147C150.325 173.995 155.173 175.167 155.173 175.167L156.367 169.093C156.572 168.053 157.523 167.318 158.6 167.37L181.59 168.479C182.577 168.526 183.407 169.226 183.605 170.178L184.95 175.499L200.432 178.464C202.645 179.003 204.24 180.899 204.361 183.137L203.547 195.155Z" fill="#1443BD"/>
<path fill-rule="evenodd" clip-rule="evenodd" d="M203.547 195.155C205.879 200.875 210.234 210.735 210.518 217.126C210.979 227.484 203.768 234.828 203.768 234.828C203.768 234.828 203.895 236.994 205.061 258.537C173.516 262.423 150.755 259.454 150.755 259.454L151.618 248.613L147.374 231.628C147.374 231.628 147.08 225.082 141.434 210.868C137.507 200.986 139.118 189.403 140.036 183.023C140.427 180.289 138.027 176.764 140.765 176.147C150.325 173.995 155.173 175.167 155.173 175.167L156.367 169.093C156.572 168.053 157.523 167.318 158.6 167.37L181.59 168.479C182.577 168.526 183.407 169.226 183.605 170.178L184.95 175.499L200.432 178.464C202.645 179.003 204.24 180.899 204.361 183.137L203.547 195.155Z" fill="white" fill-opacity="0.35"/>
<path d="M161.616 175.41L182.318 176.409C182.536 176.419 182.704 176.601 182.693 176.815C182.684 177.006 182.537 177.157 182.351 177.181L182.28 177.184L161.578 176.185C161.36 176.175 161.192 175.993 161.203 175.779C161.212 175.588 161.36 175.437 161.545 175.413L161.616 175.41Z" fill="#2A84C6"/>
<path d="M161.616 175.41L182.318 176.409C182.536 176.419 182.704 176.601 182.693 176.815C182.684 177.006 182.537 177.157 182.351 177.181L182.28 177.184L161.578 176.185C161.36 176.175 161.192 175.993 161.203 175.779C161.212 175.588 161.36 175.437 161.545 175.413L161.616 175.41Z" fill="black" fill-opacity="0.2"/>
<path d="M154.695 173.43C154.899 173.286 155.176 173.313 155.348 173.483L155.401 173.545L175.902 201.692L185.644 176.828C185.734 176.597 185.981 176.47 186.219 176.519L186.299 176.542C186.534 176.631 186.662 176.873 186.613 177.108L186.589 177.186L176.511 202.912C176.375 203.257 175.927 203.335 175.677 203.082L175.626 203.023L154.578 174.125C154.415 173.901 154.467 173.59 154.695 173.43Z" fill="#2A84C6"/>
<path d="M154.695 173.43C154.899 173.286 155.176 173.313 155.348 173.483L155.401 173.545L175.902 201.692L185.644 176.828C185.734 176.597 185.981 176.47 186.219 176.519L186.299 176.542C186.534 176.631 186.662 176.873 186.613 177.108L186.589 177.186L176.511 202.912C176.375 203.257 175.927 203.335 175.677 203.082L175.626 203.023L154.578 174.125C154.415 173.901 154.467 173.59 154.695 173.43Z" fill="white" fill-opacity="0.85"/>
<path fill-rule="evenodd" clip-rule="evenodd" d="M182.198 205.141C184.304 209.059 183.031 213.784 179.356 215.693C175.679 217.604 170.993 215.976 168.886 212.059C166.782 208.141 168.053 203.416 171.728 201.506C175.405 199.595 180.092 201.223 182.198 205.141Z" fill="#2A84C6"/>
<path fill-rule="evenodd" clip-rule="evenodd" d="M182.198 205.141C184.304 209.059 183.031 213.784 179.356 215.693C175.679 217.604 170.993 215.976 168.886 212.059C166.782 208.141 168.053 203.416 171.728 201.506C175.405 199.595 180.092 201.223 182.198 205.141Z" fill="white" fill-opacity="0.85"/>
<path fill-rule="evenodd" clip-rule="evenodd" d="M183.024 205.161C185.128 209.079 183.857 213.804 180.182 215.714C176.505 217.624 171.819 215.997 169.712 212.079C167.606 208.161 168.879 203.436 172.554 201.526C176.231 199.616 180.918 201.243 183.024 205.161Z" fill="#2A84C6"/>
<path fill-rule="evenodd" clip-rule="evenodd" d="M183.024 205.161C185.128 209.079 183.857 213.804 180.182 215.714C176.505 217.624 171.819 215.997 169.712 212.079C167.606 208.161 168.879 203.436 172.554 201.526C176.231 199.616 180.918 201.243 183.024 205.161Z" fill="white" fill-opacity="0.85"/>
<path fill-rule="evenodd" clip-rule="evenodd" d="M181.532 205.755C183.168 208.797 182.179 212.465 179.326 213.949C176.473 215.432 172.832 214.168 171.198 211.126C169.563 208.084 170.55 204.416 173.405 202.932C176.259 201.45 179.898 202.714 181.532 205.755Z" fill="#F56D7E"/>
<path d="M136.877 182.408C137.094 182.424 137.257 182.611 137.24 182.825L137.144 184.147L137.072 185.22C137.024 185.955 136.977 186.729 136.932 187.531C136.828 189.391 136.745 191.218 136.692 192.957L136.667 193.818C136.575 197.427 136.625 200.32 136.851 202.223C137.078 204.135 138.182 207.306 139.95 211.37L140.123 211.767C140.497 212.618 140.895 213.497 141.314 214.4C142.305 216.536 143.367 218.706 144.43 220.796L144.966 221.844L145.845 223.527L145.878 223.611L152.361 248.66L152.371 248.795L151.328 259.04L152.518 259.145L153.409 259.217C154.482 259.301 155.677 259.384 156.984 259.463C171.393 260.329 187.542 260.116 203.543 258.083L204.438 257.966L204.427 257.17C204.39 255.503 204.257 252.244 204.052 247.824L203.866 243.892L203.457 235.696C203.453 235.617 203.474 235.539 203.516 235.472L203.796 235.013L204.077 234.539C204.223 234.289 204.378 234.02 204.539 233.733C205.31 232.369 206.08 230.892 206.798 229.357C207.775 227.27 208.578 225.24 209.147 223.333C209.669 221.579 209.981 219.973 210.052 218.546C210.235 214.879 209.893 212.02 208.961 209.076C208.47 207.524 207.812 205.921 206.845 203.875L206.438 203.027C205.957 202.044 205.056 200.236 204.316 198.757L203.138 196.404L203.098 196.229L203.171 189.864C203.174 189.649 203.353 189.477 203.571 189.48C203.764 189.482 203.924 189.621 203.955 189.802L203.961 189.872L203.888 196.145L206.915 202.212C207.079 202.545 207.217 202.828 207.318 203.037L207.362 203.129C208.452 205.406 209.178 207.15 209.715 208.845C210.675 211.879 211.028 214.828 210.841 218.584C210.766 220.078 210.443 221.743 209.904 223.551C209.324 225.499 208.507 227.562 207.516 229.681C206.892 231.014 206.231 232.302 205.564 233.512L205.23 234.11C205.066 234.4 204.909 234.673 204.761 234.926L204.352 235.613L204.252 235.776L204.399 238.674C204.486 240.391 204.572 242.137 204.655 243.855L205.063 252.799C205.19 255.854 205.248 257.788 205.221 258.326C205.212 258.513 205.068 258.667 204.879 258.692C188.419 260.882 171.762 261.129 156.935 260.238L155.839 260.169C154.77 260.1 153.786 260.028 152.891 259.955L151.473 259.833L150.854 259.774C150.662 259.754 150.517 259.602 150.502 259.419L150.503 259.349L151.578 248.786L145.124 223.847L144.754 223.144C144.443 222.549 144.097 221.877 143.723 221.143C142.657 219.045 141.591 216.868 140.595 214.722C140.28 214.042 139.976 213.374 139.685 212.722L139.398 212.074C137.499 207.751 136.313 204.387 136.067 202.313C135.836 200.364 135.785 197.442 135.878 193.799C135.922 192.084 135.996 190.272 136.093 188.418L136.143 187.488C136.189 186.684 136.236 185.908 136.284 185.17L136.453 182.765C136.469 182.551 136.659 182.391 136.877 182.408Z" fill="#2A84C6"/>
<path d="M136.877 182.408C137.094 182.424 137.257 182.611 137.24 182.825L137.144 184.147L137.072 185.22C137.024 185.955 136.977 186.729 136.932 187.531C136.828 189.391 136.745 191.218 136.692 192.957L136.667 193.818C136.575 197.427 136.625 200.32 136.851 202.223C137.078 204.135 138.182 207.306 139.95 211.37L140.123 211.767C140.497 212.618 140.895 213.497 141.314 214.4C142.305 216.536 143.367 218.706 144.43 220.796L144.966 221.844L145.845 223.527L145.878 223.611L152.361 248.66L152.371 248.795L151.328 259.04L152.518 259.145L153.409 259.217C154.482 259.301 155.677 259.384 156.984 259.463C171.393 260.329 187.542 260.116 203.543 258.083L204.438 257.966L204.427 257.17C204.39 255.503 204.257 252.244 204.052 247.824L203.866 243.892L203.457 235.696C203.453 235.617 203.474 235.539 203.516 235.472L203.796 235.013L204.077 234.539C204.223 234.289 204.378 234.02 204.539 233.733C205.31 232.369 206.08 230.892 206.798 229.357C207.775 227.27 208.578 225.24 209.147 223.333C209.669 221.579 209.981 219.973 210.052 218.546C210.235 214.879 209.893 212.02 208.961 209.076C208.47 207.524 207.812 205.921 206.845 203.875L206.438 203.027C205.957 202.044 205.056 200.236 204.316 198.757L203.138 196.404L203.098 196.229L203.171 189.864C203.174 189.649 203.353 189.477 203.571 189.48C203.764 189.482 203.924 189.621 203.955 189.802L203.961 189.872L203.888 196.145L206.915 202.212C207.079 202.545 207.217 202.828 207.318 203.037L207.362 203.129C208.452 205.406 209.178 207.15 209.715 208.845C210.675 211.879 211.028 214.828 210.841 218.584C210.766 220.078 210.443 221.743 209.904 223.551C209.324 225.499 208.507 227.562 207.516 229.681C206.892 231.014 206.231 232.302 205.564 233.512L205.23 234.11C205.066 234.4 204.909 234.673 204.761 234.926L204.352 235.613L204.252 235.776L204.399 238.674C204.486 240.391 204.572 242.137 204.655 243.855L205.063 252.799C205.19 255.854 205.248 257.788 205.221 258.326C205.212 258.513 205.068 258.667 204.879 258.692C188.419 260.882 171.762 261.129 156.935 260.238L155.839 260.169C154.77 260.1 153.786 260.028 152.891 259.955L151.473 259.833L150.854 259.774C150.662 259.754 150.517 259.602 150.502 259.419L150.503 259.349L151.578 248.786L145.124 223.847L144.754 223.144C144.443 222.549 144.097 221.877 143.723 221.143C142.657 219.045 141.591 216.868 140.595 214.722C140.28 214.042 139.976 213.374 139.685 212.722L139.398 212.074C137.499 207.751 136.313 204.387 136.067 202.313C135.836 200.364 135.785 197.442 135.878 193.799C135.922 192.084 135.996 190.272 136.093 188.418L136.143 187.488C136.189 186.684 136.236 185.908 136.284 185.17L136.453 182.765C136.469 182.551 136.659 182.391 136.877 182.408Z" fill="black" fill-opacity="0.2"/>
<path fill-rule="evenodd" clip-rule="evenodd" d="M206.141 264.855L204.128 258.078C204.128 258.078 178.418 259.92 154.253 259.911C153.083 262.681 152.853 267.932 152.853 267.932C154.796 266.198 179.432 269.758 206.141 264.855Z" fill="#2A84C6"/>
<path fill-rule="evenodd" clip-rule="evenodd" d="M206.141 264.855L204.128 258.078C204.128 258.078 178.418 259.92 154.253 259.911C153.083 262.681 152.853 267.932 152.853 267.932C154.796 266.198 179.432 269.758 206.141 264.855Z" fill="black" fill-opacity="0.2"/>
<path fill-rule="evenodd" clip-rule="evenodd" d="M286.38 296.376L214.15 276.183L207.158 265.183L153.107 267.266C153.107 267.266 118.38 330.658 159.485 344.532C192.127 353.367 201.193 354.273 201.193 354.273L214.027 371.631L272.373 344.013L315.003 317.643L286.38 296.376Z" fill="#2A84C6"/>
<path fill-rule="evenodd" clip-rule="evenodd" d="M286.38 296.376L214.15 276.183L207.158 265.183L153.107 267.266C153.107 267.266 118.38 330.658 159.485 344.532C192.127 353.367 201.193 354.273 201.193 354.273L214.027 371.631L272.373 344.013L315.003 317.643L286.38 296.376Z" fill="black" fill-opacity="0.2"/>
<path d="M178.993 269.381C179.189 269.258 179.441 269.294 179.594 269.455L179.646 269.521L188.168 282.609L249.142 320.282C249.201 320.318 249.25 320.366 249.288 320.423L249.321 320.482L260.217 343.994C260.326 344.227 260.221 344.503 259.983 344.609C259.77 344.705 259.521 344.631 259.395 344.445L259.358 344.379L248.52 320.995L187.575 283.34C187.536 283.316 187.501 283.286 187.47 283.252L187.429 283.198L178.85 270.023C178.71 269.806 178.774 269.519 178.993 269.381Z" fill="#1443BD"/>
<path d="M178.993 269.381C179.189 269.258 179.441 269.294 179.594 269.455L179.646 269.521L188.168 282.609L249.142 320.282C249.201 320.318 249.25 320.366 249.288 320.423L249.321 320.482L260.217 343.994C260.326 344.227 260.221 344.503 259.983 344.609C259.77 344.705 259.521 344.631 259.395 344.445L259.358 344.379L248.52 320.995L187.575 283.34C187.536 283.316 187.501 283.286 187.47 283.252L187.429 283.198L178.85 270.023C178.71 269.806 178.774 269.519 178.993 269.381Z" fill="black" fill-opacity="0.5"/>
<path d="M168.528 271.747C168.762 271.731 168.968 271.885 169.02 272.103L169.032 272.178L170.336 290.615L192.848 327.376L214.451 371.43C214.565 371.661 214.466 371.939 214.231 372.05C214.02 372.151 213.77 372.082 213.639 371.899L213.6 371.834L192.018 327.818L169.468 290.997C169.442 290.955 169.424 290.909 169.413 290.862L169.402 290.79L168.089 272.242C168.071 271.986 168.267 271.765 168.528 271.747Z" fill="#1443BD"/>
<path d="M168.528 271.747C168.762 271.731 168.968 271.885 169.02 272.103L169.032 272.178L170.336 290.615L192.848 327.376L214.451 371.43C214.565 371.661 214.466 371.939 214.231 372.05C214.02 372.151 213.77 372.082 213.639 371.899L213.6 371.834L192.018 327.818L169.468 290.997C169.442 290.955 169.424 290.909 169.413 290.862L169.402 290.79L168.089 272.242C168.071 271.986 168.267 271.765 168.528 271.747Z" fill="black" fill-opacity="0.5"/>
<path d="M159.151 272.905L159.228 272.914C159.458 272.958 159.616 273.16 159.609 273.384L159.6 273.459L154.516 298.934L177.383 346.155C177.484 346.363 177.413 346.609 177.226 346.736L177.16 346.774C176.948 346.873 176.698 346.804 176.569 346.62L176.53 346.554L153.597 299.196C153.564 299.128 153.549 299.054 153.551 298.98L153.56 298.906L158.673 273.28C158.718 273.054 158.924 272.898 159.151 272.905Z" fill="#1443BD"/>
<path d="M159.151 272.905L159.228 272.914C159.458 272.958 159.616 273.16 159.609 273.384L159.6 273.459L154.516 298.934L177.383 346.155C177.484 346.363 177.413 346.609 177.226 346.736L177.16 346.774C176.948 346.873 176.698 346.804 176.569 346.62L176.53 346.554L153.597 299.196C153.564 299.128 153.549 299.054 153.551 298.98L153.56 298.906L158.673 273.28C158.718 273.054 158.924 272.898 159.151 272.905Z" fill="black" fill-opacity="0.5"/>
<path d="M206.671 264.49C206.808 264.485 206.94 264.538 207.033 264.633L207.084 264.695L215.143 276.469L286.506 295.929L286.665 296.006L315.287 317.272C315.529 317.452 315.534 317.799 315.318 317.988L315.254 318.036L272.624 344.407C272.403 344.544 272.112 344.478 271.973 344.261C271.849 344.068 271.888 343.82 272.053 343.671L272.121 343.621L314.171 317.607L286.166 296.8L214.723 277.32C214.642 277.298 214.569 277.255 214.511 277.196L214.458 277.132L206.447 265.43L153.127 267.73C152.892 267.74 152.69 267.58 152.644 267.361L152.634 267.286C152.624 267.056 152.787 266.857 153.009 266.811L153.086 266.802L206.671 264.49Z" fill="#1443BD"/>
<path d="M206.671 264.49C206.808 264.485 206.94 264.538 207.033 264.633L207.084 264.695L215.143 276.469L286.506 295.929L286.665 296.006L315.287 317.272C315.529 317.452 315.534 317.799 315.318 317.988L315.254 318.036L272.624 344.407C272.403 344.544 272.112 344.478 271.973 344.261C271.849 344.068 271.888 343.82 272.053 343.671L272.121 343.621L314.171 317.607L286.166 296.8L214.723 277.32C214.642 277.298 214.569 277.255 214.511 277.196L214.458 277.132L206.447 265.43L153.127 267.73C152.892 267.74 152.69 267.58 152.644 267.361L152.634 267.286C152.624 267.056 152.787 266.857 153.009 266.811L153.086 266.802L206.671 264.49Z" fill="black" fill-opacity="0.5"/>
<path d="M179.242 286.332C179.44 286.213 179.692 286.254 179.841 286.418L179.892 286.485L190.35 303.244L213.44 323.97C213.612 324.124 213.642 324.373 213.522 324.56L213.471 324.627C213.314 324.795 213.061 324.824 212.871 324.707L212.803 324.657L189.665 303.887L189.581 303.787L179.087 286.971C178.95 286.753 179.02 286.467 179.242 286.332Z" fill="#1443BD"/>
<path d="M179.242 286.332C179.44 286.213 179.692 286.254 179.841 286.418L179.892 286.485L190.35 303.244L213.44 323.97C213.612 324.124 213.642 324.373 213.522 324.56L213.471 324.627C213.314 324.795 213.061 324.824 212.871 324.707L212.803 324.657L189.665 303.887L189.581 303.787L179.087 286.971C178.95 286.753 179.02 286.467 179.242 286.332Z" fill="black" fill-opacity="0.5"/>
<path d="M217.365 293.386C217.441 293.167 217.666 293.041 217.89 293.079L217.965 293.097L254.575 305.461L284.638 321.551C284.867 321.673 284.952 321.956 284.827 322.181C284.715 322.384 284.471 322.471 284.256 322.398L284.186 322.367L254.196 306.309L217.658 293.976C217.411 293.893 217.28 293.628 217.365 293.386Z" fill="#1443BD"/>
<path d="M217.365 293.386C217.441 293.167 217.666 293.041 217.89 293.079L217.965 293.097L254.575 305.461L284.638 321.551C284.867 321.673 284.952 321.956 284.827 322.181C284.715 322.384 284.471 322.471 284.256 322.398L284.186 322.367L254.196 306.309L217.658 293.976C217.411 293.893 217.28 293.628 217.365 293.386Z" fill="black" fill-opacity="0.5"/>
<path fill-rule="evenodd" clip-rule="evenodd" d="M265.612 182.397C269.143 184.228 270.725 188.204 269.205 191.418L241.216 252.121C238.308 257.726 230.029 262.662 223.181 257.763C216.86 254.482 214.262 247.22 217.432 241.69L256.173 184.316C258.103 181.457 262.196 180.625 265.612 182.397Z" fill="#FFC999"/>
<path fill-rule="evenodd" clip-rule="evenodd" d="M150.6 328.304C154.508 327.327 157.017 323.784 156.296 320.262L142.365 252.26C140.853 246.057 133.95 242.407 127.014 244.139C120.017 245.889 115.723 252.431 117.509 258.62L141.942 328.229C143.153 331.496 146.821 329.249 150.6 328.304Z" fill="#FFC999"/>
<path fill-rule="evenodd" clip-rule="evenodd" d="M126.456 264.054L127.848 264.33C134.709 265.693 141.395 261.328 142.78 254.58L155.292 193.65C156.676 186.903 152.238 180.33 145.375 178.967L143.984 178.69C137.123 177.329 130.437 181.694 129.052 188.441L116.541 249.37C115.155 256.118 119.595 262.691 126.456 264.054Z" fill="#FFC999"/>
<path fill-rule="evenodd" clip-rule="evenodd" d="M123.828 213.884L129.603 185.756C130.996 178.976 138.107 174.613 145.405 176.062C152.703 177.511 157.535 184.245 156.143 191.026L150.422 218.886L123.828 213.884Z" fill="#1443BD"/>
<path fill-rule="evenodd" clip-rule="evenodd" d="M123.828 213.884L129.603 185.756C130.996 178.976 138.107 174.613 145.405 176.062C152.703 177.511 157.535 184.245 156.143 191.026L150.422 218.886L123.828 213.884Z" fill="white" fill-opacity="0.35"/>
<path d="M123.703 212.663L150.639 218.749C150.847 218.796 150.977 219 150.929 219.204C150.887 219.386 150.718 219.507 150.535 219.498L150.466 219.489L123.53 213.403C123.322 213.356 123.192 213.152 123.24 212.948C123.283 212.766 123.451 212.645 123.634 212.653L123.703 212.663Z" fill="#2A84C6"/>
<path d="M123.703 212.663L150.639 218.749C150.847 218.796 150.977 219 150.929 219.204C150.887 219.386 150.718 219.507 150.535 219.498L150.466 219.489L123.53 213.403C123.322 213.356 123.192 213.152 123.24 212.948C123.283 212.766 123.451 212.645 123.634 212.653L123.703 212.663Z" fill="black" fill-opacity="0.2"/>
<path fill-rule="evenodd" clip-rule="evenodd" d="M175.183 344.707C177.459 343.853 173.422 333.968 172.164 331.945C170.488 329.246 155.051 320.856 155.051 320.856L152.34 308.931L138.122 314.63C138.122 314.63 140.308 327.784 144.315 334.565C147.305 339.625 152.391 338.542 159.622 345.243C162.969 348.344 167.159 351.626 168.865 349.151C169.201 348.662 172.682 349.56 172.235 346.536C172.235 346.536 173.418 347.443 174.533 346.526C175.5 345.728 175.183 344.707 175.183 344.707Z" fill="#FFC999"/>
<path d="M156.553 337.477C156.669 337.236 156.961 337.133 157.205 337.247L157.483 337.382L157.583 337.433C157.878 337.584 158.205 337.76 158.557 337.963C159.562 338.54 160.567 339.207 161.508 339.956C162.361 340.636 163.119 341.352 163.758 342.103L169.351 348.678C169.525 348.882 169.498 349.186 169.29 349.356C169.083 349.527 168.774 349.5 168.6 349.296L163.007 342.721C162.411 342.021 161.697 341.348 160.891 340.705C159.992 339.989 159.028 339.349 158.063 338.794C157.809 338.649 157.57 338.517 157.348 338.4L156.887 338.165C156.845 338.145 156.812 338.129 156.788 338.118C156.543 338.005 156.438 337.718 156.553 337.477Z" fill="#DD936F"/>
<path d="M160.38 333.14C160.547 332.931 160.855 332.894 161.068 333.058L161.391 333.313L161.792 333.641C161.932 333.757 162.078 333.88 162.23 334.009C163.097 334.748 163.965 335.543 164.776 336.366C165.704 337.308 166.498 338.227 167.12 339.104L167.61 339.791C167.78 340.028 167.958 340.273 168.143 340.526L168.726 341.318C169.194 341.951 169.682 342.604 170.179 343.26L171.602 345.126L172.294 346.021C172.458 346.233 172.418 346.535 172.203 346.697C171.988 346.858 171.681 346.818 171.516 346.607L170.613 345.436L170.396 345.154C169.725 344.276 169.053 343.389 168.41 342.527L167.632 341.476L167.073 340.711C166.804 340.341 166.551 339.988 166.315 339.654C165.728 338.825 164.966 337.944 164.072 337.036C163.283 336.235 162.436 335.458 161.589 334.737L161.161 334.378L160.553 333.886C160.516 333.856 160.486 333.833 160.464 333.816C160.251 333.652 160.214 333.35 160.38 333.14Z" fill="#DD936F"/>
<path d="M163.798 330.162C163.95 329.942 164.255 329.885 164.479 330.034L164.801 330.258C165.052 330.436 165.332 330.643 165.633 330.875C166.492 331.538 167.352 332.273 168.155 333.061C169.713 334.588 170.872 336.128 171.467 337.64C171.757 338.375 172.078 339.096 172.426 339.8C172.984 340.931 173.582 341.966 174.179 342.881C174.388 343.201 174.581 343.482 174.754 343.723L174.966 344.01C175.13 344.221 175.089 344.523 174.874 344.685C174.659 344.846 174.352 344.806 174.188 344.595L174.016 344.365L173.954 344.279C173.773 344.027 173.571 343.733 173.355 343.401C172.737 342.455 172.12 341.388 171.544 340.221C171.185 339.493 170.853 338.748 170.554 337.988C170.016 336.624 168.933 335.184 167.463 333.743C166.69 332.984 165.859 332.274 165.028 331.633L164.609 331.316C164.542 331.266 164.477 331.218 164.413 331.172L163.966 330.856C163.952 330.847 163.94 330.838 163.929 330.831C163.705 330.682 163.647 330.382 163.798 330.162Z" fill="#DD936F"/>
<path fill-rule="evenodd" clip-rule="evenodd" d="M254.733 183.826L258.505 164.031C258.505 164.031 268.962 141.238 273.626 142.142C278.012 143.56 269.093 150.639 267.798 156.923C271.779 156.267 270.528 162.299 270.528 162.299C270.528 162.299 273.707 161.885 273.314 166.742C276.443 168.189 274.6 173.893 274.6 173.893C274.6 173.893 272.977 185.034 267.319 195.284C267.319 195.284 255.562 200.915 254.733 183.826Z" fill="#FFC999"/>
<path fill-rule="evenodd" clip-rule="evenodd" d="M254.255 182.228C254.255 182.228 254.512 172.985 254.915 168.25C255.318 163.516 252.504 155.299 256.172 157.202C258.636 158.482 258.72 163.519 258.993 167.215C259.268 170.908 266.172 179.08 262.246 185.553C259.594 189.927 254.837 190.916 254.255 182.228Z" fill="#FFC999"/>
<path d="M267.414 156.626C267.581 156.416 267.888 156.38 268.101 156.544C268.314 156.708 268.351 157.011 268.184 157.22L267.997 157.462L267.628 157.952C267.584 158.012 267.539 158.073 267.494 158.135C266.972 158.85 266.451 159.614 265.966 160.395C265.486 161.165 265.068 161.911 264.728 162.615C263.462 165.234 263.444 166.847 264.843 167.273C265.102 167.352 265.247 167.621 265.167 167.876C265.087 168.13 264.812 168.272 264.554 168.193C262.324 167.515 262.35 165.291 263.843 162.202C264.199 161.464 264.634 160.69 265.13 159.892C265.629 159.09 266.163 158.307 266.697 157.574L266.967 157.208L267.388 156.658C267.398 156.646 267.406 156.635 267.414 156.626Z" fill="#DD936F"/>
<path d="M270.524 162.183C270.709 162.378 270.697 162.683 270.499 162.864L270.293 163.058L270.028 163.313C269.936 163.403 269.839 163.499 269.738 163.6C269.164 164.174 268.59 164.788 268.055 165.415C267.532 166.028 267.075 166.622 266.703 167.181C265.517 168.966 265.361 170.1 266.289 170.546C266.485 170.64 266.687 170.686 266.899 170.687C267.651 170.69 268.542 170.128 269.45 169.17C269.781 168.821 270.09 168.444 270.368 168.068L270.579 167.773C270.636 167.689 270.681 167.622 270.711 167.575C270.853 167.349 271.155 167.279 271.385 167.419C271.615 167.56 271.686 167.857 271.543 168.083L271.452 168.221C271.379 168.33 271.281 168.47 271.161 168.633C270.861 169.04 270.528 169.446 270.167 169.827C269.089 170.964 267.994 171.655 266.894 171.65C266.536 171.649 266.188 171.57 265.858 171.411C264.175 170.601 264.413 168.865 265.883 166.654C266.278 166.06 266.758 165.437 267.305 164.796C267.858 164.148 268.449 163.516 269.04 162.924L269.478 162.493L269.832 162.159C270.03 161.978 270.34 161.989 270.524 162.183Z" fill="#DD936F"/>
<path d="M272.157 166.724C272.419 166.658 272.686 166.813 272.754 167.071C272.821 167.328 272.663 167.591 272.401 167.657C271.77 167.816 271.007 168.461 270.135 169.689C268.307 172.266 268.029 173.837 268.671 174.129C269.337 174.432 270.774 173.618 271.608 172.168C271.908 171.647 272.713 172.024 272.491 172.581C271.315 175.528 269.777 177.44 267.609 179.047C267.316 179.264 267.015 179.474 266.672 179.702L265.258 180.617C262.391 182.473 261.313 183.893 260.963 187.215C260.935 187.48 260.695 187.672 260.426 187.645C260.157 187.618 259.961 187.381 259.989 187.116C260.362 183.563 261.563 181.902 264.479 179.97L265.865 179.075L266.362 178.744C266.595 178.585 266.81 178.432 267.019 178.278C268.287 177.338 269.319 176.294 270.184 174.966L270.296 174.788L270.203 174.837C269.559 175.149 268.913 175.243 268.38 175.052L268.259 175.003C266.807 174.342 267.194 172.15 269.332 169.138C270.325 167.739 271.256 166.951 272.157 166.724Z" fill="#DD936F"/>
<path d="M258.564 162.121C258.803 162.079 259.033 162.216 259.112 162.434L259.132 162.51L260.385 169.367L260.454 169.462C260.561 169.612 260.681 169.785 260.809 169.98C261.175 170.535 261.54 171.153 261.882 171.819C262.864 173.735 263.455 175.657 263.456 177.475C263.456 178.502 263.264 179.467 262.858 180.353C262.747 180.595 262.456 180.703 262.21 180.594C261.963 180.485 261.853 180.199 261.964 179.957C262.311 179.201 262.476 178.371 262.476 177.476C262.476 175.832 261.926 174.046 261.007 172.252C260.747 171.746 260.473 171.268 260.196 170.828L259.987 170.504C259.78 170.19 259.62 169.967 259.532 169.852C259.501 169.812 259.477 169.767 259.46 169.72L259.441 169.647L258.168 162.68C258.12 162.419 258.297 162.168 258.564 162.121Z" fill="#DD936F"/>
<path d="M204.11 257.614C204.371 257.605 204.591 257.805 204.601 258.061C204.609 258.292 204.445 258.49 204.222 258.534L204.146 258.543L154.27 260.375C154.009 260.385 153.79 260.185 153.78 259.928C153.772 259.698 153.935 259.5 154.158 259.456L154.235 259.447L204.11 257.614Z" fill="#1443BD"/>
<path d="M204.11 257.614C204.371 257.605 204.591 257.805 204.601 258.061C204.609 258.292 204.445 258.49 204.222 258.534L204.146 258.543L154.27 260.375C154.009 260.385 153.79 260.185 153.78 259.928C153.772 259.698 153.935 259.5 154.158 259.456L154.235 259.447L204.11 257.614Z" fill="black" fill-opacity="0.5"/>
<path d="M457.627 156.076H369.847C368.115 156.076 366.711 157.492 366.711 159.238V220.556C366.711 222.302 368.115 223.718 369.847 223.718H457.627C459.359 223.718 460.763 222.302 460.763 220.556V159.238C460.763 157.492 459.359 156.076 457.627 156.076Z" fill="#2A84C6"/>
<path d="M457.627 156.076H369.847C368.115 156.076 366.711 157.492 366.711 159.238V220.556C366.711 222.302 368.115 223.718 369.847 223.718H457.627C459.359 223.718 460.763 222.302 460.763 220.556V159.238C460.763 157.492 459.359 156.076 457.627 156.076Z" fill="white" fill-opacity="0.85"/>
<path d="M443.124 215.533C444.484 215.533 445.587 213.185 445.587 210.289C445.587 207.394 444.484 205.046 443.124 205.046C441.763 205.046 440.661 207.394 440.661 210.289C440.661 213.185 441.763 215.533 443.124 215.533Z" fill="white"/>
<path d="M460.719 176.762H366.756V186.571H460.719V176.762Z" fill="white"/>
<path d="M405.971 196.735H374.465C373.887 196.735 373.419 197.207 373.419 197.789V199.069C373.419 199.651 373.887 200.123 374.465 200.123H405.971C406.549 200.123 407.017 199.651 407.017 199.069V197.789C407.017 197.207 406.549 196.735 405.971 196.735Z" fill="white"/>
<path d="M392.637 206.9H374.465C373.887 206.9 373.419 207.372 373.419 207.954V209.234C373.419 209.816 373.887 210.288 374.465 210.288H392.637C393.215 210.288 393.683 209.816 393.683 209.234V207.954C393.683 207.372 393.215 206.9 392.637 206.9Z" fill="white"/>
<path d="M382.506 162.891H374.465C373.887 162.891 373.419 163.363 373.419 163.945V168.574C373.419 169.156 373.887 169.628 374.465 169.628H382.506C383.083 169.628 383.551 169.156 383.551 168.574V163.945C383.551 163.363 383.083 162.891 382.506 162.891Z" fill="white"/>
<path d="M440.661 210.289C440.659 208.257 441.562 206.331 443.124 205.046C440.386 202.783 436.379 203.05 433.96 205.656C431.541 208.262 431.541 212.313 433.96 214.919C436.379 217.525 440.387 217.791 443.124 215.529C441.564 214.244 440.66 212.321 440.661 210.289Z" fill="#F56D7E"/>
<path d="M447.379 203.512C445.828 203.51 444.323 204.053 443.124 205.046C444.681 206.333 445.584 208.257 445.584 210.287C445.584 212.318 444.682 214.242 443.124 215.529C445.413 217.422 448.661 217.582 451.122 215.922C453.582 214.262 454.676 211.174 453.815 208.317C452.953 205.461 450.34 203.51 447.379 203.512Z" fill="#B7EE81"/>
<path d="M447.379 203.512C445.828 203.51 444.323 204.053 443.124 205.046C444.681 206.333 445.584 208.257 445.584 210.287C445.584 212.318 444.682 214.242 443.124 215.529C445.413 217.422 448.661 217.582 451.122 215.922C453.582 214.262 454.676 211.174 453.815 208.317C452.953 205.461 450.34 203.51 447.379 203.512Z" fill="white" fill-opacity="0.2"/>
<path d="M347 286C347 280 347 277.001 348.528 274.898C349.021 274.219 349.619 273.621 350.298 273.128C352.401 271.6 355.4 271.6 361.4 271.6H397.034C403.034 271.6 406.033 271.6 408.136 273.128C408.815 273.621 409.413 274.219 409.906 274.898C411.434 277.001 411.434 280 411.434 286V333.591C411.434 339.59 411.434 342.59 409.906 344.693C409.413 345.372 408.815 345.969 408.136 346.463C406.033 347.991 403.033 347.991 397.034 347.991H361.4C355.4 347.991 352.401 347.991 350.298 346.463C349.619 345.969 349.021 345.372 348.528 344.693C347 342.59 347 339.59 347 333.591V286Z" fill="white"/>
<path fill-rule="evenodd" clip-rule="evenodd" d="M396.523 312.325C393.378 308.521 383.631 301.158 389.149 295.335C394.105 290.104 398.32 296.94 404.112 304.179L396.523 312.325Z" fill="#1443BD"/>
<path fill-rule="evenodd" clip-rule="evenodd" d="M360.447 312.325C363.592 308.521 373.982 300.289 368.464 294.465C363.507 289.235 358.65 296.94 352.858 304.179L360.447 312.325Z" fill="#1443BD"/>
<path fill-rule="evenodd" clip-rule="evenodd" d="M367.597 323.535C368.682 328.044 368.891 328.703 368.891 328.703C375.239 329.131 388.976 328.703 388.976 328.703C389.541 326.005 390.131 322.96 390.131 322.96C390.131 322.96 396.998 295.61 394.804 294.053C392.782 292.618 389.185 291.487 384.439 290.698C384.307 290.992 382.977 293.282 378.535 293.336C373.673 293.395 372.628 291.227 372.451 290.847C368.47 291.338 365.958 291.644 363.48 293.173C362.715 293.645 363.235 305.406 367.597 323.535Z" fill="#1443BD"/>
<path fill-rule="evenodd" clip-rule="evenodd" d="M406.705 350.236C406.704 350.211 406.708 350.186 406.716 350.161C406.74 350.081 406.803 350.019 406.885 349.993L411.213 348.654C411.413 348.592 411.442 348.419 411.446 348.367C411.45 348.316 411.448 348.14 411.26 348.05L399.399 342.358C399.282 342.302 399.15 342.314 399.046 342.392C398.942 342.469 398.896 342.59 398.921 342.715L401.538 355.555C401.579 355.755 401.751 355.802 401.803 355.812C401.855 355.822 402.033 355.84 402.148 355.67L404.724 351.847C404.77 351.778 404.847 351.736 404.931 351.733C405.015 351.73 405.095 351.767 405.146 351.832L409.298 357.165C409.341 357.221 409.421 357.232 409.479 357.192L411.22 355.987C411.261 355.959 411.272 355.92 411.274 355.9C411.277 355.879 411.278 355.839 411.246 355.802L406.762 350.391C406.725 350.347 406.705 350.292 406.705 350.236Z" fill="#1443BD"/>
</svg>
