<svg width="23" height="18" viewBox="0 0 23 18" fill="none" xmlns="http://www.w3.org/2000/svg">
<path fill-rule="evenodd" clip-rule="evenodd" d="M7.2335 17.9998C15.9125 17.9998 20.6597 11.0738 20.6597 5.06831C20.6597 4.87116 20.6597 4.67548 20.6459 4.48054C21.5694 3.83812 22.3664 3.04049 23 2.12782C22.1398 2.49555 21.2255 2.73671 20.2906 2.84303C21.275 2.27483 22.0121 1.38215 22.3652 0.32881C21.4383 0.858246 20.4251 1.2319 19.3683 1.43239C17.5812 -0.397392 14.5924 -0.486046 12.6914 1.23518C11.4667 2.34501 10.9457 3.99974 11.3264 5.57808C7.5325 5.39422 3.9974 3.66859 1.6008 0.829786C0.34845 2.90655 0.989 5.56232 3.06245 6.89589C2.3115 6.87484 1.57665 6.68011 0.92 6.32789V6.38557C0.92115 8.54874 2.5047 10.4113 4.7058 10.84C4.0112 11.0227 3.2821 11.0492 2.576 10.9174C3.19355 12.7694 4.9657 14.0378 6.98395 14.0744C5.313 15.3392 3.24875 16.0261 1.12355 16.0239C0.74865 16.0228 0.37375 16.0017 0 15.9585C2.15855 17.2921 4.669 17.9998 7.2335 17.9965" fill="white"/>
</svg>
