<svg width="160" height="38" viewBox="0 0 160 38" fill="none" xmlns="http://www.w3.org/2000/svg">
<path d="M10.9999 37.063H17.0956V26.407H24.1363C31.0352 26.407 35.7369 22.0731 35.7369 15.6393V15.5947C35.7369 9.13851 31.0352 4.82697 24.1363 4.82697H10.9999V37.063ZM22.6242 9.54062C26.9951 9.54062 29.5467 11.7522 29.5467 15.617V15.6617C29.5467 19.5264 26.9951 21.7604 22.6242 21.7604H17.0956V9.54062H22.6242Z" fill="#1443BD"/>
<path d="M10.9999 37.063H17.0956V26.407H24.1363C31.0352 26.407 35.7369 22.0731 35.7369 15.6393V15.5947C35.7369 9.13851 31.0352 4.82697 24.1363 4.82697H10.9999V37.063ZM22.6242 9.54062C26.9951 9.54062 29.5467 11.7522 29.5467 15.617V15.6617C29.5467 19.5264 26.9951 21.7604 22.6242 21.7604H17.0956V9.54062H22.6242Z" fill="black" fill-opacity="0.5"/>
<path d="M92.2582 29.2659H98.1411V14.7675C98.1411 11.8857 100.126 9.78574 102.961 9.78574C105.702 9.78574 107.403 11.4389 107.403 14.0973V29.2659H113.12V14.6334C113.12 11.774 115.058 9.78574 117.893 9.78574C120.775 9.78574 122.382 11.4612 122.382 14.3877V29.2659H128.265V13.0026C128.265 8.26665 125.028 5.09442 120.09 5.09442C116.475 5.09442 113.498 6.92627 112.293 9.8751H112.152C111.23 6.83691 108.702 5.09442 105.205 5.09442C101.898 5.09442 99.3225 6.79223 98.2593 9.38363H98.1411V5.58589H92.2582V29.2659Z" fill="#1443BD"/>
<path d="M92.2582 29.2659H98.1411V14.7675C98.1411 11.8857 100.126 9.78574 102.961 9.78574C105.702 9.78574 107.403 11.4389 107.403 14.0973V29.2659H113.12V14.6334C113.12 11.774 115.058 9.78574 117.893 9.78574C120.775 9.78574 122.382 11.4612 122.382 14.3877V29.2659H128.265V13.0026C128.265 8.26665 125.028 5.09442 120.09 5.09442C116.475 5.09442 113.498 6.92627 112.293 9.8751H112.152C111.23 6.83691 108.702 5.09442 105.205 5.09442C101.898 5.09442 99.3225 6.79223 98.2593 9.38363H98.1411V5.58589H92.2582V29.2659Z" fill="black" fill-opacity="0.5"/>
<path d="M70.5926 37.67C75.814 37.67 78.7437 35.8158 80.6574 30.6107L89.6591 6.1265H83.469L77.586 25.0705H77.4206L71.5612 6.1265H65.1348L74.1365 29.8288L73.7821 30.7894C73.0261 32.7776 71.7739 33.3808 69.5294 33.3808C68.7024 33.3808 68.0173 33.2691 67.5684 33.1798V37.4243C68.2772 37.536 69.4585 37.67 70.5926 37.67Z" fill="#1443BD"/>
<path d="M70.5926 37.67C75.814 37.67 78.7437 35.8158 80.6574 30.6107L89.6591 6.1265H83.469L77.586 25.0705H77.4206L71.5612 6.1265H65.1348L74.1365 29.8288L73.7821 30.7894C73.0261 32.7776 71.7739 33.3808 69.5294 33.3808C68.7024 33.3808 68.0173 33.2691 67.5684 33.1798V37.4243C68.2772 37.536 69.4585 37.67 70.5926 37.67Z" fill="black" fill-opacity="0.5"/>
<path d="M3.42584 12.5826C5.33959 12.5826 6.82806 11.1529 6.82806 9.3434C6.82806 7.53389 5.33959 6.1265 3.42584 6.1265C1.5121 6.1265 0 7.53389 0 9.3434C0 11.1529 1.5121 12.5826 3.42584 12.5826ZM3.42584 28.9799C5.33959 28.9799 6.82806 27.5502 6.82806 25.7407C6.82806 23.9535 5.33959 22.5238 3.42584 22.5238C1.5121 22.5238 0 23.9535 0 25.7407C0 27.5502 1.5121 28.9799 3.42584 28.9799Z" fill="#1443BD"/>
<path d="M3.42584 12.5826C5.33959 12.5826 6.82806 11.1529 6.82806 9.3434C6.82806 7.53389 5.33959 6.1265 3.42584 6.1265C1.5121 6.1265 0 7.53389 0 9.3434C0 11.1529 1.5121 12.5826 3.42584 12.5826ZM3.42584 28.9799C5.33959 28.9799 6.82806 27.5502 6.82806 25.7407C6.82806 23.9535 5.33959 22.5238 3.42584 22.5238C1.5121 22.5238 0 23.9535 0 25.7407C0 27.5502 1.5121 28.9799 3.42584 28.9799Z" fill="black" fill-opacity="0.5"/>
<path d="M59.7314 25.4259C64.3591 20.7982 64.3747 15.6014 62.3512 12.4752L62.2275 12.2513L58.3349 16.144L58.4121 16.2879C59.1327 17.8104 58.822 20.2062 56.7504 22.2778C54.044 24.9843 50.6023 24.9507 47.5973 22.0794L59.9935 9.68322L58.7298 8.4195C53.6749 3.36462 47.1695 3.14079 42.1074 8.20285C37.0454 13.2649 37.2628 19.9979 42.5389 25.2739L42.5546 25.2897C47.8781 30.6131 54.4188 30.7386 59.7314 25.4259ZM45.2379 11.233C47.4431 9.02779 50.3738 8.75087 53.3284 11.104L45.0252 19.4071C42.7845 16.4981 43.0326 13.4383 45.2379 11.233Z" fill="#1443BD"/>
<path d="M59.7314 25.4259C64.3591 20.7982 64.3747 15.6014 62.3512 12.4752L62.2275 12.2513L58.3349 16.144L58.4121 16.2879C59.1327 17.8104 58.822 20.2062 56.7504 22.2778C54.044 24.9843 50.6023 24.9507 47.5973 22.0794L59.9935 9.68322L58.7298 8.4195C53.6749 3.36462 47.1695 3.14079 42.1074 8.20285C37.0454 13.2649 37.2628 19.9979 42.5389 25.2739L42.5546 25.2897C47.8781 30.6131 54.4188 30.7386 59.7314 25.4259ZM45.2379 11.233C47.4431 9.02779 50.3738 8.75087 53.3284 11.104L45.0252 19.4071C42.7845 16.4981 43.0326 13.4383 45.2379 11.233Z" fill="black" fill-opacity="0.5"/>
<path d="M151.998 25.4259C156.625 20.7982 156.641 15.6014 154.617 12.4752L154.494 12.2514L150.601 16.144L150.678 16.2879C151.399 17.8105 151.088 20.2062 149.017 22.2778C146.31 24.9843 142.868 24.9507 139.864 22.0794L152.26 9.68323L150.996 8.41951C145.941 3.36464 139.436 3.14079 134.374 8.20285C129.312 13.2649 129.529 19.9979 134.805 25.2739L134.821 25.2897C140.144 30.6131 146.685 30.7386 151.998 25.4259ZM137.504 11.233C139.709 9.02779 142.64 8.75087 145.595 11.104L137.291 19.4071C135.051 16.4981 135.299 13.4383 137.504 11.233Z" fill="#1443BD"/>
<path d="M151.998 25.4259C156.625 20.7982 156.641 15.6014 154.617 12.4752L154.494 12.2514L150.601 16.144L150.678 16.2879C151.399 17.8105 151.088 20.2062 149.017 22.2778C146.31 24.9843 142.868 24.9507 139.864 22.0794L152.26 9.68323L150.996 8.41951C145.941 3.36464 139.436 3.14079 134.374 8.20285C129.312 13.2649 129.529 19.9979 134.805 25.2739L134.821 25.2897C140.144 30.6131 146.685 30.7386 151.998 25.4259ZM137.504 11.233C139.709 9.02779 142.64 8.75087 145.595 11.104L137.291 19.4071C135.051 16.4981 135.299 13.4383 137.504 11.233Z" fill="black" fill-opacity="0.5"/>
</svg>
