<svg width="27" height="20" viewBox="0 0 27 20" fill="none" xmlns="http://www.w3.org/2000/svg">
<g clip-path="url(#clip0_353_1143)">
<path fill-rule="evenodd" clip-rule="evenodd" d="M10.7844 13.5097V5.89369C13.4739 7.16592 15.5569 8.39491 18.0204 9.71993C15.9885 10.8528 13.4739 12.1238 10.7844 13.5097ZM25.7729 2.10589C25.3089 1.49143 24.5182 1.01312 23.6764 0.854769C21.2021 0.382416 5.76583 0.381072 3.29286 0.854769C2.6178 0.981988 2.01668 1.28949 1.5003 1.76726C-0.675489 3.79741 0.00629934 14.6845 0.530749 16.448C0.751285 17.2113 1.03638 17.7619 1.39543 18.1232C1.85802 18.601 2.49138 18.9299 3.21888 19.0775C5.25616 19.5011 15.7519 19.7379 23.6334 19.1411C24.3595 19.0139 25.0023 18.6743 25.5093 18.1762C27.521 16.1542 27.3839 4.65575 25.7729 2.10589Z" fill="white"/>
</g>
<defs>
<clipPath id="clip0_353_1143">
<rect width="27" height="19" fill="white" transform="translate(0 0.5)"/>
</clipPath>
</defs>
</svg>
