<svg width="200" height="48" viewBox="0 0 200 48" fill="none" xmlns="http://www.w3.org/2000/svg">
<path d="M13.7499 47.2263H21.3695V33.6482H30.1704C38.794 33.6482 44.6711 28.1259 44.6711 19.9278V19.8708C44.6711 11.6443 38.794 6.15039 30.1704 6.15039H13.7499V47.2263ZM28.2802 12.1566C33.7439 12.1566 36.9335 14.9747 36.9335 19.8993V19.9562C36.9335 24.8808 33.7439 27.7273 28.2802 27.7273H21.3695V12.1566H28.2802Z" fill="white"/>
<path d="M115.323 37.291H122.676V18.8168C122.676 15.1448 125.157 12.469 128.701 12.469C132.127 12.469 134.253 14.5754 134.253 17.9629V37.291H141.4V18.646C141.4 15.0024 143.822 12.469 147.366 12.469C150.969 12.469 152.977 14.6039 152.977 18.3329V37.291H160.331V16.568C160.331 10.5333 156.285 6.49121 150.113 6.49121C145.594 6.49121 141.873 8.82539 140.367 12.5829H140.19C139.038 8.71153 135.878 6.49121 131.507 6.49121C127.372 6.49121 124.153 8.6546 122.824 11.9566H122.676V7.11745H115.323V37.291Z" fill="white"/>
<path d="M88.2407 48.0001C94.7675 48.0001 98.4296 45.6375 100.822 39.005L112.074 7.80664H104.336L96.9825 31.9455H96.7758L89.4515 7.80664H81.4185L92.6706 38.0087L92.2277 39.2327C91.2826 41.7661 89.7173 42.5347 86.9117 42.5347C85.878 42.5347 85.0216 42.3924 84.4604 42.2785V47.687C85.3464 47.8293 86.8231 48.0001 88.2407 48.0001Z" fill="white"/>
<path d="M4.2823 16.0332C6.67449 16.0332 8.53508 14.2114 8.53508 11.9057C8.53508 9.59997 6.67449 7.80664 4.2823 7.80664C1.89012 7.80664 0 9.59997 0 11.9057C0 14.2114 1.89012 16.0332 4.2823 16.0332ZM4.2823 36.927C6.67449 36.927 8.53508 35.1052 8.53508 32.7995C8.53508 30.5222 6.67449 28.7004 4.2823 28.7004C1.89012 28.7004 0 30.5222 0 32.7995C0 35.1052 1.89012 36.927 4.2823 36.927Z" fill="white"/>
<path d="M74.6643 32.3984C80.4489 26.5017 80.4684 19.8798 77.939 15.8964L77.7845 15.6111L72.9187 20.5711L73.0151 20.7546C73.9159 22.6946 73.5276 25.7474 70.9381 28.3871C67.555 31.8357 63.2529 31.7929 59.4967 28.1342L74.992 12.3387L73.4123 10.7285C67.0937 4.28743 58.9619 4.00221 52.6343 10.4524C46.3067 16.9026 46.5786 25.4819 53.1736 32.2048L53.1933 32.2249C59.8476 39.0081 68.0235 39.1679 74.6643 32.3984ZM56.5473 14.3135C59.3039 11.5036 62.9673 11.1507 66.6605 14.1491L56.2816 24.7291C53.4807 21.0224 53.7908 17.1235 56.5473 14.3135Z" fill="white"/>
<path d="M189.997 32.3984C195.782 26.5017 195.801 19.8798 193.272 15.8964L193.117 15.6111L188.251 20.5711L188.348 20.7546C189.249 22.6946 188.86 25.7474 186.271 28.3871C182.888 31.8357 178.586 31.7929 174.829 28.1342L190.325 12.3387L188.745 10.7285C182.426 4.28744 174.295 4.00222 167.967 10.4524C161.639 16.9026 161.911 25.4819 168.506 32.2048L168.526 32.2249C175.18 39.0081 183.356 39.1679 189.997 32.3984ZM171.88 14.3135C174.637 11.5036 178.3 11.1507 181.993 14.1491L171.614 24.7291C168.813 21.0224 169.123 17.1235 171.88 14.3135Z" fill="white"/>
</svg>
