<svg width="60" height="60" viewBox="0 0 60 60" fill="none" xmlns="http://www.w3.org/2000/svg">
<circle cx="30" cy="30" r="30" fill="#2A84C6"/>
<circle cx="30" cy="30" r="30" fill="white" fill-opacity="0.2"/>
<path d="M30 29.9999C33.222 29.9999 35.8333 27.3886 35.8333 24.1666C35.8333 20.9446 33.222 18.3333 30 18.3333C26.778 18.3333 24.1666 20.9446 24.1666 24.1666C24.1666 27.3886 26.778 29.9999 30 29.9999ZM34.0833 31.4583H33.3222C32.3105 31.9231 31.1849 32.1874 30 32.1874C28.8151 32.1874 27.694 31.9231 26.6777 31.4583H25.9166C22.5351 31.4583 19.7916 34.2017 19.7916 37.5833V39.4791C19.7916 40.6868 20.7714 41.6666 21.9791 41.6666H38.0208C39.2285 41.6666 40.2083 40.6868 40.2083 39.4791V37.5833C40.2083 34.2017 37.4648 31.4583 34.0833 31.4583Z" fill="white"/>
</svg>
